<svg width="1728" height="1117" viewBox="0 0 1728 1117" fill="none" xmlns="http://www.w3.org/2000/svg">
<g clip-path="url(#clip0_16_121)">
<rect width="1728" height="1117" fill="#5A3695"/>
<path d="M-243 1116.82C35.6 896.221 189.5 735.322 395 957.722C600.5 1180.12 967 988.297 1037 1021.42C1107 1054.55 1222.5 821.797 1296.5 913.021C1370.5 1004.25 1544.9 665.222 1679.2 827.822C1693.76 845.407 1713.07 858.433 1734.82 865.348C1756.58 872.263 1779.86 872.774 1801.9 866.821C2004.1 811.921 2198.4 1041.82 2317 1116.82H-243Z" fill="#5865F2"/>
<g style="mix-blend-mode:color-dodge">
<rect x="-256" width="2403" height="1117" fill="#EB5E5E"/>
</g>
<g style="mix-blend-mode:exclusion" clip-path="url(#clip1_16_121)">
<g filter="url(#filter0_f_16_121)">
<ellipse cx="905.766" cy="1216.67" rx="905.766" ry="1216.67" transform="matrix(-0.220779 -0.975324 0.953203 -0.30233 948.953 1181.39)" fill="#E5320F"/>
</g>
<g filter="url(#filter1_f_16_121)">
<path d="M-820.874 381.696C-820.874 -403.215 -474.951 -1039.51 -48.2336 -1039.51C278.216 -1039.51 447.1 -881.333 560.269 -354.889C595.029 -193.192 724.407 197.26 724.407 381.695C724.407 1166.61 378.484 1802.9 -48.2334 1802.9C-474.951 1802.9 -820.874 1166.61 -820.874 381.696Z" fill="#340C00"/>
</g>
<g filter="url(#filter2_f_16_121)">
<path d="M2228.88 248.64C2803.14 641.096 3095.7 1313.86 2882.35 1751.29C2668.99 2188.73 2030.5 2225.19 1456.24 1832.74C881.98 1440.28 39.0255 722.547 252.384 285.111C321.65 143.101 68.6967 -203.423 289.18 -253.556C747.856 -357.848 1841.05 -16.4072 2228.88 248.64Z" fill="#E5320F"/>
</g>
<g filter="url(#filter3_f_16_121)">
<path d="M1344.6 496.543C1211.65 1083.84 845.051 1477.84 525.767 1376.57C206.484 1275.3 699.026 530.267 831.968 -57.0274C964.911 -644.322 687.912 -851.477 1007.2 -750.209C1326.48 -648.941 1477.54 -90.7511 1344.6 496.543Z" fill="#E97318"/>
</g>
<g filter="url(#filter4_f_16_121)">
<path d="M5.93527 925.489C-200.162 1835.95 -768.493 2446.76 -1263.47 2289.77C-1758.44 2132.78 -994.871 977.77 -788.774 67.3062C-582.677 -843.158 -1012.1 -1164.3 -517.125 -1007.31C-22.1497 -850.319 212.032 15.0253 5.93527 925.489Z" fill="#0D0300"/>
</g>
<g filter="url(#filter5_f_16_121)">
<path d="M3119.32 -1362.51C2913.23 -452.047 2344.89 158.762 1849.92 1.76925C1354.94 -155.223 2118.52 -1310.23 2324.61 -2220.69C2530.71 -3131.16 2101.29 -3452.3 2596.26 -3295.31C3091.24 -3138.32 3325.42 -2272.97 3119.32 -1362.51Z" fill="#EA9924"/>
</g>
<g filter="url(#filter6_f_16_121)">
<path d="M860.116 1318.41C860.116 1792.15 1140.72 1949.72 883.172 1949.72C625.624 1949.72 416.84 1565.68 416.84 1091.94C416.84 618.203 834.902 30 1092.45 30C1350 30 860.116 844.677 860.116 1318.41Z" fill="#FFCD84"/>
</g>
<g opacity="0.64" filter="url(#filter7_f_16_121)">
<ellipse cx="2186.8" cy="426.444" rx="396.444" ry="520.4" transform="rotate(90 2186.8 426.444)" fill="#0D0300"/>
</g>
<g opacity="0.4" filter="url(#filter8_f_16_121)">
<path d="M1827.89 273.446C1822.41 613.592 1668.05 885.951 1483.11 881.778C1298.17 877.604 1152.69 598.478 1158.17 258.332C1163.65 -81.8131 1318.01 -354.172 1502.95 -349.999C1687.89 -345.825 1833.37 -66.6992 1827.89 273.446Z" fill="#E5320F"/>
<path d="M2127.95 -266.912C2215.1 -88.2296 2257.63 148.857 2097.44 258.332C1937.25 367.808 1635.01 308.215 1547.86 129.533C1460.71 -49.1495 1519.91 -282.747 1680.1 -392.222C1840.29 -501.697 2040.8 -445.594 2127.95 -266.912Z" fill="#E5320F"/>
</g>
<g filter="url(#filter9_f_16_121)">
<path d="M747.603 997.011C747.603 1162.84 846.066 1218 755.693 1218C665.321 1218 592.059 1083.57 592.059 917.734C592.059 751.901 738.756 546 829.129 546C919.501 546 747.603 831.179 747.603 997.011Z" fill="#FFF0D9"/>
</g>
<g opacity="0.4" filter="url(#filter10_f_16_121)">
<ellipse cx="523.473" cy="-254.444" rx="549.686" ry="284.444" fill="#E5320F"/>
</g>
<g opacity="0.16" filter="url(#filter11_f_16_121)">
<ellipse cx="504.7" cy="49.5555" rx="587.984" ry="304" fill="#EA9924"/>
</g>
</g>
</g>
<defs>
<filter id="filter0_f_16_121" x="371.672" y="-1387.05" width="3074.07" height="2634.37" filterUnits="userSpaceOnUse" color-interpolation-filters="sRGB">
<feFlood flood-opacity="0" result="BackgroundImageFix"/>
<feBlend mode="normal" in="SourceGraphic" in2="BackgroundImageFix" result="shape"/>
<feGaussianBlur stdDeviation="180" result="effect1_foregroundBlur_16_121"/>
</filter>
<filter id="filter1_f_16_121" x="-1180.87" y="-1399.51" width="2265.28" height="3562.41" filterUnits="userSpaceOnUse" color-interpolation-filters="sRGB">
<feFlood flood-opacity="0" result="BackgroundImageFix"/>
<feBlend mode="normal" in="SourceGraphic" in2="BackgroundImageFix" result="shape"/>
<feGaussianBlur stdDeviation="180" result="effect1_foregroundBlur_16_121"/>
</filter>
<filter id="filter2_f_16_121" x="-163.12" y="-632.793" width="3475.21" height="3097.59" filterUnits="userSpaceOnUse" color-interpolation-filters="sRGB">
<feFlood flood-opacity="0" result="BackgroundImageFix"/>
<feBlend mode="normal" in="SourceGraphic" in2="BackgroundImageFix" result="shape"/>
<feGaussianBlur stdDeviation="180" result="effect1_foregroundBlur_16_121"/>
</filter>
<filter id="filter3_f_16_121" x="59.9609" y="-1134.84" width="1692.91" height="2887.28" filterUnits="userSpaceOnUse" color-interpolation-filters="sRGB">
<feFlood flood-opacity="0" result="BackgroundImageFix"/>
<feBlend mode="normal" in="SourceGraphic" in2="BackgroundImageFix" result="shape"/>
<feGaussianBlur stdDeviation="180" result="effect1_foregroundBlur_16_121"/>
</filter>
<filter id="filter4_f_16_121" x="-1787.5" y="-1405.49" width="2228.27" height="4079.86" filterUnits="userSpaceOnUse" color-interpolation-filters="sRGB">
<feFlood flood-opacity="0" result="BackgroundImageFix"/>
<feBlend mode="normal" in="SourceGraphic" in2="BackgroundImageFix" result="shape"/>
<feGaussianBlur stdDeviation="180" result="effect1_foregroundBlur_16_121"/>
</filter>
<filter id="filter5_f_16_121" x="1325.89" y="-3693.49" width="2228.27" height="4079.86" filterUnits="userSpaceOnUse" color-interpolation-filters="sRGB">
<feFlood flood-opacity="0" result="BackgroundImageFix"/>
<feBlend mode="normal" in="SourceGraphic" in2="BackgroundImageFix" result="shape"/>
<feGaussianBlur stdDeviation="180" result="effect1_foregroundBlur_16_121"/>
</filter>
<filter id="filter6_f_16_121" x="56.8401" y="-330" width="1470.44" height="2639.72" filterUnits="userSpaceOnUse" color-interpolation-filters="sRGB">
<feFlood flood-opacity="0" result="BackgroundImageFix"/>
<feBlend mode="normal" in="SourceGraphic" in2="BackgroundImageFix" result="shape"/>
<feGaussianBlur stdDeviation="180" result="effect1_foregroundBlur_16_121"/>
</filter>
<filter id="filter7_f_16_121" x="1186.4" y="-450" width="2000.8" height="1752.89" filterUnits="userSpaceOnUse" color-interpolation-filters="sRGB">
<feFlood flood-opacity="0" result="BackgroundImageFix"/>
<feBlend mode="normal" in="SourceGraphic" in2="BackgroundImageFix" result="shape"/>
<feGaussianBlur stdDeviation="240" result="effect1_foregroundBlur_16_121"/>
</filter>
<filter id="filter8_f_16_121" x="678.023" y="-928.171" width="2007.48" height="2290" filterUnits="userSpaceOnUse" color-interpolation-filters="sRGB">
<feFlood flood-opacity="0" result="BackgroundImageFix"/>
<feBlend mode="normal" in="SourceGraphic" in2="BackgroundImageFix" result="shape"/>
<feGaussianBlur stdDeviation="240" result="effect1_foregroundBlur_16_121"/>
</filter>
<filter id="filter9_f_16_121" x="432.059" y="386" width="583.329" height="992" filterUnits="userSpaceOnUse" color-interpolation-filters="sRGB">
<feFlood flood-opacity="0" result="BackgroundImageFix"/>
<feBlend mode="normal" in="SourceGraphic" in2="BackgroundImageFix" result="shape"/>
<feGaussianBlur stdDeviation="80" result="effect1_foregroundBlur_16_121"/>
</filter>
<filter id="filter10_f_16_121" x="-206.213" y="-718.889" width="1459.37" height="928.889" filterUnits="userSpaceOnUse" color-interpolation-filters="sRGB">
<feFlood flood-opacity="0" result="BackgroundImageFix"/>
<feBlend mode="normal" in="SourceGraphic" in2="BackgroundImageFix" result="shape"/>
<feGaussianBlur stdDeviation="90" result="effect1_foregroundBlur_16_121"/>
</filter>
<filter id="filter11_f_16_121" x="-263.284" y="-434.444" width="1535.97" height="968" filterUnits="userSpaceOnUse" color-interpolation-filters="sRGB">
<feFlood flood-opacity="0" result="BackgroundImageFix"/>
<feBlend mode="normal" in="SourceGraphic" in2="BackgroundImageFix" result="shape"/>
<feGaussianBlur stdDeviation="90" result="effect1_foregroundBlur_16_121"/>
</filter>
<clipPath id="clip0_16_121">
<rect width="1728" height="1117" fill="white"/>
</clipPath>
<clipPath id="clip1_16_121">
<rect width="2403" height="1600" fill="white" transform="translate(-256 -418)"/>
</clipPath>
</defs>
</svg>
