<svg width="1728" height="714" viewBox="0 0 1728 714" fill="none" xmlns="http://www.w3.org/2000/svg">
<g clip-path="url(#clip0_13_199)">
<rect width="1728" height="714" fill="#5A3695"/>
<path d="M-416 713.822C-137.4 493.221 16.5 332.322 222 554.722C427.5 777.122 794 585.297 864 618.422C934 651.546 1049.5 418.797 1123.5 510.021C1197.5 601.246 1371.9 262.222 1506.2 424.822C1520.76 442.407 1540.07 455.433 1561.82 462.348C1583.58 469.263 1606.86 469.774 1628.9 463.821C1831.1 408.921 2025.4 638.822 2144 713.822H-416Z" fill="#5865F2"/>
<g style="mix-blend-mode:color-dodge">
<rect x="-243" y="-213" width="2403" height="927" fill="#EB5E5E"/>
</g>
<g style="mix-blend-mode:exclusion" clip-path="url(#clip1_13_199)">
<g filter="url(#filter0_f_13_199)">
<ellipse cx="905.766" cy="1216.67" rx="905.766" ry="1216.67" transform="matrix(-0.220779 -0.975324 0.953203 -0.30233 961.953 1156.39)" fill="#E5320F"/>
</g>
<g filter="url(#filter1_f_13_199)">
<path d="M-807.874 356.696C-807.874 -428.215 -461.951 -1064.51 -35.2336 -1064.51C291.216 -1064.51 460.1 -906.333 573.269 -379.889C608.029 -218.192 737.407 172.26 737.407 356.695C737.407 1141.61 391.484 1777.9 -35.2334 1777.9C-461.951 1777.9 -807.874 1141.61 -807.874 356.696Z" fill="#340C00"/>
</g>
<g filter="url(#filter2_f_13_199)">
<path d="M2241.88 223.64C2816.14 616.096 3108.7 1288.86 2895.35 1726.29C2681.99 2163.73 2043.5 2200.19 1469.24 1807.74C894.98 1415.28 52.0255 697.547 265.384 260.111C334.65 118.101 81.6967 -228.423 302.18 -278.556C760.856 -382.848 1854.05 -41.4072 2241.88 223.64Z" fill="#E5320F"/>
</g>
<g filter="url(#filter3_f_13_199)">
<path d="M1357.59 471.543C1224.65 1058.84 858.051 1452.84 538.767 1351.57C219.484 1250.3 712.026 505.267 844.968 -82.0274C977.911 -669.322 700.912 -876.477 1020.2 -775.209C1339.48 -673.941 1490.54 -115.751 1357.59 471.543Z" fill="#E97318"/>
</g>
<g filter="url(#filter4_f_13_199)">
<path d="M18.9353 900.489C-187.162 1810.95 -755.493 2421.76 -1250.47 2264.77C-1745.44 2107.78 -981.871 952.77 -775.774 42.3062C-569.677 -868.158 -999.1 -1189.3 -504.125 -1032.31C-9.14972 -875.319 225.032 -9.9747 18.9353 900.489Z" fill="#0D0300"/>
</g>
<g filter="url(#filter5_f_13_199)">
<path d="M3132.32 -1387.51C2926.23 -477.047 2357.89 133.762 1862.92 -23.2307C1367.94 -180.223 2131.52 -1335.23 2337.61 -2245.69C2543.71 -3156.16 2114.29 -3477.3 2609.26 -3320.31C3104.24 -3163.32 3338.42 -2297.97 3132.32 -1387.51Z" fill="#EA9924"/>
</g>
<g filter="url(#filter6_f_13_199)">
<path d="M873.116 1293.41C873.116 1767.15 1153.72 1924.72 896.172 1924.72C638.624 1924.72 429.84 1540.68 429.84 1066.94C429.84 593.203 847.902 5 1105.45 5C1363 5 873.116 819.677 873.116 1293.41Z" fill="#FFCD84"/>
</g>
<g opacity="0.64" filter="url(#filter7_f_13_199)">
<ellipse cx="2199.8" cy="401.444" rx="396.444" ry="520.4" transform="rotate(90 2199.8 401.444)" fill="#0D0300"/>
</g>
<g opacity="0.4" filter="url(#filter8_f_13_199)">
<path d="M1840.89 248.446C1835.41 588.592 1681.05 860.951 1496.11 856.778C1311.17 852.604 1165.69 573.478 1171.17 233.332C1176.65 -106.813 1331.01 -379.172 1515.95 -374.999C1700.89 -370.825 1846.37 -91.6992 1840.89 248.446Z" fill="#E5320F"/>
<path d="M2140.95 -291.912C2228.1 -113.23 2270.63 123.857 2110.44 233.332C1950.25 342.808 1648.01 283.215 1560.86 104.533C1473.71 -74.1495 1532.91 -307.747 1693.1 -417.222C1853.29 -526.697 2053.8 -470.594 2140.95 -291.912Z" fill="#E5320F"/>
</g>
<g filter="url(#filter9_f_13_199)">
<path d="M760.603 972.011C760.603 1137.84 859.066 1193 768.693 1193C678.321 1193 605.059 1058.57 605.059 892.734C605.059 726.901 751.756 521 842.129 521C932.501 521 760.603 806.179 760.603 972.011Z" fill="#FFF0D9"/>
</g>
<g opacity="0.4" filter="url(#filter10_f_13_199)">
<ellipse cx="536.473" cy="-279.444" rx="549.686" ry="284.444" fill="#E5320F"/>
</g>
<g opacity="0.16" filter="url(#filter11_f_13_199)">
<ellipse cx="517.7" cy="24.5555" rx="587.984" ry="304" fill="#EA9924"/>
</g>
</g>
</g>
<defs>
<filter id="filter0_f_13_199" x="384.672" y="-1412.05" width="3074.07" height="2634.37" filterUnits="userSpaceOnUse" color-interpolation-filters="sRGB">
<feFlood flood-opacity="0" result="BackgroundImageFix"/>
<feBlend mode="normal" in="SourceGraphic" in2="BackgroundImageFix" result="shape"/>
<feGaussianBlur stdDeviation="180" result="effect1_foregroundBlur_13_199"/>
</filter>
<filter id="filter1_f_13_199" x="-1167.87" y="-1424.51" width="2265.28" height="3562.41" filterUnits="userSpaceOnUse" color-interpolation-filters="sRGB">
<feFlood flood-opacity="0" result="BackgroundImageFix"/>
<feBlend mode="normal" in="SourceGraphic" in2="BackgroundImageFix" result="shape"/>
<feGaussianBlur stdDeviation="180" result="effect1_foregroundBlur_13_199"/>
</filter>
<filter id="filter2_f_13_199" x="-150.12" y="-657.793" width="3475.21" height="3097.59" filterUnits="userSpaceOnUse" color-interpolation-filters="sRGB">
<feFlood flood-opacity="0" result="BackgroundImageFix"/>
<feBlend mode="normal" in="SourceGraphic" in2="BackgroundImageFix" result="shape"/>
<feGaussianBlur stdDeviation="180" result="effect1_foregroundBlur_13_199"/>
</filter>
<filter id="filter3_f_13_199" x="72.9608" y="-1159.84" width="1692.91" height="2887.28" filterUnits="userSpaceOnUse" color-interpolation-filters="sRGB">
<feFlood flood-opacity="0" result="BackgroundImageFix"/>
<feBlend mode="normal" in="SourceGraphic" in2="BackgroundImageFix" result="shape"/>
<feGaussianBlur stdDeviation="180" result="effect1_foregroundBlur_13_199"/>
</filter>
<filter id="filter4_f_13_199" x="-1774.5" y="-1430.49" width="2228.27" height="4079.86" filterUnits="userSpaceOnUse" color-interpolation-filters="sRGB">
<feFlood flood-opacity="0" result="BackgroundImageFix"/>
<feBlend mode="normal" in="SourceGraphic" in2="BackgroundImageFix" result="shape"/>
<feGaussianBlur stdDeviation="180" result="effect1_foregroundBlur_13_199"/>
</filter>
<filter id="filter5_f_13_199" x="1338.89" y="-3718.49" width="2228.27" height="4079.86" filterUnits="userSpaceOnUse" color-interpolation-filters="sRGB">
<feFlood flood-opacity="0" result="BackgroundImageFix"/>
<feBlend mode="normal" in="SourceGraphic" in2="BackgroundImageFix" result="shape"/>
<feGaussianBlur stdDeviation="180" result="effect1_foregroundBlur_13_199"/>
</filter>
<filter id="filter6_f_13_199" x="69.8401" y="-355" width="1470.44" height="2639.72" filterUnits="userSpaceOnUse" color-interpolation-filters="sRGB">
<feFlood flood-opacity="0" result="BackgroundImageFix"/>
<feBlend mode="normal" in="SourceGraphic" in2="BackgroundImageFix" result="shape"/>
<feGaussianBlur stdDeviation="180" result="effect1_foregroundBlur_13_199"/>
</filter>
<filter id="filter7_f_13_199" x="1199.4" y="-475" width="2000.8" height="1752.89" filterUnits="userSpaceOnUse" color-interpolation-filters="sRGB">
<feFlood flood-opacity="0" result="BackgroundImageFix"/>
<feBlend mode="normal" in="SourceGraphic" in2="BackgroundImageFix" result="shape"/>
<feGaussianBlur stdDeviation="240" result="effect1_foregroundBlur_13_199"/>
</filter>
<filter id="filter8_f_13_199" x="691.023" y="-953.171" width="2007.48" height="2290" filterUnits="userSpaceOnUse" color-interpolation-filters="sRGB">
<feFlood flood-opacity="0" result="BackgroundImageFix"/>
<feBlend mode="normal" in="SourceGraphic" in2="BackgroundImageFix" result="shape"/>
<feGaussianBlur stdDeviation="240" result="effect1_foregroundBlur_13_199"/>
</filter>
<filter id="filter9_f_13_199" x="445.059" y="361" width="583.329" height="992" filterUnits="userSpaceOnUse" color-interpolation-filters="sRGB">
<feFlood flood-opacity="0" result="BackgroundImageFix"/>
<feBlend mode="normal" in="SourceGraphic" in2="BackgroundImageFix" result="shape"/>
<feGaussianBlur stdDeviation="80" result="effect1_foregroundBlur_13_199"/>
</filter>
<filter id="filter10_f_13_199" x="-193.213" y="-743.889" width="1459.37" height="928.889" filterUnits="userSpaceOnUse" color-interpolation-filters="sRGB">
<feFlood flood-opacity="0" result="BackgroundImageFix"/>
<feBlend mode="normal" in="SourceGraphic" in2="BackgroundImageFix" result="shape"/>
<feGaussianBlur stdDeviation="90" result="effect1_foregroundBlur_13_199"/>
</filter>
<filter id="filter11_f_13_199" x="-250.284" y="-459.444" width="1535.97" height="968" filterUnits="userSpaceOnUse" color-interpolation-filters="sRGB">
<feFlood flood-opacity="0" result="BackgroundImageFix"/>
<feBlend mode="normal" in="SourceGraphic" in2="BackgroundImageFix" result="shape"/>
<feGaussianBlur stdDeviation="90" result="effect1_foregroundBlur_13_199"/>
</filter>
<clipPath id="clip0_13_199">
<rect width="1728" height="714" fill="white"/>
</clipPath>
<clipPath id="clip1_13_199">
<rect width="2403" height="1600" fill="white" transform="translate(-243 -443)"/>
</clipPath>
</defs>
</svg>
