<svg width="368" height="176" viewBox="0 0 368 176" fill="none" xmlns="http://www.w3.org/2000/svg">
<rect width="368" height="176" rx="32" fill="#EBBCD7"/>
<path d="M19.402 42L20.5952 34.7273H21.5895L20.3963 42H19.402ZM16.1243 40.125L16.2912 39.1307H21.8878L21.7209 40.125H16.1243ZM16.8452 42L18.0384 34.7273H19.0327L17.8395 42H16.8452ZM16.5469 37.5966L16.7102 36.6023H22.3068L22.1435 37.5966H16.5469ZM23.0961 42V36.5455H24.3248V37.4723H24.3887C24.5023 37.1598 24.6905 36.916 24.9533 36.7408C25.2161 36.5632 25.5298 36.4744 25.8944 36.4744C26.2637 36.4744 26.575 36.5644 26.8283 36.7443C27.084 36.9219 27.2639 37.1645 27.3681 37.4723H27.4249C27.5456 37.1693 27.7492 36.9278 28.0357 36.7479C28.3245 36.5656 28.6666 36.4744 29.062 36.4744C29.5639 36.4744 29.9734 36.633 30.2907 36.9503C30.6079 37.2675 30.7665 37.7304 30.7665 38.3388V42H29.4775V38.5376C29.4775 38.1991 29.3875 37.9517 29.2076 37.7955C29.0276 37.6368 28.8075 37.5575 28.5471 37.5575C28.2369 37.5575 27.9943 37.6546 27.8191 37.8487C27.6462 38.0405 27.5598 38.2902 27.5598 38.598V42H26.2992V38.4844C26.2992 38.2027 26.214 37.9777 26.0435 37.8097C25.8754 37.6416 25.6552 37.5575 25.383 37.5575C25.1983 37.5575 25.0302 37.6049 24.8787 37.6996C24.7272 37.7919 24.6065 37.9233 24.5165 38.0938C24.4266 38.2618 24.3816 38.4583 24.3816 38.6832V42H23.0961ZM34.4854 42.1065C33.9386 42.1065 33.4663 41.9929 33.0685 41.7656C32.6732 41.536 32.369 41.2116 32.1559 40.7926C31.9428 40.3712 31.8363 39.8752 31.8363 39.3047C31.8363 38.7436 31.9428 38.2512 32.1559 37.8274C32.3713 37.4013 32.672 37.0698 33.0579 36.8331C33.4438 36.594 33.8971 36.4744 34.418 36.4744C34.7541 36.4744 35.0714 36.5289 35.3697 36.6378C35.6703 36.7443 35.9355 36.91 36.1651 37.1349C36.3971 37.3598 36.5794 37.6463 36.712 37.9943C36.8446 38.34 36.9109 38.7519 36.9109 39.2301V39.6243H32.44V38.7578H35.6786C35.6763 38.5116 35.623 38.2926 35.5188 38.1009C35.4147 37.9067 35.2691 37.754 35.082 37.6428C34.8974 37.5315 34.6819 37.4759 34.4357 37.4759C34.1729 37.4759 33.9421 37.5398 33.7433 37.6676C33.5444 37.7931 33.3893 37.9588 33.2781 38.1648C33.1692 38.3684 33.1135 38.5921 33.1112 38.8359V39.5923C33.1112 39.9096 33.1692 40.1818 33.2852 40.4091C33.4012 40.634 33.5633 40.8068 33.7717 40.9276C33.98 41.0459 34.2238 41.1051 34.5032 41.1051C34.6902 41.1051 34.8595 41.0791 35.011 41.027C35.1625 40.9725 35.2939 40.8932 35.4052 40.7891C35.5165 40.6849 35.6005 40.5559 35.6573 40.402L36.8576 40.5369C36.7818 40.8542 36.6374 41.1312 36.4244 41.3679C36.2137 41.6023 35.9438 41.7846 35.6147 41.9148C35.2856 42.0426 34.9092 42.1065 34.4854 42.1065ZM40.0225 42.0959C39.594 42.0959 39.2105 41.9858 38.872 41.7656C38.5334 41.5455 38.2659 41.2259 38.0694 40.8068C37.8729 40.3878 37.7747 39.8788 37.7747 39.2798C37.7747 38.6738 37.8741 38.1624 38.073 37.7457C38.2742 37.3267 38.5453 37.0107 38.8862 36.7976C39.2271 36.5821 39.6071 36.4744 40.0261 36.4744C40.3457 36.4744 40.6085 36.5289 40.8145 36.6378C41.0204 36.7443 41.1838 36.8733 41.3045 37.0249C41.4252 37.174 41.5188 37.3149 41.585 37.4474H41.6383V34.7273H42.9274V42H41.6632V41.1406H41.585C41.5188 41.2732 41.4229 41.4141 41.2974 41.5632C41.1719 41.71 41.0062 41.8355 40.8002 41.9396C40.5943 42.0438 40.335 42.0959 40.0225 42.0959ZM40.3812 41.0412C40.6535 41.0412 40.8855 40.9678 41.0772 40.821C41.269 40.6719 41.4146 40.4647 41.514 40.1996C41.6135 39.9344 41.6632 39.6255 41.6632 39.2727C41.6632 38.92 41.6135 38.6134 41.514 38.353C41.417 38.0926 41.2725 37.8902 41.0808 37.7457C40.8914 37.6013 40.6582 37.5291 40.3812 37.5291C40.0948 37.5291 39.8556 37.6037 39.6639 37.7528C39.4721 37.902 39.3277 38.108 39.2306 38.3707C39.1336 38.6335 39.085 38.9342 39.085 39.2727C39.085 39.6136 39.1336 39.9179 39.2306 40.1854C39.3301 40.4505 39.4757 40.66 39.6674 40.8139C39.8616 40.9654 40.0995 41.0412 40.3812 41.0412ZM44.2972 42V36.5455H45.5827V42H44.2972ZM44.9435 35.7713C44.7399 35.7713 44.5647 35.7038 44.418 35.5689C44.2712 35.4316 44.1978 35.267 44.1978 35.0753C44.1978 34.8812 44.2712 34.7166 44.418 34.5817C44.5647 34.4444 44.7399 34.3757 44.9435 34.3757C45.1495 34.3757 45.3247 34.4444 45.4691 34.5817C45.6159 34.7166 45.6893 34.8812 45.6893 35.0753C45.6893 35.267 45.6159 35.4316 45.4691 35.5689C45.3247 35.7038 45.1495 35.7713 44.9435 35.7713ZM49.2839 42.1065C48.7394 42.1065 48.2718 41.987 47.8812 41.7479C47.493 41.5088 47.1935 41.1785 46.9828 40.7571C46.7744 40.3333 46.6703 39.8456 46.6703 39.294C46.6703 38.7401 46.7768 38.2512 46.9899 37.8274C47.2029 37.4013 47.5036 37.0698 47.8919 36.8331C48.2825 36.594 48.7441 36.4744 49.2768 36.4744C49.7195 36.4744 50.1113 36.5561 50.4522 36.7195C50.7955 36.8804 51.069 37.1089 51.2725 37.4048C51.4761 37.6984 51.5922 38.0417 51.6206 38.4347H50.3919C50.3422 38.1719 50.2238 37.9529 50.0368 37.7777C49.8521 37.6001 49.6047 37.5114 49.2946 37.5114C49.0318 37.5114 48.801 37.5824 48.6021 37.7244C48.4032 37.8641 48.2482 38.0653 48.1369 38.3281C48.028 38.5909 47.9735 38.9058 47.9735 39.2727C47.9735 39.6444 48.028 39.964 48.1369 40.2315C48.2458 40.4967 48.3985 40.7015 48.595 40.8459C48.7939 40.9879 49.027 41.0589 49.2946 41.0589C49.484 41.0589 49.6532 41.0234 49.8024 40.9524C49.9539 40.879 50.0806 40.7737 50.1824 40.6364C50.2842 40.4991 50.354 40.3321 50.3919 40.1357H51.6206C51.5898 40.5215 51.4761 40.8636 51.2797 41.1619C51.0832 41.4579 50.8156 41.6899 50.4771 41.858C50.1386 42.0237 49.7408 42.1065 49.2839 42.1065ZM52.6761 42V36.5455H53.9616V42H52.6761ZM53.3224 35.7713C53.1188 35.7713 52.9437 35.7038 52.7969 35.5689C52.6501 35.4316 52.5767 35.267 52.5767 35.0753C52.5767 34.8812 52.6501 34.7166 52.7969 34.5817C52.9437 34.4444 53.1188 34.3757 53.3224 34.3757C53.5284 34.3757 53.7036 34.4444 53.848 34.5817C53.9948 34.7166 54.0682 34.8812 54.0682 35.0753C54.0682 35.267 53.9948 35.4316 53.848 35.5689C53.7036 35.7038 53.5284 35.7713 53.3224 35.7713ZM56.5691 38.804V42H55.2836V36.5455H56.5123V37.4723H56.5762C56.7016 37.1669 56.9017 36.9242 57.1763 36.7443C57.4533 36.5644 57.7954 36.4744 58.2026 36.4744C58.579 36.4744 58.9069 36.5549 59.1863 36.7159C59.468 36.8769 59.6858 37.1101 59.8397 37.4155C59.9959 37.7209 60.0729 38.0914 60.0705 38.527V42H58.785V38.7259C58.785 38.3613 58.6903 38.076 58.5009 37.87C58.3139 37.6641 58.0546 37.5611 57.7232 37.5611C57.4983 37.5611 57.2982 37.6108 57.123 37.7102C56.9502 37.8073 56.8141 37.9482 56.7147 38.1328C56.6176 38.3175 56.5691 38.5412 56.5691 38.804ZM62.9469 42.1101C62.6013 42.1101 62.29 42.0485 62.013 41.9254C61.7383 41.8 61.5205 41.6153 61.3596 41.3714C61.2009 41.1276 61.1216 40.8269 61.1216 40.4695C61.1216 40.1617 61.1784 39.9072 61.2921 39.706C61.4057 39.5047 61.5608 39.3438 61.7573 39.223C61.9538 39.1023 62.1751 39.0111 62.4213 38.9496C62.6699 38.8857 62.9268 38.8395 63.1919 38.8111C63.5115 38.7779 63.7708 38.7483 63.9696 38.7223C64.1685 38.6939 64.3129 38.6513 64.4029 38.5945C64.4952 38.5353 64.5414 38.4441 64.5414 38.321V38.2997C64.5414 38.0322 64.4621 37.825 64.3034 37.6783C64.1448 37.5315 63.9164 37.4581 63.6181 37.4581C63.3032 37.4581 63.0534 37.5268 62.8688 37.6641C62.6865 37.8014 62.5634 37.9635 62.4995 38.1506L61.2992 37.9801C61.3939 37.6487 61.5501 37.3717 61.7679 37.1491C61.9857 36.9242 62.2521 36.7562 62.5669 36.6449C62.8818 36.5312 63.2298 36.4744 63.611 36.4744C63.8738 36.4744 64.1354 36.5052 64.3958 36.5668C64.6562 36.6283 64.8941 36.7301 65.1096 36.8722C65.325 37.0118 65.4978 37.2024 65.628 37.4439C65.7606 37.6854 65.8269 37.9872 65.8269 38.3494V42H64.5911V41.2507H64.5485C64.4703 41.4022 64.3603 41.5443 64.2182 41.6768C64.0785 41.8071 63.9022 41.9124 63.6891 41.9929C63.4784 42.071 63.231 42.1101 62.9469 42.1101ZM63.2807 41.1655C63.5388 41.1655 63.7625 41.1146 63.9519 41.0128C64.1413 40.9086 64.2869 40.7713 64.3887 40.6009C64.4928 40.4304 64.5449 40.2446 64.5449 40.0433V39.4006C64.5047 39.4337 64.436 39.4645 64.339 39.4929C64.2443 39.5213 64.1377 39.5462 64.0194 39.5675C63.901 39.5888 63.7838 39.6077 63.6678 39.6243C63.5518 39.6409 63.4512 39.6551 63.3659 39.6669C63.1742 39.6929 63.0025 39.7356 62.851 39.7947C62.6995 39.8539 62.58 39.9368 62.4924 40.0433C62.4048 40.1475 62.361 40.2824 62.361 40.4482C62.361 40.6849 62.4474 40.8636 62.6202 40.9844C62.793 41.1051 63.0132 41.1655 63.2807 41.1655Z" fill="black" fill-opacity="0.45"/>
<path d="M18.2955 79V55.7273H27.0227C28.8106 55.7273 30.3106 56.0606 31.5227 56.7273C32.7424 57.3939 33.6629 58.3106 34.2841 59.4773C34.9129 60.6364 35.2273 61.9545 35.2273 63.4318C35.2273 64.9242 34.9129 66.25 34.2841 67.4091C33.6553 68.5682 32.7273 69.4811 31.5 70.1477C30.2727 70.8068 28.7614 71.1364 26.9659 71.1364H21.1818V67.6705H26.3977C27.4432 67.6705 28.2992 67.4886 28.9659 67.125C29.6326 66.7614 30.125 66.2614 30.4432 65.625C30.7689 64.9886 30.9318 64.2576 30.9318 63.4318C30.9318 62.6061 30.7689 61.8788 30.4432 61.25C30.125 60.6212 29.6288 60.1326 28.9545 59.7841C28.2879 59.428 27.428 59.25 26.375 59.25H22.5114V79H18.2955ZM43.4176 79.3523C42.3116 79.3523 41.3153 79.1553 40.429 78.7614C39.5502 78.3598 38.8532 77.7689 38.3381 76.9886C37.8305 76.2083 37.5767 75.2462 37.5767 74.1023C37.5767 73.1174 37.7585 72.303 38.1222 71.6591C38.4858 71.0152 38.982 70.5 39.6108 70.1136C40.2396 69.7273 40.9479 69.4356 41.7358 69.2386C42.5313 69.0341 43.3532 68.8864 44.2017 68.7955C45.2244 68.6894 46.054 68.5947 46.6903 68.5114C47.3267 68.4205 47.7888 68.2841 48.0767 68.1023C48.3722 67.9129 48.5199 67.6212 48.5199 67.2273V67.1591C48.5199 66.303 48.2661 65.6402 47.7585 65.1705C47.2509 64.7008 46.5199 64.4659 45.5653 64.4659C44.5578 64.4659 43.7585 64.6856 43.1676 65.125C42.5843 65.5644 42.1903 66.0833 41.9858 66.6818L38.1449 66.1364C38.4479 65.0758 38.9479 64.1894 39.6449 63.4773C40.3419 62.7576 41.1941 62.2197 42.2017 61.8636C43.2093 61.5 44.3229 61.3182 45.5426 61.3182C46.3835 61.3182 47.2206 61.4167 48.054 61.6136C48.8873 61.8106 49.6487 62.1364 50.3381 62.5909C51.0275 63.0379 51.5805 63.6477 51.9972 64.4205C52.4214 65.1932 52.6335 66.1591 52.6335 67.3182V79H48.679V76.6023H48.5426C48.2926 77.0871 47.9403 77.5417 47.4858 77.9659C47.0388 78.3826 46.4744 78.7197 45.7926 78.9773C45.1184 79.2273 44.3267 79.3523 43.4176 79.3523ZM44.4858 76.3295C45.3116 76.3295 46.0275 76.1667 46.6335 75.8409C47.2396 75.5076 47.7055 75.0682 48.0312 74.5227C48.3646 73.9773 48.5312 73.3826 48.5312 72.7386V70.6818C48.4025 70.7879 48.1828 70.8864 47.8722 70.9773C47.5691 71.0682 47.2282 71.1477 46.8494 71.2159C46.4706 71.2841 46.0956 71.3447 45.7244 71.3977C45.3532 71.4508 45.0313 71.4962 44.7585 71.5341C44.1449 71.6174 43.5956 71.7538 43.1108 71.9432C42.6259 72.1326 42.2434 72.3977 41.9631 72.7386C41.6828 73.072 41.5426 73.5038 41.5426 74.0341C41.5426 74.7917 41.8191 75.3636 42.3722 75.75C42.9252 76.1364 43.6297 76.3295 44.4858 76.3295ZM65.4858 61.5455V64.7273H55.4517V61.5455H65.4858ZM57.929 57.3636H62.0426V73.75C62.0426 74.303 62.1259 74.7273 62.2926 75.0227C62.4669 75.3106 62.6941 75.5076 62.9744 75.6136C63.2547 75.7197 63.5653 75.7727 63.9062 75.7727C64.1638 75.7727 64.3987 75.7538 64.6108 75.7159C64.8305 75.678 64.9972 75.6439 65.1108 75.6136L65.804 78.8295C65.5843 78.9053 65.2699 78.9886 64.8608 79.0795C64.4593 79.1705 63.9669 79.2235 63.3835 79.2386C62.3532 79.2689 61.4252 79.1136 60.5994 78.7727C59.7737 78.4242 59.1184 77.8864 58.6335 77.1591C58.1563 76.4318 57.9214 75.5227 57.929 74.4318V57.3636ZM76.3523 79.3409C74.6477 79.3409 73.1705 78.9659 71.9205 78.2159C70.6705 77.4659 69.7008 76.4167 69.0114 75.0682C68.3295 73.7197 67.9886 72.1439 67.9886 70.3409C67.9886 68.5379 68.3295 66.9583 69.0114 65.6023C69.7008 64.2462 70.6705 63.1932 71.9205 62.4432C73.1705 61.6932 74.6477 61.3182 76.3523 61.3182C78.0568 61.3182 79.5341 61.6932 80.7841 62.4432C82.0341 63.1932 83 64.2462 83.6818 65.6023C84.3712 66.9583 84.7159 68.5379 84.7159 70.3409C84.7159 72.1439 84.3712 73.7197 83.6818 75.0682C83 76.4167 82.0341 77.4659 80.7841 78.2159C79.5341 78.9659 78.0568 79.3409 76.3523 79.3409ZM76.375 76.0455C77.2992 76.0455 78.072 75.7917 78.6932 75.2841C79.3144 74.7689 79.7765 74.0795 80.0795 73.2159C80.3902 72.3523 80.5455 71.3902 80.5455 70.3295C80.5455 69.2614 80.3902 68.2955 80.0795 67.4318C79.7765 66.5606 79.3144 65.8674 78.6932 65.3523C78.072 64.8371 77.2992 64.5795 76.375 64.5795C75.428 64.5795 74.6402 64.8371 74.0114 65.3523C73.3902 65.8674 72.9242 66.5606 72.6136 67.4318C72.3106 68.2955 72.1591 69.2614 72.1591 70.3295C72.1591 71.3902 72.3106 72.3523 72.6136 73.2159C72.9242 74.0795 73.3902 74.7689 74.0114 75.2841C74.6402 75.7917 75.428 76.0455 76.375 76.0455ZM92.321 55.7273V79H88.2074V55.7273H92.321ZM104.165 79.3409C102.46 79.3409 100.983 78.9659 99.733 78.2159C98.483 77.4659 97.5133 76.4167 96.8239 75.0682C96.142 73.7197 95.8011 72.1439 95.8011 70.3409C95.8011 68.5379 96.142 66.9583 96.8239 65.6023C97.5133 64.2462 98.483 63.1932 99.733 62.4432C100.983 61.6932 102.46 61.3182 104.165 61.3182C105.869 61.3182 107.347 61.6932 108.597 62.4432C109.847 63.1932 110.813 64.2462 111.494 65.6023C112.184 66.9583 112.528 68.5379 112.528 70.3409C112.528 72.1439 112.184 73.7197 111.494 75.0682C110.813 76.4167 109.847 77.4659 108.597 78.2159C107.347 78.9659 105.869 79.3409 104.165 79.3409ZM104.188 76.0455C105.112 76.0455 105.884 75.7917 106.506 75.2841C107.127 74.7689 107.589 74.0795 107.892 73.2159C108.203 72.3523 108.358 71.3902 108.358 70.3295C108.358 69.2614 108.203 68.2955 107.892 67.4318C107.589 66.5606 107.127 65.8674 106.506 65.3523C105.884 64.8371 105.112 64.5795 104.188 64.5795C103.241 64.5795 102.453 64.8371 101.824 65.3523C101.203 65.8674 100.737 66.5606 100.426 67.4318C100.123 68.2955 99.9716 69.2614 99.9716 70.3295C99.9716 71.3902 100.123 72.3523 100.426 73.2159C100.737 74.0795 101.203 74.7689 101.824 75.2841C102.453 75.7917 103.241 76.0455 104.188 76.0455ZM123.611 85.9091C122.134 85.9091 120.865 85.7083 119.804 85.3068C118.743 84.9129 117.891 84.3826 117.247 83.7159C116.603 83.0492 116.156 82.3106 115.906 81.5L119.611 80.6023C119.777 80.9432 120.02 81.2803 120.338 81.6136C120.656 81.9545 121.084 82.2348 121.622 82.4545C122.168 82.6818 122.853 82.7955 123.679 82.7955C124.846 82.7955 125.812 82.5114 126.577 81.9432C127.342 81.3826 127.724 80.4583 127.724 79.1705V75.8636H127.52C127.308 76.2879 126.997 76.7235 126.588 77.1705C126.187 77.6174 125.652 77.9924 124.986 78.2955C124.327 78.5985 123.497 78.75 122.497 78.75C121.156 78.75 119.94 78.4356 118.849 77.8068C117.766 77.1705 116.902 76.2235 116.259 74.9659C115.622 73.7008 115.304 72.1174 115.304 70.2159C115.304 68.2992 115.622 66.6818 116.259 65.3636C116.902 64.0379 117.77 63.0341 118.861 62.3523C119.952 61.6629 121.168 61.3182 122.509 61.3182C123.531 61.3182 124.372 61.4924 125.031 61.8409C125.698 62.1818 126.228 62.5947 126.622 63.0795C127.016 63.5568 127.315 64.0076 127.52 64.4318H127.747V61.5455H131.804V79.2841C131.804 80.7765 131.448 82.0114 130.736 82.9886C130.024 83.9659 129.05 84.697 127.815 85.1818C126.58 85.6667 125.179 85.9091 123.611 85.9091ZM123.645 75.5227C124.516 75.5227 125.259 75.3106 125.872 74.8864C126.486 74.4621 126.952 73.8523 127.27 73.0568C127.588 72.2614 127.747 71.3068 127.747 70.1932C127.747 69.0947 127.588 68.1326 127.27 67.3068C126.959 66.4811 126.497 65.8409 125.884 65.3864C125.277 64.9242 124.531 64.6932 123.645 64.6932C122.728 64.6932 121.963 64.9318 121.349 65.4091C120.736 65.8864 120.274 66.5417 119.963 67.375C119.652 68.2008 119.497 69.1402 119.497 70.1932C119.497 71.2614 119.652 72.197 119.963 73C120.281 73.7955 120.747 74.4167 121.361 74.8636C121.982 75.303 122.743 75.5227 123.645 75.5227ZM136.02 79V61.5455H140.134V79H136.02ZM138.088 59.0682C137.437 59.0682 136.876 58.8523 136.406 58.4205C135.937 57.9811 135.702 57.4545 135.702 56.8409C135.702 56.2197 135.937 55.6932 136.406 55.2614C136.876 54.822 137.437 54.6023 138.088 54.6023C138.747 54.6023 139.308 54.822 139.77 55.2614C140.24 55.6932 140.474 56.2197 140.474 56.8409C140.474 57.4545 140.24 57.9811 139.77 58.4205C139.308 58.8523 138.747 59.0682 138.088 59.0682ZM149.386 79.3523C148.28 79.3523 147.284 79.1553 146.398 78.7614C145.519 78.3598 144.822 77.7689 144.307 76.9886C143.799 76.2083 143.545 75.2462 143.545 74.1023C143.545 73.1174 143.727 72.303 144.091 71.6591C144.455 71.0152 144.951 70.5 145.58 70.1136C146.208 69.7273 146.917 69.4356 147.705 69.2386C148.5 69.0341 149.322 68.8864 150.17 68.7955C151.193 68.6894 152.023 68.5947 152.659 68.5114C153.295 68.4205 153.758 68.2841 154.045 68.1023C154.341 67.9129 154.489 67.6212 154.489 67.2273V67.1591C154.489 66.303 154.235 65.6402 153.727 65.1705C153.22 64.7008 152.489 64.4659 151.534 64.4659C150.527 64.4659 149.727 64.6856 149.136 65.125C148.553 65.5644 148.159 66.0833 147.955 66.6818L144.114 66.1364C144.417 65.0758 144.917 64.1894 145.614 63.4773C146.311 62.7576 147.163 62.2197 148.17 61.8636C149.178 61.5 150.292 61.3182 151.511 61.3182C152.352 61.3182 153.189 61.4167 154.023 61.6136C154.856 61.8106 155.617 62.1364 156.307 62.5909C156.996 63.0379 157.549 63.6477 157.966 64.4205C158.39 65.1932 158.602 66.1591 158.602 67.3182V79H154.648V76.6023H154.511C154.261 77.0871 153.909 77.5417 153.455 77.9659C153.008 78.3826 152.443 78.7197 151.761 78.9773C151.087 79.2273 150.295 79.3523 149.386 79.3523ZM150.455 76.3295C151.28 76.3295 151.996 76.1667 152.602 75.8409C153.208 75.5076 153.674 75.0682 154 74.5227C154.333 73.9773 154.5 73.3826 154.5 72.7386V70.6818C154.371 70.7879 154.152 70.8864 153.841 70.9773C153.538 71.0682 153.197 71.1477 152.818 71.2159C152.439 71.2841 152.064 71.3447 151.693 71.3977C151.322 71.4508 151 71.4962 150.727 71.5341C150.114 71.6174 149.564 71.7538 149.08 71.9432C148.595 72.1326 148.212 72.3977 147.932 72.7386C147.652 73.072 147.511 73.5038 147.511 74.0341C147.511 74.7917 147.788 75.3636 148.341 75.75C148.894 76.1364 149.598 76.3295 150.455 76.3295Z" fill="#343A40"/>
<path fill-rule="evenodd" clip-rule="evenodd" d="M21.8333 129.667C19.5321 129.667 17.6667 131.532 17.6667 133.833V142.167C17.6667 144.468 19.5321 146.333 21.8333 146.333H30.1667C32.4678 146.333 34.3333 144.468 34.3333 142.167V133.833C34.3333 131.532 32.4678 129.667 30.1667 129.667H21.8333ZM27.1208 134.222C26.6622 133.293 25.3374 133.293 24.8789 134.222L24.2219 135.553L22.7528 135.766C21.7275 135.915 21.3181 137.175 22.06 137.899L23.1231 138.935L22.8721 140.398C22.697 141.419 23.7688 142.198 24.6858 141.716L25.9998 141.025L27.3139 141.716C28.2309 142.198 29.3027 141.419 29.1276 140.398L28.8766 138.935L29.9397 137.899C30.6816 137.175 30.2722 135.915 29.2469 135.766L27.7778 135.553L27.1208 134.222Z" fill="#A93276"/>
<path d="M43.3345 142.138C42.7498 142.138 42.2479 141.991 41.8288 141.695C41.4122 141.396 41.0914 140.967 40.8665 140.406C40.6439 139.842 40.5327 139.164 40.5327 138.371C40.535 137.578 40.6475 136.903 40.87 136.347C41.0949 135.788 41.4157 135.362 41.8324 135.068C42.2514 134.775 42.7521 134.628 43.3345 134.628C43.9169 134.628 44.4176 134.775 44.8366 135.068C45.2557 135.362 45.5765 135.788 45.799 136.347C46.0239 136.905 46.1364 137.58 46.1364 138.371C46.1364 139.166 46.0239 139.846 45.799 140.409C45.5765 140.97 45.2557 141.399 44.8366 141.695C44.42 141.991 43.9193 142.138 43.3345 142.138ZM43.3345 141.027C43.7891 141.027 44.1477 140.803 44.4105 140.356C44.6757 139.906 44.8082 139.244 44.8082 138.371C44.8082 137.793 44.7479 137.308 44.6271 136.915C44.5064 136.522 44.3359 136.226 44.1158 136.027C43.8956 135.826 43.6352 135.725 43.3345 135.725C42.8823 135.725 42.5249 135.95 42.2621 136.4C41.9993 136.847 41.8667 137.504 41.8643 138.371C41.862 138.951 41.92 139.438 42.0384 139.834C42.1591 140.229 42.3295 140.527 42.5497 140.729C42.7699 140.928 43.0315 141.027 43.3345 141.027ZM52.7797 134.386L50.4359 143.094H49.3102L51.6539 134.386H52.7797ZM59.0243 134.727V142H57.7069V136.009H57.6642L55.9632 137.096V135.888L57.7708 134.727H59.0243ZM60.7395 140.651V139.603L63.8255 134.727H64.699V136.219H64.1664L62.089 139.511V139.567H66.3965V140.651H60.7395ZM64.209 142V140.331L64.2232 139.862V134.727H65.4661V142H64.209Z" fill="black" fill-opacity="0.45"/>
<rect x="308" y="116" width="44" height="44" rx="15" fill="#A93276"/>
<path fill-rule="evenodd" clip-rule="evenodd" d="M331.293 130.293C331.683 129.902 332.317 129.902 332.707 130.293L339.707 137.293C340.098 137.683 340.098 138.317 339.707 138.707L332.707 145.707C332.317 146.098 331.683 146.098 331.293 145.707C330.902 145.317 330.902 144.683 331.293 144.293L336.586 139H321C320.448 139 320 138.552 320 138C320 137.448 320.448 137 321 137H336.586L331.293 131.707C330.902 131.317 330.902 130.683 331.293 130.293Z" fill="#EBBCD7"/>
</svg>
