<svg width="368" height="176" viewBox="0 0 368 176" fill="none" xmlns="http://www.w3.org/2000/svg">
<rect width="368" height="176" rx="32" fill="#C6B4E4"/>
<path d="M19.402 42L20.5952 34.7273H21.5895L20.3963 42H19.402ZM16.1243 40.125L16.2912 39.1307H21.8878L21.7209 40.125H16.1243ZM16.8452 42L18.0384 34.7273H19.0327L17.8395 42H16.8452ZM16.5469 37.5966L16.7102 36.6023H22.3068L22.1435 37.5966H16.5469ZM23.0961 42V36.5455H24.3425V37.4545H24.3993C24.4988 37.1397 24.6692 36.897 24.9107 36.7266C25.1545 36.5537 25.4327 36.4673 25.7452 36.4673C25.8162 36.4673 25.8955 36.4709 25.9831 36.478C26.0731 36.4827 26.1477 36.491 26.2069 36.5028V37.6854C26.1524 37.6664 26.066 37.6499 25.9476 37.6357C25.8316 37.6191 25.7192 37.6108 25.6103 37.6108C25.3759 37.6108 25.1652 37.6617 24.9782 37.7635C24.7935 37.8629 24.6479 38.0014 24.5414 38.179C24.4348 38.3565 24.3816 38.5613 24.3816 38.7933V42H23.0961ZM29.2511 42.1065C28.7042 42.1065 28.2319 41.9929 27.8342 41.7656C27.4388 41.536 27.1346 41.2116 26.9215 40.7926C26.7085 40.3712 26.6019 39.8752 26.6019 39.3047C26.6019 38.7436 26.7085 38.2512 26.9215 37.8274C27.137 37.4013 27.4376 37.0698 27.8235 36.8331C28.2094 36.594 28.6628 36.4744 29.1836 36.4744C29.5198 36.4744 29.837 36.5289 30.1353 36.6378C30.436 36.7443 30.7011 36.91 30.9308 37.1349C31.1628 37.3598 31.3451 37.6463 31.4776 37.9943C31.6102 38.34 31.6765 38.7519 31.6765 39.2301V39.6243H27.2056V38.7578H30.4442C30.4419 38.5116 30.3886 38.2926 30.2844 38.1009C30.1803 37.9067 30.0347 37.754 29.8477 37.6428C29.663 37.5315 29.4476 37.4759 29.2013 37.4759C28.9386 37.4759 28.7077 37.5398 28.5089 37.6676C28.31 37.7931 28.1549 37.9588 28.0437 38.1648C27.9348 38.3684 27.8791 38.5921 27.8768 38.8359V39.5923C27.8768 39.9096 27.9348 40.1818 28.0508 40.4091C28.1668 40.634 28.329 40.8068 28.5373 40.9276C28.7456 41.0459 28.9895 41.1051 29.2688 41.1051C29.4558 41.1051 29.6251 41.0791 29.7766 41.027C29.9281 40.9725 30.0595 40.8932 30.1708 40.7891C30.2821 40.6849 30.3661 40.5559 30.4229 40.402L31.6232 40.5369C31.5475 40.8542 31.4031 41.1312 31.19 41.3679C30.9793 41.6023 30.7094 41.7846 30.3803 41.9148C30.0513 42.0426 29.6748 42.1065 29.2511 42.1065ZM34.7882 42.0959C34.3597 42.0959 33.9761 41.9858 33.6376 41.7656C33.2991 41.5455 33.0315 41.2259 32.835 40.8068C32.6386 40.3878 32.5403 39.8788 32.5403 39.2798C32.5403 38.6738 32.6397 38.1624 32.8386 37.7457C33.0398 37.3267 33.3109 37.0107 33.6518 36.7976C33.9927 36.5821 34.3727 36.4744 34.7917 36.4744C35.1113 36.4744 35.3741 36.5289 35.5801 36.6378C35.786 36.7443 35.9494 36.8733 36.0701 37.0249C36.1909 37.174 36.2844 37.3149 36.3507 37.4474H36.4039V34.7273H37.693V42H36.4288V41.1406H36.3507C36.2844 41.2732 36.1885 41.4141 36.063 41.5632C35.9376 41.71 35.7718 41.8355 35.5659 41.9396C35.3599 42.0438 35.1007 42.0959 34.7882 42.0959ZM35.1468 41.0412C35.4191 41.0412 35.6511 40.9678 35.8429 40.821C36.0346 40.6719 36.1802 40.4647 36.2797 40.1996C36.3791 39.9344 36.4288 39.6255 36.4288 39.2727C36.4288 38.92 36.3791 38.6134 36.2797 38.353C36.1826 38.0926 36.0382 37.8902 35.8464 37.7457C35.657 37.6013 35.4238 37.5291 35.1468 37.5291C34.8604 37.5291 34.6213 37.6037 34.4295 37.7528C34.2377 37.902 34.0933 38.108 33.9963 38.3707C33.8992 38.6335 33.8507 38.9342 33.8507 39.2727C33.8507 39.6136 33.8992 39.9179 33.9963 40.1854C34.0957 40.4505 34.2413 40.66 34.4331 40.8139C34.6272 40.9654 34.8651 41.0412 35.1468 41.0412ZM41.4776 42.1065C40.9308 42.1065 40.4585 41.9929 40.0607 41.7656C39.6654 41.536 39.3612 41.2116 39.1481 40.7926C38.935 40.3712 38.8285 39.8752 38.8285 39.3047C38.8285 38.7436 38.935 38.2512 39.1481 37.8274C39.3635 37.4013 39.6642 37.0698 40.0501 36.8331C40.436 36.594 40.8893 36.4744 41.4102 36.4744C41.7463 36.4744 42.0636 36.5289 42.3619 36.6378C42.6625 36.7443 42.9277 36.91 43.1573 37.1349C43.3893 37.3598 43.5716 37.6463 43.7042 37.9943C43.8368 38.34 43.9031 38.7519 43.9031 39.2301V39.6243H39.4322V38.7578H42.6708C42.6684 38.5116 42.6152 38.2926 42.511 38.1009C42.4068 37.9067 42.2612 37.754 42.0742 37.6428C41.8896 37.5315 41.6741 37.4759 41.4279 37.4759C41.1651 37.4759 40.9343 37.5398 40.7354 37.6676C40.5366 37.7931 40.3815 37.9588 40.2702 38.1648C40.1613 38.3684 40.1057 38.5921 40.1033 38.8359V39.5923C40.1033 39.9096 40.1613 40.1818 40.2773 40.4091C40.3933 40.634 40.5555 40.8068 40.7638 40.9276C40.9722 41.0459 41.216 41.1051 41.4954 41.1051C41.6824 41.1051 41.8517 41.0791 42.0032 41.027C42.1547 40.9725 42.2861 40.8932 42.3974 40.7891C42.5086 40.6849 42.5927 40.5559 42.6495 40.402L43.8498 40.5369C43.774 40.8542 43.6296 41.1312 43.4165 41.3679C43.2058 41.6023 42.936 41.7846 42.6069 41.9148C42.2778 42.0426 41.9014 42.1065 41.4776 42.1065ZM49.3017 37.9872L48.1298 38.1151C48.0967 37.9967 48.0386 37.8854 47.9558 37.7812C47.8753 37.6771 47.7664 37.593 47.6291 37.5291C47.4918 37.4652 47.3237 37.4332 47.1248 37.4332C46.8573 37.4332 46.6324 37.4912 46.4501 37.6072C46.2702 37.7232 46.1814 37.8736 46.1838 38.0582C46.1814 38.2169 46.2394 38.3459 46.3578 38.4453C46.4785 38.5447 46.6774 38.6264 46.9544 38.6903L47.8848 38.8892C48.4009 39.0005 48.7844 39.1768 49.0353 39.4183C49.2886 39.6598 49.4165 39.9759 49.4189 40.3665C49.4165 40.7098 49.3159 41.0128 49.117 41.2756C48.9205 41.536 48.6471 41.7396 48.2967 41.8864C47.9463 42.0331 47.5439 42.1065 47.0893 42.1065C46.4217 42.1065 45.8843 41.9669 45.4771 41.6875C45.0699 41.4058 44.8272 41.014 44.7491 40.5121L46.0027 40.3913C46.0595 40.6375 46.1802 40.8234 46.3649 40.9489C46.5495 41.0743 46.7898 41.1371 47.0858 41.1371C47.3912 41.1371 47.6362 41.0743 47.8208 40.9489C48.0079 40.8234 48.1014 40.6683 48.1014 40.4837C48.1014 40.3274 48.041 40.1984 47.9203 40.0966C47.8019 39.9948 47.6172 39.9167 47.3663 39.8622L46.4359 39.6669C45.9127 39.558 45.5256 39.3745 45.2747 39.1165C45.0237 38.8561 44.8994 38.527 44.9018 38.1293C44.8994 37.7931 44.9906 37.5019 45.1752 37.2557C45.3623 37.0071 45.6215 36.8153 45.9529 36.6804C46.2868 36.5431 46.6715 36.4744 47.1071 36.4744C47.7463 36.4744 48.2493 36.6106 48.6163 36.8828C48.9856 37.1551 49.2141 37.5232 49.3017 37.9872Z" fill="black" fill-opacity="0.45"/>
<path d="M22.5114 55.7273V79H18.2955V55.7273H22.5114ZM27.0767 79V55.7273H35.804C37.5919 55.7273 39.0919 56.0606 40.304 56.7273C41.5237 57.3939 42.4441 58.3106 43.0653 59.4773C43.6941 60.6364 44.0085 61.9545 44.0085 63.4318C44.0085 64.9242 43.6941 66.25 43.0653 67.4091C42.4366 68.5682 41.5085 69.4811 40.2812 70.1477C39.054 70.8068 37.5426 71.1364 35.7472 71.1364H29.9631V67.6705H35.179C36.2244 67.6705 37.0805 67.4886 37.7472 67.125C38.4138 66.7614 38.9063 66.2614 39.2244 65.625C39.5502 64.9886 39.7131 64.2576 39.7131 63.4318C39.7131 62.6061 39.5502 61.8788 39.2244 61.25C38.9063 60.6212 38.41 60.1326 37.7358 59.7841C37.0691 59.428 36.2093 59.25 35.1562 59.25H31.2926V79H27.0767ZM50.7841 55.7273L56.8409 74.0455H57.0795L63.125 55.7273H67.7614L59.5568 79H54.3523L46.1591 55.7273H50.7841ZM69.0852 74.6818V71.3295L78.9602 55.7273H81.7557V60.5H80.0511L73.4034 71.0341V71.2159H87.1875V74.6818H69.0852ZM80.1875 79V73.6591L80.233 72.1591V55.7273H84.2102V79H80.1875ZM105.756 79.3409C104.165 79.3409 102.797 79.053 101.653 78.4773C100.509 77.9015 99.6269 77.125 99.0057 76.1477C98.392 75.1629 98.0852 74.053 98.0852 72.8182C98.0852 71.8864 98.2746 71.0606 98.6534 70.3409C99.0398 69.6212 99.5701 68.9545 100.244 68.3409C100.926 67.7273 101.714 67.1174 102.608 66.5114L106.733 63.7045C107.339 63.3106 107.797 62.8939 108.108 62.4545C108.426 62.0152 108.585 61.5 108.585 60.9091C108.585 60.4091 108.373 59.9356 107.949 59.4886C107.532 59.0417 106.956 58.8182 106.222 58.8182C105.729 58.8182 105.294 58.9356 104.915 59.1705C104.544 59.3977 104.252 59.697 104.04 60.0682C103.835 60.4394 103.733 60.8333 103.733 61.25C103.733 61.7576 103.873 62.2727 104.153 62.7955C104.441 63.3182 104.813 63.8598 105.267 64.4205C105.729 64.9811 106.222 65.5758 106.744 66.2045L117.665 79H113.21L104.142 68.6136C103.468 67.8258 102.816 67.0492 102.188 66.2841C101.566 65.5189 101.055 64.7235 100.653 63.8977C100.259 63.0644 100.062 62.1629 100.062 61.1932C100.062 60.0947 100.316 59.1136 100.824 58.25C101.331 57.3788 102.04 56.6932 102.949 56.1932C103.866 55.6932 104.938 55.4432 106.165 55.4432C107.392 55.4432 108.445 55.6856 109.324 56.1705C110.203 56.6553 110.881 57.2992 111.358 58.1023C111.835 58.9053 112.074 59.7803 112.074 60.7273C112.074 61.8258 111.801 62.8106 111.256 63.6818C110.71 64.5455 109.953 65.3295 108.983 66.0341L104.278 69.4773C103.506 70.0379 102.953 70.6061 102.619 71.1818C102.286 71.75 102.119 72.2348 102.119 72.6364C102.119 73.25 102.275 73.8068 102.585 74.3068C102.896 74.8068 103.331 75.2083 103.892 75.5114C104.46 75.8068 105.123 75.9545 105.881 75.9545C106.714 75.9545 107.536 75.7689 108.347 75.3977C109.157 75.0189 109.896 74.4811 110.562 73.7841C111.229 73.0871 111.759 72.2538 112.153 71.2841C112.547 70.3068 112.744 69.2235 112.744 68.0341H116.278C116.278 69.5038 116.116 70.7841 115.79 71.875C115.464 72.9583 115.044 73.875 114.528 74.625C114.013 75.3674 113.468 75.9621 112.892 76.4091C112.71 76.5379 112.536 76.6667 112.369 76.7955C112.203 76.9242 112.028 77.053 111.847 77.1818C111.028 77.9242 110.07 78.4697 108.972 78.8182C107.881 79.1667 106.809 79.3409 105.756 79.3409ZM132.355 55.7273V79H128.139V55.7273H132.355ZM136.92 79V55.7273H145.648C147.436 55.7273 148.936 56.0606 150.148 56.7273C151.367 57.3939 152.288 58.3106 152.909 59.4773C153.538 60.6364 153.852 61.9545 153.852 63.4318C153.852 64.9242 153.538 66.25 152.909 67.4091C152.28 68.5682 151.352 69.4811 150.125 70.1477C148.898 70.8068 147.386 71.1364 145.591 71.1364H139.807V67.6705H145.023C146.068 67.6705 146.924 67.4886 147.591 67.125C148.258 66.7614 148.75 66.2614 149.068 65.625C149.394 64.9886 149.557 64.2576 149.557 63.4318C149.557 62.6061 149.394 61.8788 149.068 61.25C148.75 60.6212 148.254 60.1326 147.58 59.7841C146.913 59.428 146.053 59.25 145 59.25H141.136V79H136.92ZM160.628 55.7273L166.685 74.0455H166.923L172.969 55.7273H177.605L169.401 79H164.196L156.003 55.7273H160.628ZM188.966 79.3182C187.852 79.3106 186.765 79.1174 185.705 78.7386C184.644 78.3523 183.689 77.7273 182.841 76.8636C181.992 75.9924 181.318 74.8371 180.818 73.3977C180.318 71.9508 180.072 70.1591 180.08 68.0227C180.08 66.0303 180.292 64.2538 180.716 62.6932C181.14 61.1326 181.75 59.8144 182.545 58.7386C183.341 57.6553 184.299 56.8295 185.42 56.2614C186.549 55.6932 187.811 55.4091 189.205 55.4091C190.667 55.4091 191.962 55.697 193.091 56.2727C194.227 56.8485 195.144 57.6364 195.841 58.6364C196.538 59.6288 196.97 60.75 197.136 62H192.989C192.777 61.1061 192.341 60.3939 191.682 59.8636C191.03 59.3258 190.205 59.0568 189.205 59.0568C187.591 59.0568 186.348 59.7576 185.477 61.1591C184.614 62.5606 184.178 64.4848 184.17 66.9318H184.33C184.701 66.2652 185.182 65.6932 185.773 65.2159C186.364 64.7386 187.03 64.3712 187.773 64.1136C188.523 63.8485 189.314 63.7159 190.148 63.7159C191.511 63.7159 192.735 64.0417 193.818 64.6932C194.909 65.3447 195.773 66.2424 196.409 67.3864C197.045 68.5227 197.36 69.8258 197.352 71.2955C197.36 72.8258 197.011 74.2008 196.307 75.4205C195.602 76.6326 194.621 77.5871 193.364 78.2841C192.106 78.9811 190.64 79.3258 188.966 79.3182ZM188.943 75.9091C189.769 75.9091 190.508 75.7083 191.159 75.3068C191.811 74.9053 192.326 74.3636 192.705 73.6818C193.083 73 193.269 72.2348 193.261 71.3864C193.269 70.553 193.087 69.7992 192.716 69.125C192.352 68.4508 191.848 67.9167 191.205 67.5227C190.561 67.1288 189.826 66.9318 189 66.9318C188.386 66.9318 187.814 67.0492 187.284 67.2841C186.754 67.5189 186.292 67.8447 185.898 68.2614C185.504 68.6705 185.193 69.1477 184.966 69.6932C184.746 70.2311 184.633 70.8068 184.625 71.4205C184.633 72.2311 184.822 72.9773 185.193 73.6591C185.564 74.3409 186.076 74.8864 186.727 75.2955C187.379 75.7045 188.117 75.9091 188.943 75.9091Z" fill="#343A40"/>
<path fill-rule="evenodd" clip-rule="evenodd" d="M21.8333 129.667C19.5321 129.667 17.6667 131.532 17.6667 133.833V142.167C17.6667 144.468 19.5321 146.333 21.8333 146.333H30.1667C32.4678 146.333 34.3333 144.468 34.3333 142.167V133.833C34.3333 131.532 32.4678 129.667 30.1667 129.667H21.8333ZM27.1208 134.222C26.6622 133.293 25.3374 133.293 24.8789 134.222L24.2219 135.553L22.7528 135.766C21.7275 135.915 21.3181 137.175 22.06 137.899L23.1231 138.935L22.8721 140.398C22.697 141.419 23.7688 142.198 24.6858 141.716L25.9998 141.025L27.3139 141.716C28.2309 142.198 29.3027 141.419 29.1276 140.398L28.8766 138.935L29.9397 137.899C30.6816 137.175 30.2722 135.915 29.2469 135.766L27.7778 135.553L27.1208 134.222Z" fill="#5A3695"/>
<path d="M43.3345 142.138C42.7498 142.138 42.2479 141.991 41.8288 141.695C41.4122 141.396 41.0914 140.967 40.8665 140.406C40.6439 139.842 40.5327 139.164 40.5327 138.371C40.535 137.578 40.6475 136.903 40.87 136.347C41.0949 135.788 41.4157 135.362 41.8324 135.068C42.2514 134.775 42.7521 134.628 43.3345 134.628C43.9169 134.628 44.4176 134.775 44.8366 135.068C45.2557 135.362 45.5765 135.788 45.799 136.347C46.0239 136.905 46.1364 137.58 46.1364 138.371C46.1364 139.166 46.0239 139.846 45.799 140.409C45.5765 140.97 45.2557 141.399 44.8366 141.695C44.42 141.991 43.9193 142.138 43.3345 142.138ZM43.3345 141.027C43.7891 141.027 44.1477 140.803 44.4105 140.356C44.6757 139.906 44.8082 139.244 44.8082 138.371C44.8082 137.793 44.7479 137.308 44.6271 136.915C44.5064 136.522 44.3359 136.226 44.1158 136.027C43.8956 135.826 43.6352 135.725 43.3345 135.725C42.8823 135.725 42.5249 135.95 42.2621 136.4C41.9993 136.847 41.8667 137.504 41.8643 138.371C41.862 138.951 41.92 139.438 42.0384 139.834C42.1591 140.229 42.3295 140.527 42.5497 140.729C42.7699 140.928 43.0315 141.027 43.3345 141.027ZM52.7797 134.386L50.4359 143.094H49.3102L51.6539 134.386H52.7797ZM58.7296 142.099C58.3816 142.097 58.0418 142.037 57.7104 141.918C57.379 141.798 57.0807 141.602 56.8155 141.332C56.5504 141.06 56.3397 140.699 56.1834 140.249C56.0272 139.797 55.9502 139.237 55.9526 138.57C55.9526 137.947 56.0189 137.392 56.1515 136.904C56.284 136.416 56.4746 136.004 56.7232 135.668C56.9718 135.33 57.2712 135.072 57.6216 134.894C57.9744 134.717 58.3685 134.628 58.8042 134.628C59.2611 134.628 59.6659 134.718 60.0186 134.898C60.3738 135.078 60.6602 135.324 60.878 135.636C61.0958 135.946 61.2308 136.297 61.2828 136.688H59.9867C59.9204 136.408 59.7843 136.186 59.5783 136.02C59.3747 135.852 59.1167 135.768 58.8042 135.768C58.2999 135.768 57.9116 135.987 57.6394 136.425C57.3695 136.863 57.2334 137.464 57.231 138.229H57.2807C57.3967 138.02 57.5471 137.842 57.7317 137.692C57.9164 137.543 58.1247 137.429 58.3567 137.348C58.5911 137.265 58.8385 137.224 59.0989 137.224C59.525 137.224 59.9074 137.326 60.2459 137.529C60.5868 137.733 60.8567 138.013 61.0556 138.371C61.2544 138.726 61.3527 139.133 61.3503 139.592C61.3527 140.071 61.2438 140.5 61.0236 140.881C60.8034 141.26 60.4969 141.558 60.1039 141.776C59.7109 141.994 59.2528 142.102 58.7296 142.099ZM58.7225 141.034C58.9805 141.034 59.2114 140.971 59.415 140.846C59.6185 140.72 59.7795 140.551 59.8979 140.338C60.0163 140.125 60.0743 139.886 60.0719 139.621C60.0743 139.36 60.0175 139.125 59.9015 138.914C59.7878 138.703 59.6304 138.536 59.4292 138.413C59.2279 138.29 58.9983 138.229 58.7402 138.229C58.5485 138.229 58.3697 138.265 58.204 138.339C58.0383 138.412 57.8939 138.514 57.7708 138.644C57.6477 138.772 57.5506 138.921 57.4796 139.092C57.4109 139.26 57.3754 139.44 57.373 139.631C57.3754 139.885 57.4346 140.118 57.5506 140.331C57.6666 140.544 57.8264 140.714 58.03 140.842C58.2336 140.97 58.4644 141.034 58.7225 141.034ZM65.079 142.099C64.6055 142.099 64.1818 142.011 63.8077 141.833C63.4337 141.653 63.1365 141.407 62.9164 141.094C62.6986 140.782 62.5826 140.424 62.5684 140.022H63.8468C63.8704 140.32 63.9995 140.564 64.2338 140.754C64.4682 140.941 64.7499 141.034 65.079 141.034C65.3371 141.034 65.5667 140.975 65.7679 140.857C65.9692 140.738 66.1278 140.574 66.2438 140.363C66.3598 140.152 66.4166 139.912 66.4142 139.642C66.4166 139.367 66.3586 139.124 66.2402 138.911C66.1219 138.697 65.9597 138.531 65.7537 138.41C65.5478 138.287 65.311 138.225 65.0435 138.225C64.8257 138.223 64.6114 138.263 64.4007 138.346C64.19 138.429 64.0231 138.538 63.9 138.673L62.7104 138.477L63.0904 134.727H67.3091V135.828H64.1806L63.9711 137.756H64.0137C64.1486 137.598 64.3392 137.466 64.5854 137.362C64.8316 137.256 65.1015 137.202 65.3951 137.202C65.8354 137.202 66.2284 137.307 66.574 137.515C66.9197 137.721 67.1919 138.005 67.3908 138.367C67.5897 138.729 67.6891 139.144 67.6891 139.61C67.6891 140.091 67.5778 140.519 67.3553 140.896C67.1351 141.27 66.8285 141.564 66.4355 141.78C66.0449 141.993 65.5927 142.099 65.079 142.099Z" fill="black" fill-opacity="0.45"/>
<rect x="308" y="116" width="44" height="44" rx="15" fill="#5A3695"/>
<path fill-rule="evenodd" clip-rule="evenodd" d="M331.293 130.293C331.683 129.902 332.317 129.902 332.707 130.293L339.707 137.293C340.098 137.683 340.098 138.317 339.707 138.707L332.707 145.707C332.317 146.098 331.683 146.098 331.293 145.707C330.902 145.317 330.902 144.683 331.293 144.293L336.586 139H321C320.448 139 320 138.552 320 138C320 137.448 320.448 137 321 137H336.586L331.293 131.707C330.902 131.317 330.902 130.683 331.293 130.293Z" fill="#C6B4E4"/>
</svg>
