<svg width="368" height="176" viewBox="0 0 368 176" fill="none" xmlns="http://www.w3.org/2000/svg">
<rect width="368" height="176" rx="32" fill="#E6B4B2"/>
<path d="M19.402 42L20.5952 34.7273H21.5895L20.3963 42H19.402ZM16.1243 40.125L16.2912 39.1307H21.8878L21.7209 40.125H16.1243ZM16.8452 42L18.0384 34.7273H19.0327L17.8395 42H16.8452ZM16.5469 37.5966L16.7102 36.6023H22.3068L22.1435 37.5966H16.5469ZM23.1529 42V34.7273H24.4384V37.4474H24.4917C24.5579 37.3149 24.6515 37.174 24.7722 37.0249C24.8929 36.8733 25.0563 36.7443 25.2623 36.6378C25.4682 36.5289 25.731 36.4744 26.0506 36.4744C26.472 36.4744 26.852 36.5821 27.1905 36.7976C27.5314 37.0107 27.8013 37.3267 28.0002 37.7457C28.2014 38.1624 28.302 38.6738 28.302 39.2798C28.302 39.8788 28.2038 40.3878 28.0073 40.8068C27.8108 41.2259 27.5433 41.5455 27.2047 41.7656C26.8662 41.9858 26.4827 42.0959 26.0542 42.0959C25.7417 42.0959 25.4824 42.0438 25.2765 41.9396C25.0705 41.8355 24.9048 41.71 24.7793 41.5632C24.6562 41.4141 24.5603 41.2732 24.4917 41.1406H24.4171V42H23.1529ZM24.4135 39.2727C24.4135 39.6255 24.4632 39.9344 24.5627 40.1996C24.6645 40.4647 24.8101 40.6719 24.9995 40.821C25.1912 40.9678 25.4232 41.0412 25.6955 41.0412C25.9796 41.0412 26.2175 40.9654 26.4093 40.8139C26.601 40.66 26.7454 40.4505 26.8425 40.1854C26.9419 39.9179 26.9917 39.6136 26.9917 39.2727C26.9917 38.9342 26.9431 38.6335 26.8461 38.3707C26.749 38.108 26.6046 37.902 26.4128 37.7528C26.2211 37.6037 25.9819 37.5291 25.6955 37.5291C25.4209 37.5291 25.1877 37.6013 24.9959 37.7457C24.8042 37.8902 24.6586 38.0926 24.5591 38.353C24.4621 38.6134 24.4135 38.92 24.4135 39.2727ZM29.3949 42V36.5455H30.6804V42H29.3949ZM30.0412 35.7713C29.8376 35.7713 29.6624 35.7038 29.5156 35.5689C29.3688 35.4316 29.2955 35.267 29.2955 35.0753C29.2955 34.8812 29.3688 34.7166 29.5156 34.5817C29.6624 34.4444 29.8376 34.3757 30.0412 34.3757C30.2472 34.3757 30.4223 34.4444 30.5668 34.5817C30.7135 34.7166 30.7869 34.8812 30.7869 35.0753C30.7869 35.267 30.7135 35.4316 30.5668 35.5689C30.4223 35.7038 30.2472 35.7713 30.0412 35.7713ZM34.3816 42.1065C33.8489 42.1065 33.3873 41.9893 32.9966 41.755C32.606 41.5206 32.303 41.1927 32.0875 40.7713C31.8745 40.3499 31.7679 39.8575 31.7679 39.294C31.7679 38.7306 31.8745 38.237 32.0875 37.8132C32.303 37.3894 32.606 37.0604 32.9966 36.826C33.3873 36.5916 33.8489 36.4744 34.3816 36.4744C34.9142 36.4744 35.3759 36.5916 35.7665 36.826C36.1571 37.0604 36.459 37.3894 36.6721 37.8132C36.8875 38.237 36.9952 38.7306 36.9952 39.294C36.9952 39.8575 36.8875 40.3499 36.6721 40.7713C36.459 41.1927 36.1571 41.5206 35.7665 41.755C35.3759 41.9893 34.9142 42.1065 34.3816 42.1065ZM34.3887 41.0767C34.6775 41.0767 34.919 40.9974 35.1131 40.8388C35.3072 40.6778 35.4516 40.4624 35.5463 40.1925C35.6434 39.9226 35.6919 39.6219 35.6919 39.2905C35.6919 38.9567 35.6434 38.6548 35.5463 38.3849C35.4516 38.1127 35.3072 37.8961 35.1131 37.7351C34.919 37.5741 34.6775 37.4936 34.3887 37.4936C34.0927 37.4936 33.8465 37.5741 33.65 37.7351C33.4559 37.8961 33.3103 38.1127 33.2132 38.3849C33.1185 38.6548 33.0712 38.9567 33.0712 39.2905C33.0712 39.6219 33.1185 39.9226 33.2132 40.1925C33.3103 40.4624 33.4559 40.6778 33.65 40.8388C33.8465 40.9974 34.0927 41.0767 34.3887 41.0767ZM40.5011 42.1065C39.9542 42.1065 39.4819 41.9929 39.0842 41.7656C38.6888 41.536 38.3846 41.2116 38.1715 40.7926C37.9585 40.3712 37.8519 39.8752 37.8519 39.3047C37.8519 38.7436 37.9585 38.2512 38.1715 37.8274C38.387 37.4013 38.6876 37.0698 39.0735 36.8331C39.4594 36.594 39.9128 36.4744 40.4336 36.4744C40.7698 36.4744 41.087 36.5289 41.3853 36.6378C41.686 36.7443 41.9511 36.91 42.1808 37.1349C42.4128 37.3598 42.5951 37.6463 42.7276 37.9943C42.8602 38.34 42.9265 38.7519 42.9265 39.2301V39.6243H38.4556V38.7578H41.6942C41.6919 38.5116 41.6386 38.2926 41.5344 38.1009C41.4303 37.9067 41.2847 37.754 41.0977 37.6428C40.913 37.5315 40.6976 37.4759 40.4513 37.4759C40.1886 37.4759 39.9577 37.5398 39.7589 37.6676C39.56 37.7931 39.4049 37.9588 39.2937 38.1648C39.1848 38.3684 39.1291 38.5921 39.1268 38.8359V39.5923C39.1268 39.9096 39.1848 40.1818 39.3008 40.4091C39.4168 40.634 39.579 40.8068 39.7873 40.9276C39.9956 41.0459 40.2395 41.1051 40.5188 41.1051C40.7058 41.1051 40.8751 41.0791 41.0266 41.027C41.1781 40.9725 41.3095 40.8932 41.4208 40.7891C41.5321 40.6849 41.6161 40.5559 41.6729 40.402L42.8732 40.5369C42.7975 40.8542 42.6531 41.1312 42.44 41.3679C42.2293 41.6023 41.9594 41.7846 41.6303 41.9148C41.3013 42.0426 40.9248 42.1065 40.5011 42.1065ZM45.2995 38.804V42H44.014V36.5455H45.2427V37.4723H45.3066C45.4321 37.1669 45.6322 36.9242 45.9068 36.7443C46.1838 36.5644 46.5259 36.4744 46.9331 36.4744C47.3095 36.4744 47.6374 36.5549 47.9167 36.7159C48.1984 36.8769 48.4163 37.1101 48.5701 37.4155C48.7264 37.7209 48.8033 38.0914 48.801 38.527V42H47.5154V38.7259C47.5154 38.3613 47.4208 38.076 47.2314 37.87C47.0443 37.6641 46.7851 37.5611 46.4537 37.5611C46.2288 37.5611 46.0287 37.6108 45.8535 37.7102C45.6807 37.8073 45.5446 37.9482 45.4451 38.1328C45.3481 38.3175 45.2995 38.5412 45.2995 38.804ZM52.4799 44.1591C52.0183 44.1591 51.6217 44.0964 51.2903 43.9709C50.9589 43.8478 50.6925 43.6821 50.4913 43.4737C50.2901 43.2654 50.1504 43.0346 50.0723 42.7812L51.2299 42.5007C51.282 42.6072 51.3578 42.7126 51.4572 42.8168C51.5566 42.9233 51.6904 43.0109 51.8585 43.0795C52.0289 43.1506 52.2432 43.1861 52.5012 43.1861C52.8658 43.1861 53.1677 43.0973 53.4068 42.9197C53.6459 42.7446 53.7654 42.4557 53.7654 42.0533V41.0199H53.7015C53.6352 41.1525 53.5382 41.2886 53.4103 41.4283C53.2849 41.5679 53.118 41.6851 52.9096 41.7798C52.7037 41.8745 52.4444 41.9219 52.1319 41.9219C51.7129 41.9219 51.3329 41.8236 50.992 41.6271C50.6535 41.4283 50.3836 41.1323 50.1824 40.7393C49.9835 40.344 49.8841 39.8492 49.8841 39.255C49.8841 38.656 49.9835 38.1506 50.1824 37.7386C50.3836 37.3243 50.6547 37.0107 50.9956 36.7976C51.3365 36.5821 51.7164 36.4744 52.1355 36.4744C52.4551 36.4744 52.7179 36.5289 52.9238 36.6378C53.1322 36.7443 53.2979 36.8733 53.421 37.0249C53.5441 37.174 53.6376 37.3149 53.7015 37.4474H53.7725V36.5455H55.0403V42.0888C55.0403 42.5552 54.929 42.9411 54.7065 43.2464C54.484 43.5518 54.1797 43.7803 53.7939 43.9318C53.408 44.0833 52.97 44.1591 52.4799 44.1591ZM52.4906 40.9134C52.7628 40.9134 52.9949 40.8471 53.1866 40.7145C53.3784 40.5819 53.524 40.3913 53.6234 40.1428C53.7228 39.8942 53.7725 39.5959 53.7725 39.2479C53.7725 38.9046 53.7228 38.6039 53.6234 38.3459C53.5263 38.0878 53.3819 37.8878 53.1902 37.7457C53.0008 37.6013 52.7676 37.5291 52.4906 37.5291C52.2041 37.5291 51.965 37.6037 51.7733 37.7528C51.5815 37.902 51.4371 38.1068 51.34 38.3672C51.243 38.6252 51.1944 38.9188 51.1944 39.2479C51.1944 39.5817 51.243 39.8741 51.34 40.125C51.4395 40.3736 51.585 40.5677 51.7768 40.7074C51.9709 40.8447 52.2089 40.9134 52.4906 40.9134Z" fill="black" fill-opacity="0.45"/>
<path d="M17.2727 59.2614V55.7273H35.8409V59.2614H28.6477V79H24.4659V59.2614H17.2727ZM44.4347 79.3409C42.6847 79.3409 41.1733 78.9773 39.9006 78.25C38.6354 77.5152 37.6619 76.4773 36.9801 75.1364C36.2983 73.7879 35.9574 72.2008 35.9574 70.375C35.9574 68.5795 36.2983 67.0038 36.9801 65.6477C37.6695 64.2841 38.6316 63.2235 39.8665 62.4659C41.1013 61.7008 42.5521 61.3182 44.2188 61.3182C45.2945 61.3182 46.3097 61.4924 47.2642 61.8409C48.2263 62.1818 49.0748 62.7121 49.8097 63.4318C50.5521 64.1515 51.1354 65.0682 51.5597 66.1818C51.9839 67.2879 52.196 68.6061 52.196 70.1364V71.3977H37.8892V68.625H48.2528C48.2453 67.8371 48.0748 67.1364 47.7415 66.5227C47.4081 65.9015 46.9422 65.4129 46.3438 65.0568C45.7528 64.7008 45.0634 64.5227 44.2756 64.5227C43.4347 64.5227 42.696 64.7273 42.0597 65.1364C41.4233 65.5379 40.9271 66.0682 40.571 66.7273C40.2225 67.3788 40.0445 68.0947 40.0369 68.875V71.2955C40.0369 72.3106 40.2225 73.1818 40.5938 73.9091C40.965 74.6288 41.4839 75.1818 42.1506 75.5682C42.8172 75.947 43.5975 76.1364 44.4915 76.1364C45.09 76.1364 45.6316 76.053 46.1165 75.8864C46.6013 75.7121 47.0218 75.4583 47.3778 75.125C47.7339 74.7917 48.0028 74.3788 48.1847 73.8864L52.0256 74.3182C51.7831 75.3333 51.321 76.2197 50.6392 76.9773C49.965 77.7273 49.1013 78.3106 48.0483 78.7273C46.9953 79.1364 45.7907 79.3409 44.4347 79.3409ZM55.6761 79V61.5455H59.6648V64.4545H59.8466C60.1648 63.447 60.7102 62.6705 61.483 62.125C62.2633 61.572 63.1534 61.2955 64.1534 61.2955C64.3807 61.2955 64.6345 61.3068 64.9148 61.3295C65.2027 61.3447 65.4413 61.3712 65.6307 61.4091V65.1932C65.4564 65.1326 65.1799 65.0795 64.8011 65.0341C64.4299 64.9811 64.0701 64.9545 63.7216 64.9545C62.9716 64.9545 62.2973 65.1174 61.6989 65.4432C61.108 65.7614 60.642 66.2045 60.3011 66.7727C59.9602 67.3409 59.7898 67.9962 59.7898 68.7386V79H55.6761ZM68.3636 79V61.5455H72.2955V64.5114H72.5C72.8636 63.5114 73.4659 62.7311 74.3068 62.1705C75.1477 61.6023 76.1515 61.3182 77.3182 61.3182C78.5 61.3182 79.4962 61.6061 80.3068 62.1818C81.125 62.75 81.7008 63.5265 82.0341 64.5114H82.2159C82.6023 63.5417 83.2538 62.7689 84.1705 62.1932C85.0947 61.6098 86.1894 61.3182 87.4545 61.3182C89.0606 61.3182 90.3712 61.8258 91.3864 62.8409C92.4015 63.8561 92.9091 65.3371 92.9091 67.2841V79H88.7841V67.9205C88.7841 66.8371 88.4962 66.0455 87.9205 65.5455C87.3447 65.0379 86.6402 64.7841 85.8068 64.7841C84.8144 64.7841 84.0379 65.0947 83.4773 65.7159C82.9242 66.3295 82.6477 67.1288 82.6477 68.1136V79H78.6136V67.75C78.6136 66.8485 78.3409 66.1288 77.7955 65.5909C77.2576 65.053 76.553 64.7841 75.6818 64.7841C75.0909 64.7841 74.553 64.9356 74.0682 65.2386C73.5833 65.5341 73.197 65.9545 72.9091 66.5C72.6212 67.0379 72.4773 67.6667 72.4773 68.3864V79H68.3636ZM104.696 79.3409C102.991 79.3409 101.514 78.9659 100.264 78.2159C99.0142 77.4659 98.0445 76.4167 97.3551 75.0682C96.6733 73.7197 96.3324 72.1439 96.3324 70.3409C96.3324 68.5379 96.6733 66.9583 97.3551 65.6023C98.0445 64.2462 99.0142 63.1932 100.264 62.4432C101.514 61.6932 102.991 61.3182 104.696 61.3182C106.401 61.3182 107.878 61.6932 109.128 62.4432C110.378 63.1932 111.344 64.2462 112.026 65.6023C112.715 66.9583 113.06 68.5379 113.06 70.3409C113.06 72.1439 112.715 73.7197 112.026 75.0682C111.344 76.4167 110.378 77.4659 109.128 78.2159C107.878 78.9659 106.401 79.3409 104.696 79.3409ZM104.719 76.0455C105.643 76.0455 106.416 75.7917 107.037 75.2841C107.658 74.7689 108.12 74.0795 108.423 73.2159C108.734 72.3523 108.889 71.3902 108.889 70.3295C108.889 69.2614 108.734 68.2955 108.423 67.4318C108.12 66.5606 107.658 65.8674 107.037 65.3523C106.416 64.8371 105.643 64.5795 104.719 64.5795C103.772 64.5795 102.984 64.8371 102.355 65.3523C101.734 65.8674 101.268 66.5606 100.957 67.4318C100.654 68.2955 100.503 69.2614 100.503 70.3295C100.503 71.3902 100.654 72.3523 100.957 73.2159C101.268 74.0795 101.734 74.7689 102.355 75.2841C102.984 75.7917 103.772 76.0455 104.719 76.0455ZM123.028 79.3068C121.657 79.3068 120.43 78.9545 119.347 78.25C118.263 77.5455 117.407 76.5227 116.778 75.1818C116.15 73.8409 115.835 72.2121 115.835 70.2955C115.835 68.3561 116.153 66.7197 116.79 65.3864C117.434 64.0455 118.301 63.0341 119.392 62.3523C120.483 61.6629 121.699 61.3182 123.04 61.3182C124.063 61.3182 124.903 61.4924 125.562 61.8409C126.222 62.1818 126.744 62.5947 127.131 63.0795C127.517 63.5568 127.816 64.0076 128.028 64.4318H128.199V55.7273H132.324V79H128.278V76.25H128.028C127.816 76.6742 127.509 77.125 127.108 77.6023C126.706 78.072 126.176 78.4735 125.517 78.8068C124.858 79.1402 124.028 79.3068 123.028 79.3068ZM124.176 75.9318C125.047 75.9318 125.79 75.697 126.403 75.2273C127.017 74.75 127.483 74.0871 127.801 73.2386C128.119 72.3902 128.278 71.4015 128.278 70.2727C128.278 69.1439 128.119 68.1629 127.801 67.3295C127.491 66.4962 127.028 65.8485 126.415 65.3864C125.809 64.9242 125.063 64.6932 124.176 64.6932C123.259 64.6932 122.494 64.9318 121.881 65.4091C121.267 65.8864 120.805 66.5455 120.494 67.3864C120.184 68.2273 120.028 69.1894 120.028 70.2727C120.028 71.3636 120.184 72.3371 120.494 73.1932C120.813 74.0417 121.278 74.7121 121.892 75.2045C122.513 75.6894 123.275 75.9318 124.176 75.9318ZM136.707 79V61.5455H140.821V79H136.707ZM138.776 59.0682C138.124 59.0682 137.563 58.8523 137.094 58.4205C136.624 57.9811 136.389 57.4545 136.389 56.8409C136.389 56.2197 136.624 55.6932 137.094 55.2614C137.563 54.822 138.124 54.6023 138.776 54.6023C139.435 54.6023 139.995 54.822 140.457 55.2614C140.927 55.6932 141.162 56.2197 141.162 56.8409C141.162 57.4545 140.927 57.9811 140.457 58.4205C139.995 58.8523 139.435 59.0682 138.776 59.0682ZM149.165 68.7727V79H145.051V61.5455H148.983V64.5114H149.188C149.589 63.5341 150.229 62.7576 151.108 62.1818C151.994 61.6061 153.089 61.3182 154.392 61.3182C155.597 61.3182 156.646 61.5758 157.54 62.0909C158.441 62.6061 159.138 63.3523 159.631 64.3295C160.131 65.3068 160.377 66.4924 160.369 67.8864V79H156.256V68.5227C156.256 67.3561 155.953 66.4432 155.347 65.7841C154.748 65.125 153.919 64.7955 152.858 64.7955C152.138 64.7955 151.498 64.9545 150.938 65.2727C150.384 65.5833 149.949 66.0341 149.631 66.625C149.32 67.2159 149.165 67.9318 149.165 68.7727ZM169.574 79.3523C168.468 79.3523 167.472 79.1553 166.585 78.7614C165.706 78.3598 165.009 77.7689 164.494 76.9886C163.987 76.2083 163.733 75.2462 163.733 74.1023C163.733 73.1174 163.915 72.303 164.278 71.6591C164.642 71.0152 165.138 70.5 165.767 70.1136C166.396 69.7273 167.104 69.4356 167.892 69.2386C168.688 69.0341 169.509 68.8864 170.358 68.7955C171.381 68.6894 172.21 68.5947 172.847 68.5114C173.483 68.4205 173.945 68.2841 174.233 68.1023C174.528 67.9129 174.676 67.6212 174.676 67.2273V67.1591C174.676 66.303 174.422 65.6402 173.915 65.1705C173.407 64.7008 172.676 64.4659 171.722 64.4659C170.714 64.4659 169.915 64.6856 169.324 65.125C168.741 65.5644 168.347 66.0833 168.142 66.6818L164.301 66.1364C164.604 65.0758 165.104 64.1894 165.801 63.4773C166.498 62.7576 167.35 62.2197 168.358 61.8636C169.366 61.5 170.479 61.3182 171.699 61.3182C172.54 61.3182 173.377 61.4167 174.21 61.6136C175.044 61.8106 175.805 62.1364 176.494 62.5909C177.184 63.0379 177.737 63.6477 178.153 64.4205C178.578 65.1932 178.79 66.1591 178.79 67.3182V79H174.835V76.6023H174.699C174.449 77.0871 174.097 77.5417 173.642 77.9659C173.195 78.3826 172.631 78.7197 171.949 78.9773C171.275 79.2273 170.483 79.3523 169.574 79.3523ZM170.642 76.3295C171.468 76.3295 172.184 76.1667 172.79 75.8409C173.396 75.5076 173.862 75.0682 174.188 74.5227C174.521 73.9773 174.688 73.3826 174.688 72.7386V70.6818C174.559 70.7879 174.339 70.8864 174.028 70.9773C173.725 71.0682 173.384 71.1477 173.006 71.2159C172.627 71.2841 172.252 71.3447 171.881 71.3977C171.509 71.4508 171.188 71.4962 170.915 71.5341C170.301 71.6174 169.752 71.7538 169.267 71.9432C168.782 72.1326 168.4 72.3977 168.119 72.7386C167.839 73.072 167.699 73.5038 167.699 74.0341C167.699 74.7917 167.975 75.3636 168.528 75.75C169.081 76.1364 169.786 76.3295 170.642 76.3295ZM174.188 59.4545L171.881 56.5455L169.574 59.4545H165.972V59.2955L170.278 54.3864H173.494L177.79 59.2955V59.4545H174.188ZM182.926 79V61.5455H186.858V64.5114H187.062C187.426 63.5114 188.028 62.7311 188.869 62.1705C189.71 61.6023 190.714 61.3182 191.881 61.3182C193.062 61.3182 194.059 61.6061 194.869 62.1818C195.688 62.75 196.263 63.5265 196.597 64.5114H196.778C197.165 63.5417 197.816 62.7689 198.733 62.1932C199.657 61.6098 200.752 61.3182 202.017 61.3182C203.623 61.3182 204.934 61.8258 205.949 62.8409C206.964 63.8561 207.472 65.3371 207.472 67.2841V79H203.347V67.9205C203.347 66.8371 203.059 66.0455 202.483 65.5455C201.907 65.0379 201.203 64.7841 200.369 64.7841C199.377 64.7841 198.6 65.0947 198.04 65.7159C197.487 66.3295 197.21 67.1288 197.21 68.1136V79H193.176V67.75C193.176 66.8485 192.903 66.1288 192.358 65.5909C191.82 65.053 191.116 64.7841 190.244 64.7841C189.653 64.7841 189.116 64.9356 188.631 65.2386C188.146 65.5341 187.759 65.9545 187.472 66.5C187.184 67.0379 187.04 67.6667 187.04 68.3864V79H182.926ZM211.645 79V61.5455H215.759V79H211.645ZM213.713 59.0682C213.062 59.0682 212.501 58.8523 212.031 58.4205C211.562 57.9811 211.327 57.4545 211.327 56.8409C211.327 56.2197 211.562 55.6932 212.031 55.2614C212.501 54.822 213.062 54.6023 213.713 54.6023C214.372 54.6023 214.933 54.822 215.395 55.2614C215.865 55.6932 216.099 56.2197 216.099 56.8409C216.099 57.4545 215.865 57.9811 215.395 58.4205C214.933 58.8523 214.372 59.0682 213.713 59.0682ZM227.602 79.3409C225.86 79.3409 224.364 78.9583 223.114 78.1932C221.871 77.428 220.913 76.3712 220.239 75.0227C219.572 73.6667 219.239 72.1061 219.239 70.3409C219.239 68.5682 219.58 67.0038 220.261 65.6477C220.943 64.2841 221.905 63.2235 223.148 62.4659C224.398 61.7008 225.875 61.3182 227.58 61.3182C228.996 61.3182 230.25 61.5795 231.341 62.1023C232.439 62.6174 233.314 63.3485 233.966 64.2955C234.617 65.2348 234.989 66.3333 235.08 67.5909H231.148C230.989 66.75 230.61 66.0492 230.011 65.4886C229.42 64.9205 228.629 64.6364 227.636 64.6364C226.795 64.6364 226.057 64.8636 225.42 65.3182C224.784 65.7652 224.288 66.4091 223.932 67.25C223.583 68.0909 223.409 69.0985 223.409 70.2727C223.409 71.4621 223.583 72.4848 223.932 73.3409C224.28 74.1894 224.769 74.8447 225.398 75.3068C226.034 75.7614 226.78 75.9886 227.636 75.9886C228.242 75.9886 228.784 75.875 229.261 75.6477C229.746 75.4129 230.152 75.0758 230.477 74.6364C230.803 74.197 231.027 73.6629 231.148 73.0341H235.08C234.981 74.2689 234.617 75.3636 233.989 76.3182C233.36 77.2652 232.504 78.0076 231.42 78.5455C230.337 79.0758 229.064 79.3409 227.602 79.3409ZM243.48 79.3523C242.374 79.3523 241.378 79.1553 240.491 78.7614C239.613 78.3598 238.916 77.7689 238.401 76.9886C237.893 76.2083 237.639 75.2462 237.639 74.1023C237.639 73.1174 237.821 72.303 238.185 71.6591C238.548 71.0152 239.045 70.5 239.673 70.1136C240.302 69.7273 241.01 69.4356 241.798 69.2386C242.594 69.0341 243.416 68.8864 244.264 68.7955C245.287 68.6894 246.116 68.5947 246.753 68.5114C247.389 68.4205 247.851 68.2841 248.139 68.1023C248.435 67.9129 248.582 67.6212 248.582 67.2273V67.1591C248.582 66.303 248.329 65.6402 247.821 65.1705C247.313 64.7008 246.582 64.4659 245.628 64.4659C244.62 64.4659 243.821 64.6856 243.23 65.125C242.647 65.5644 242.253 66.0833 242.048 66.6818L238.207 66.1364C238.51 65.0758 239.01 64.1894 239.707 63.4773C240.404 62.7576 241.257 62.2197 242.264 61.8636C243.272 61.5 244.385 61.3182 245.605 61.3182C246.446 61.3182 247.283 61.4167 248.116 61.6136C248.95 61.8106 249.711 62.1364 250.401 62.5909C251.09 63.0379 251.643 63.6477 252.06 64.4205C252.484 65.1932 252.696 66.1591 252.696 67.3182V79H248.741V76.6023H248.605C248.355 77.0871 248.003 77.5417 247.548 77.9659C247.101 78.3826 246.537 78.7197 245.855 78.9773C245.181 79.2273 244.389 79.3523 243.48 79.3523ZM244.548 76.3295C245.374 76.3295 246.09 76.1667 246.696 75.8409C247.302 75.5076 247.768 75.0682 248.094 74.5227C248.427 73.9773 248.594 73.3826 248.594 72.7386V70.6818C248.465 70.7879 248.245 70.8864 247.935 70.9773C247.632 71.0682 247.291 71.1477 246.912 71.2159C246.533 71.2841 246.158 71.3447 245.787 71.3977C245.416 71.4508 245.094 71.4962 244.821 71.5341C244.207 71.6174 243.658 71.7538 243.173 71.9432C242.688 72.1326 242.306 72.3977 242.026 72.7386C241.745 73.072 241.605 73.5038 241.605 74.0341C241.605 74.7917 241.882 75.3636 242.435 75.75C242.988 76.1364 243.692 76.3295 244.548 76.3295Z" fill="#343A40"/>
<path fill-rule="evenodd" clip-rule="evenodd" d="M21.8333 129.667C19.5321 129.667 17.6667 131.532 17.6667 133.833V142.167C17.6667 144.468 19.5321 146.333 21.8333 146.333H30.1667C32.4678 146.333 34.3333 144.468 34.3333 142.167V133.833C34.3333 131.532 32.4678 129.667 30.1667 129.667H21.8333ZM27.1208 134.222C26.6622 133.293 25.3374 133.293 24.8789 134.222L24.2219 135.553L22.7528 135.766C21.7275 135.915 21.3181 137.175 22.06 137.899L23.1231 138.935L22.8721 140.398C22.697 141.419 23.7688 142.198 24.6858 141.716L25.9998 141.025L27.3139 141.716C28.2309 142.198 29.3027 141.419 29.1276 140.398L28.8766 138.935L29.9397 137.899C30.6816 137.175 30.2722 135.915 29.2469 135.766L27.7778 135.553L27.1208 134.222Z" fill="#9A3732"/>
<path d="M43.3345 142.138C42.7498 142.138 42.2479 141.991 41.8288 141.695C41.4122 141.396 41.0914 140.967 40.8665 140.406C40.6439 139.842 40.5327 139.164 40.5327 138.371C40.535 137.578 40.6475 136.903 40.87 136.347C41.0949 135.788 41.4157 135.362 41.8324 135.068C42.2514 134.775 42.7521 134.628 43.3345 134.628C43.9169 134.628 44.4176 134.775 44.8366 135.068C45.2557 135.362 45.5765 135.788 45.799 136.347C46.0239 136.905 46.1364 137.58 46.1364 138.371C46.1364 139.166 46.0239 139.846 45.799 140.409C45.5765 140.97 45.2557 141.399 44.8366 141.695C44.42 141.991 43.9193 142.138 43.3345 142.138ZM43.3345 141.027C43.7891 141.027 44.1477 140.803 44.4105 140.356C44.6757 139.906 44.8082 139.244 44.8082 138.371C44.8082 137.793 44.7479 137.308 44.6271 136.915C44.5064 136.522 44.3359 136.226 44.1158 136.027C43.8956 135.826 43.6352 135.725 43.3345 135.725C42.8823 135.725 42.5249 135.95 42.2621 136.4C41.9993 136.847 41.8667 137.504 41.8643 138.371C41.862 138.951 41.92 139.438 42.0384 139.834C42.1591 140.229 42.3295 140.527 42.5497 140.729C42.7699 140.928 43.0315 141.027 43.3345 141.027ZM52.7797 134.386L50.4359 143.094H49.3102L51.6539 134.386H52.7797ZM56.3326 142L59.4256 135.878V135.828H55.8354V134.727H60.7892V135.853L57.6998 142H56.3326ZM64.4425 142.099C64.0945 142.097 63.7547 142.037 63.4233 141.918C63.0919 141.798 62.7936 141.602 62.5284 141.332C62.2633 141.06 62.0526 140.699 61.8963 140.249C61.7401 139.797 61.6631 139.237 61.6655 138.57C61.6655 137.947 61.7318 137.392 61.8643 136.904C61.9969 136.416 62.1875 136.004 62.4361 135.668C62.6847 135.33 62.9841 135.072 63.3345 134.894C63.6873 134.717 64.0814 134.628 64.517 134.628C64.974 134.628 65.3788 134.718 65.7315 134.898C66.0866 135.078 66.3731 135.324 66.5909 135.636C66.8087 135.946 66.9437 136.297 66.9957 136.688H65.6996C65.6333 136.408 65.4972 136.186 65.2912 136.02C65.0876 135.852 64.8295 135.768 64.517 135.768C64.0128 135.768 63.6245 135.987 63.3523 136.425C63.0824 136.863 62.9463 137.464 62.9439 138.229H62.9936C63.1096 138.02 63.2599 137.842 63.4446 137.692C63.6293 137.543 63.8376 137.429 64.0696 137.348C64.304 137.265 64.5514 137.224 64.8118 137.224C65.2379 137.224 65.6203 137.326 65.9588 137.529C66.2997 137.733 66.5696 138.013 66.7685 138.371C66.9673 138.726 67.0656 139.133 67.0632 139.592C67.0656 140.071 66.9567 140.5 66.7365 140.881C66.5163 141.26 66.2098 141.558 65.8168 141.776C65.4238 141.994 64.9657 142.102 64.4425 142.099ZM64.4354 141.034C64.6934 141.034 64.9242 140.971 65.1278 140.846C65.3314 140.72 65.4924 140.551 65.6108 140.338C65.7292 140.125 65.7872 139.886 65.7848 139.621C65.7872 139.36 65.7304 139.125 65.6143 138.914C65.5007 138.703 65.3433 138.536 65.142 138.413C64.9408 138.29 64.7112 138.229 64.4531 138.229C64.2614 138.229 64.0826 138.265 63.9169 138.339C63.7512 138.412 63.6068 138.514 63.4837 138.644C63.3606 138.772 63.2635 138.921 63.1925 139.092C63.1238 139.26 63.0883 139.44 63.0859 139.631C63.0883 139.885 63.1475 140.118 63.2635 140.331C63.3795 140.544 63.5393 140.714 63.7429 140.842C63.9465 140.97 64.1773 141.034 64.4354 141.034Z" fill="black" fill-opacity="0.45"/>
<rect x="308" y="116" width="44" height="44" rx="15" fill="#9A3732"/>
<path fill-rule="evenodd" clip-rule="evenodd" d="M331.293 130.293C331.683 129.902 332.317 129.902 332.707 130.293L339.707 137.293C340.098 137.683 340.098 138.317 339.707 138.707L332.707 145.707C332.317 146.098 331.683 146.098 331.293 145.707C330.902 145.317 330.902 144.683 331.293 144.293L336.586 139H321C320.448 139 320 138.552 320 138C320 137.448 320.448 137 321 137H336.586L331.293 131.707C330.902 131.317 330.902 130.683 331.293 130.293Z" fill="#E6B4B2"/>
</svg>
