<svg width="368" height="176" viewBox="0 0 368 176" fill="none" xmlns="http://www.w3.org/2000/svg">
<rect width="368" height="176" rx="32" fill="#ADBDEB"/>
<path d="M19.402 42L20.5952 34.7273H21.5895L20.3963 42H19.402ZM16.1243 40.125L16.2912 39.1307H21.8878L21.7209 40.125H16.1243ZM16.8452 42L18.0384 34.7273H19.0327L17.8395 42H16.8452ZM16.5469 37.5966L16.7102 36.6023H22.3068L22.1435 37.5966H16.5469ZM24.3816 34.7273V42H23.0961V34.7273H24.3816ZM27.2731 42.1101C26.9274 42.1101 26.6161 42.0485 26.3391 41.9254C26.0645 41.8 25.8467 41.6153 25.6857 41.3714C25.5271 41.1276 25.4478 40.8269 25.4478 40.4695C25.4478 40.1617 25.5046 39.9072 25.6183 39.706C25.7319 39.5047 25.887 39.3438 26.0835 39.223C26.2799 39.1023 26.5013 39.0111 26.7475 38.9496C26.9961 38.8857 27.253 38.8395 27.5181 38.8111C27.8377 38.7779 28.0969 38.7483 28.2958 38.7223C28.4947 38.6939 28.6391 38.6513 28.729 38.5945C28.8214 38.5353 28.8675 38.4441 28.8675 38.321V38.2997C28.8675 38.0322 28.7882 37.825 28.6296 37.6783C28.471 37.5315 28.2425 37.4581 27.9442 37.4581C27.6294 37.4581 27.3796 37.5268 27.195 37.6641C27.0127 37.8014 26.8896 37.9635 26.8256 38.1506L25.6254 37.9801C25.7201 37.6487 25.8763 37.3717 26.0941 37.1491C26.3119 36.9242 26.5782 36.7562 26.8931 36.6449C27.208 36.5312 27.556 36.4744 27.9371 36.4744C28.1999 36.4744 28.4615 36.5052 28.7219 36.5668C28.9824 36.6283 29.2203 36.7301 29.4357 36.8722C29.6512 37.0118 29.824 37.2024 29.9542 37.4439C30.0868 37.6854 30.1531 37.9872 30.1531 38.3494V42H28.9173V41.2507H28.8746C28.7965 41.4022 28.6864 41.5443 28.5444 41.6768C28.4047 41.8071 28.2283 41.9124 28.0153 41.9929C27.8046 42.071 27.5572 42.1101 27.2731 42.1101ZM27.6069 41.1655C27.8649 41.1655 28.0887 41.1146 28.2781 41.0128C28.4674 40.9086 28.613 40.7713 28.7148 40.6009C28.819 40.4304 28.8711 40.2446 28.8711 40.0433V39.4006C28.8308 39.4337 28.7622 39.4645 28.6651 39.4929C28.5704 39.5213 28.4639 39.5462 28.3455 39.5675C28.2272 39.5888 28.11 39.6077 27.994 39.6243C27.878 39.6409 27.7773 39.6551 27.6921 39.6669C27.5004 39.6929 27.3287 39.7356 27.1772 39.7947C27.0257 39.8539 26.9061 39.9368 26.8185 40.0433C26.7309 40.1475 26.6871 40.2824 26.6871 40.4482C26.6871 40.6849 26.7736 40.8636 26.9464 40.9844C27.1192 41.1051 27.3394 41.1655 27.6069 41.1655ZM32.7312 38.804V42H31.4457V36.5455H32.6744V37.4723H32.7383C32.8638 37.1669 33.0638 36.9242 33.3384 36.7443C33.6154 36.5644 33.9575 36.4744 34.3647 36.4744C34.7411 36.4744 35.069 36.5549 35.3484 36.7159C35.6301 36.8769 35.8479 37.1101 36.0018 37.4155C36.158 37.7209 36.235 38.0914 36.2326 38.527V42H34.9471V38.7259C34.9471 38.3613 34.8524 38.076 34.663 37.87C34.476 37.6641 34.2167 37.5611 33.8853 37.5611C33.6604 37.5611 33.4603 37.6108 33.2852 37.7102C33.1123 37.8073 32.9762 37.9482 32.8768 38.1328C32.7797 38.3175 32.7312 38.5412 32.7312 38.804ZM39.9116 44.1591C39.4499 44.1591 39.0534 44.0964 38.7219 43.9709C38.3905 43.8478 38.1242 43.6821 37.9229 43.4737C37.7217 43.2654 37.582 43.0346 37.5039 42.7812L38.6616 42.5007C38.7137 42.6072 38.7894 42.7126 38.8888 42.8168C38.9883 42.9233 39.122 43.0109 39.2901 43.0795C39.4606 43.1506 39.6748 43.1861 39.9329 43.1861C40.2975 43.1861 40.5993 43.0973 40.8384 42.9197C41.0775 42.7446 41.1971 42.4557 41.1971 42.0533V41.0199H41.1332C41.0669 41.1525 40.9698 41.2886 40.842 41.4283C40.7165 41.5679 40.5496 41.6851 40.3413 41.7798C40.1353 41.8745 39.8761 41.9219 39.5636 41.9219C39.1445 41.9219 38.7646 41.8236 38.4237 41.6271C38.0851 41.4283 37.8152 41.1323 37.614 40.7393C37.4151 40.344 37.3157 39.8492 37.3157 39.255C37.3157 38.656 37.4151 38.1506 37.614 37.7386C37.8152 37.3243 38.0863 37.0107 38.4272 36.7976C38.7681 36.5821 39.1481 36.4744 39.5671 36.4744C39.8867 36.4744 40.1495 36.5289 40.3555 36.6378C40.5638 36.7443 40.7295 36.8733 40.8526 37.0249C40.9757 37.174 41.0692 37.3149 41.1332 37.4474H41.2042V36.5455H42.4719V42.0888C42.4719 42.5552 42.3607 42.9411 42.1381 43.2464C41.9156 43.5518 41.6114 43.7803 41.2255 43.9318C40.8396 44.0833 40.4016 44.1591 39.9116 44.1591ZM39.9222 40.9134C40.1945 40.9134 40.4265 40.8471 40.6183 40.7145C40.81 40.5819 40.9556 40.3913 41.055 40.1428C41.1545 39.8942 41.2042 39.5959 41.2042 39.2479C41.2042 38.9046 41.1545 38.6039 41.055 38.3459C40.958 38.0878 40.8136 37.8878 40.6218 37.7457C40.4324 37.6013 40.1992 37.5291 39.9222 37.5291C39.6358 37.5291 39.3967 37.6037 39.2049 37.7528C39.0131 37.902 38.8687 38.1068 38.7717 38.3672C38.6746 38.6252 38.6261 38.9188 38.6261 39.2479C38.6261 39.5817 38.6746 39.8741 38.7717 40.125C38.8711 40.3736 39.0167 40.5677 39.2085 40.7074C39.4026 40.8447 39.6405 40.9134 39.9222 40.9134ZM47.266 39.706V36.5455H48.5515V42H47.305V41.0305H47.2482C47.1251 41.3359 46.9227 41.5857 46.641 41.7798C46.3616 41.974 46.0172 42.071 45.6076 42.071C45.2501 42.071 44.9341 41.9917 44.6594 41.8331C44.3872 41.6721 44.1741 41.4389 44.0202 41.1335C43.8664 40.8258 43.7894 40.4541 43.7894 40.0185V36.5455H45.0749V39.8196C45.0749 40.1652 45.1696 40.4399 45.359 40.6435C45.5484 40.8471 45.797 40.9489 46.1048 40.9489C46.2942 40.9489 46.4776 40.9027 46.6552 40.8104C46.8327 40.718 46.9783 40.5807 47.092 40.3984C47.208 40.2138 47.266 39.983 47.266 39.706ZM51.443 42.1101C51.0974 42.1101 50.786 42.0485 50.5091 41.9254C50.2344 41.8 50.0166 41.6153 49.8556 41.3714C49.697 41.1276 49.6177 40.8269 49.6177 40.4695C49.6177 40.1617 49.6745 39.9072 49.7882 39.706C49.9018 39.5047 50.0569 39.3438 50.2534 39.223C50.4499 39.1023 50.6712 39.0111 50.9174 38.9496C51.166 38.8857 51.4229 38.8395 51.688 38.8111C52.0076 38.7779 52.2669 38.7483 52.4657 38.7223C52.6646 38.6939 52.809 38.6513 52.899 38.5945C52.9913 38.5353 53.0375 38.4441 53.0375 38.321V38.2997C53.0375 38.0322 52.9582 37.825 52.7995 37.6783C52.6409 37.5315 52.4125 37.4581 52.1142 37.4581C51.7993 37.4581 51.5495 37.5268 51.3649 37.6641C51.1826 37.8014 51.0595 37.9635 50.9956 38.1506L49.7953 37.9801C49.89 37.6487 50.0462 37.3717 50.264 37.1491C50.4818 36.9242 50.7482 36.7562 51.063 36.6449C51.3779 36.5312 51.7259 36.4744 52.1071 36.4744C52.3699 36.4744 52.6315 36.5052 52.8919 36.5668C53.1523 36.6283 53.3902 36.7301 53.6056 36.8722C53.8211 37.0118 53.9939 37.2024 54.1241 37.4439C54.2567 37.6854 54.323 37.9872 54.323 38.3494V42H53.0872V41.2507H53.0446C52.9664 41.4022 52.8564 41.5443 52.7143 41.6768C52.5746 41.8071 52.3983 41.9124 52.1852 41.9929C51.9745 42.071 51.7271 42.1101 51.443 42.1101ZM51.7768 41.1655C52.0349 41.1655 52.2586 41.1146 52.448 41.0128C52.6374 40.9086 52.783 40.7713 52.8848 40.6009C52.9889 40.4304 53.041 40.2446 53.041 40.0433V39.4006C53.0008 39.4337 52.9321 39.4645 52.835 39.4929C52.7404 39.5213 52.6338 39.5462 52.5154 39.5675C52.3971 39.5888 52.2799 39.6077 52.1639 39.6243C52.0479 39.6409 51.9473 39.6551 51.862 39.6669C51.6703 39.6929 51.4986 39.7356 51.3471 39.7947C51.1956 39.8539 51.0761 39.9368 50.9885 40.0433C50.9009 40.1475 50.8571 40.2824 50.8571 40.4482C50.8571 40.6849 50.9435 40.8636 51.1163 40.9844C51.2891 41.1051 51.5093 41.1655 51.7768 41.1655ZM57.9877 44.1591C57.5261 44.1591 57.1296 44.0964 56.7981 43.9709C56.4667 43.8478 56.2003 43.6821 55.9991 43.4737C55.7979 43.2654 55.6582 43.0346 55.5801 42.7812L56.7377 42.5007C56.7898 42.6072 56.8656 42.7126 56.965 42.8168C57.0645 42.9233 57.1982 43.0109 57.3663 43.0795C57.5368 43.1506 57.751 43.1861 58.0091 43.1861C58.3736 43.1861 58.6755 43.0973 58.9146 42.9197C59.1537 42.7446 59.2733 42.4557 59.2733 42.0533V41.0199H59.2093C59.1431 41.1525 59.046 41.2886 58.9181 41.4283C58.7927 41.5679 58.6258 41.6851 58.4174 41.7798C58.2115 41.8745 57.9522 41.9219 57.6397 41.9219C57.2207 41.9219 56.8407 41.8236 56.4998 41.6271C56.1613 41.4283 55.8914 41.1323 55.6902 40.7393C55.4913 40.344 55.3919 39.8492 55.3919 39.255C55.3919 38.656 55.4913 38.1506 55.6902 37.7386C55.8914 37.3243 56.1625 37.0107 56.5034 36.7976C56.8443 36.5821 57.2243 36.4744 57.6433 36.4744C57.9629 36.4744 58.2257 36.5289 58.4316 36.6378C58.64 36.7443 58.8057 36.8733 58.9288 37.0249C59.0519 37.174 59.1454 37.3149 59.2093 37.4474H59.2804V36.5455H60.5481V42.0888C60.5481 42.5552 60.4368 42.9411 60.2143 43.2464C59.9918 43.5518 59.6876 43.7803 59.3017 43.9318C58.9158 44.0833 58.4778 44.1591 57.9877 44.1591ZM57.9984 40.9134C58.2707 40.9134 58.5027 40.8471 58.6944 40.7145C58.8862 40.5819 59.0318 40.3913 59.1312 40.1428C59.2306 39.8942 59.2804 39.5959 59.2804 39.2479C59.2804 38.9046 59.2306 38.6039 59.1312 38.3459C59.0342 38.0878 58.8897 37.8878 58.698 37.7457C58.5086 37.6013 58.2754 37.5291 57.9984 37.5291C57.7119 37.5291 57.4728 37.6037 57.2811 37.7528C57.0893 37.902 56.9449 38.1068 56.8478 38.3672C56.7508 38.6252 56.7022 38.9188 56.7022 39.2479C56.7022 39.5817 56.7508 39.8741 56.8478 40.125C56.9473 40.3736 57.0929 40.5677 57.2846 40.7074C57.4788 40.8447 57.7167 40.9134 57.9984 40.9134ZM64.2804 42.1065C63.7335 42.1065 63.2612 41.9929 62.8635 41.7656C62.4681 41.536 62.1639 41.2116 61.9508 40.7926C61.7377 40.3712 61.6312 39.8752 61.6312 39.3047C61.6312 38.7436 61.7377 38.2512 61.9508 37.8274C62.1663 37.4013 62.4669 37.0698 62.8528 36.8331C63.2387 36.594 63.6921 36.4744 64.2129 36.4744C64.5491 36.4744 64.8663 36.5289 65.1646 36.6378C65.4653 36.7443 65.7304 36.91 65.96 37.1349C66.1921 37.3598 66.3743 37.6463 66.5069 37.9943C66.6395 38.34 66.7058 38.7519 66.7058 39.2301V39.6243H62.2349V38.7578H65.4735C65.4712 38.5116 65.4179 38.2926 65.3137 38.1009C65.2096 37.9067 65.064 37.754 64.877 37.6428C64.6923 37.5315 64.4769 37.4759 64.2306 37.4759C63.9679 37.4759 63.737 37.5398 63.5382 37.6676C63.3393 37.7931 63.1842 37.9588 63.073 38.1648C62.9641 38.3684 62.9084 38.5921 62.9061 38.8359V39.5923C62.9061 39.9096 62.9641 40.1818 63.0801 40.4091C63.1961 40.634 63.3583 40.8068 63.5666 40.9276C63.7749 41.0459 64.0188 41.1051 64.2981 41.1051C64.4851 41.1051 64.6544 41.0791 64.8059 41.027C64.9574 40.9725 65.0888 40.8932 65.2001 40.7891C65.3114 40.6849 65.3954 40.5559 65.4522 40.402L66.6525 40.5369C66.5768 40.8542 66.4324 41.1312 66.2193 41.3679C66.0086 41.6023 65.7387 41.7846 65.4096 41.9148C65.0806 42.0426 64.7041 42.1065 64.2804 42.1065Z" fill="black" fill-opacity="0.45"/>
<path d="M18.2955 79V55.7273H27.0227C28.8106 55.7273 30.3106 56.0606 31.5227 56.7273C32.7424 57.3939 33.6629 58.3106 34.2841 59.4773C34.9129 60.6364 35.2273 61.9545 35.2273 63.4318C35.2273 64.9242 34.9129 66.25 34.2841 67.4091C33.6553 68.5682 32.7273 69.4811 31.5 70.1477C30.2727 70.8068 28.7614 71.1364 26.9659 71.1364H21.1818V67.6705H26.3977C27.4432 67.6705 28.2992 67.4886 28.9659 67.125C29.6326 66.7614 30.125 66.2614 30.4432 65.625C30.7689 64.9886 30.9318 64.2576 30.9318 63.4318C30.9318 62.6061 30.7689 61.8788 30.4432 61.25C30.125 60.6212 29.6288 60.1326 28.9545 59.7841C28.2879 59.428 27.428 59.25 26.375 59.25H22.5114V79H18.2955ZM38.7074 79V61.5455H42.696V64.4545H42.8778C43.196 63.447 43.7415 62.6705 44.5142 62.125C45.2945 61.572 46.1847 61.2955 47.1847 61.2955C47.4119 61.2955 47.6657 61.3068 47.946 61.3295C48.2339 61.3447 48.4725 61.3712 48.6619 61.4091V65.1932C48.4877 65.1326 48.2112 65.0795 47.8324 65.0341C47.4612 64.9811 47.1013 64.9545 46.7528 64.9545C46.0028 64.9545 45.3286 65.1174 44.7301 65.4432C44.1392 65.7614 43.6733 66.2045 43.3324 66.7727C42.9915 67.3409 42.821 67.9962 42.821 68.7386V79H38.7074ZM58.2898 79.3409C56.5852 79.3409 55.108 78.9659 53.858 78.2159C52.608 77.4659 51.6383 76.4167 50.9489 75.0682C50.267 73.7197 49.9261 72.1439 49.9261 70.3409C49.9261 68.5379 50.267 66.9583 50.9489 65.6023C51.6383 64.2462 52.608 63.1932 53.858 62.4432C55.108 61.6932 56.5852 61.3182 58.2898 61.3182C59.9943 61.3182 61.4716 61.6932 62.7216 62.4432C63.9716 63.1932 64.9375 64.2462 65.6193 65.6023C66.3087 66.9583 66.6534 68.5379 66.6534 70.3409C66.6534 72.1439 66.3087 73.7197 65.6193 75.0682C64.9375 76.4167 63.9716 77.4659 62.7216 78.2159C61.4716 78.9659 59.9943 79.3409 58.2898 79.3409ZM58.3125 76.0455C59.2367 76.0455 60.0095 75.7917 60.6307 75.2841C61.2519 74.7689 61.714 74.0795 62.017 73.2159C62.3277 72.3523 62.483 71.3902 62.483 70.3295C62.483 69.2614 62.3277 68.2955 62.017 67.4318C61.714 66.5606 61.2519 65.8674 60.6307 65.3523C60.0095 64.8371 59.2367 64.5795 58.3125 64.5795C57.3655 64.5795 56.5777 64.8371 55.9489 65.3523C55.3277 65.8674 54.8617 66.5606 54.5511 67.4318C54.2481 68.2955 54.0966 69.2614 54.0966 70.3295C54.0966 71.3902 54.2481 72.3523 54.5511 73.2159C54.8617 74.0795 55.3277 74.7689 55.9489 75.2841C56.5777 75.7917 57.3655 76.0455 58.3125 76.0455ZM74.2585 68.7727V79H70.1449V61.5455H74.0767V64.5114H74.2812C74.6828 63.5341 75.3229 62.7576 76.2017 62.1818C77.0881 61.6061 78.1828 61.3182 79.4858 61.3182C80.6903 61.3182 81.7396 61.5758 82.6335 62.0909C83.535 62.6061 84.232 63.3523 84.7244 64.3295C85.2244 65.3068 85.4706 66.4924 85.4631 67.8864V79H81.3494V68.5227C81.3494 67.3561 81.0464 66.4432 80.4403 65.7841C79.8419 65.125 79.0123 64.7955 77.9517 64.7955C77.232 64.7955 76.5919 64.9545 76.0312 65.2727C75.4782 65.5833 75.0426 66.0341 74.7244 66.625C74.4138 67.2159 74.2585 67.9318 74.2585 68.7727ZM100.77 71.6591V61.5455H104.884V79H100.895V75.8977H100.713C100.319 76.875 99.6714 77.6742 98.7699 78.2955C97.8759 78.9167 96.7737 79.2273 95.4631 79.2273C94.3191 79.2273 93.3078 78.9735 92.429 78.4659C91.5578 77.9508 90.8759 77.2045 90.3835 76.2273C89.8911 75.2424 89.6449 74.053 89.6449 72.6591V61.5455H93.7585V72.0227C93.7585 73.1288 94.0616 74.0076 94.6676 74.6591C95.2737 75.3106 96.0691 75.6364 97.054 75.6364C97.66 75.6364 98.2472 75.4886 98.8153 75.1932C99.3835 74.8977 99.8494 74.4583 100.213 73.875C100.584 73.2841 100.77 72.5455 100.77 71.6591ZM113.227 68.7727V79H109.114V61.5455H113.045V64.5114H113.25C113.652 63.5341 114.292 62.7576 115.17 62.1818C116.057 61.6061 117.152 61.3182 118.455 61.3182C119.659 61.3182 120.708 61.5758 121.602 62.0909C122.504 62.6061 123.201 63.3523 123.693 64.3295C124.193 65.3068 124.439 66.4924 124.432 67.8864V79H120.318V68.5227C120.318 67.3561 120.015 66.4432 119.409 65.7841C118.811 65.125 117.981 64.7955 116.92 64.7955C116.201 64.7955 115.561 64.9545 115 65.2727C114.447 65.5833 114.011 66.0341 113.693 66.625C113.383 67.2159 113.227 67.9318 113.227 68.7727ZM136.227 79.3409C134.485 79.3409 132.989 78.9583 131.739 78.1932C130.496 77.428 129.538 76.3712 128.864 75.0227C128.197 73.6667 127.864 72.1061 127.864 70.3409C127.864 68.5682 128.205 67.0038 128.886 65.6477C129.568 64.2841 130.53 63.2235 131.773 62.4659C133.023 61.7008 134.5 61.3182 136.205 61.3182C137.621 61.3182 138.875 61.5795 139.966 62.1023C141.064 62.6174 141.939 63.3485 142.591 64.2955C143.242 65.2348 143.614 66.3333 143.705 67.5909H139.773C139.614 66.75 139.235 66.0492 138.636 65.4886C138.045 64.9205 137.254 64.6364 136.261 64.6364C135.42 64.6364 134.682 64.8636 134.045 65.3182C133.409 65.7652 132.913 66.4091 132.557 67.25C132.208 68.0909 132.034 69.0985 132.034 70.2727C132.034 71.4621 132.208 72.4848 132.557 73.3409C132.905 74.1894 133.394 74.8447 134.023 75.3068C134.659 75.7614 135.405 75.9886 136.261 75.9886C136.867 75.9886 137.409 75.875 137.886 75.6477C138.371 75.4129 138.777 75.0758 139.102 74.6364C139.428 74.197 139.652 73.6629 139.773 73.0341H143.705C143.606 74.2689 143.242 75.3636 142.614 76.3182C141.985 77.2652 141.129 78.0076 140.045 78.5455C138.962 79.0758 137.689 79.3409 136.227 79.3409ZM147.082 79V61.5455H151.196V79H147.082ZM149.151 59.0682C148.499 59.0682 147.938 58.8523 147.469 58.4205C146.999 57.9811 146.764 57.4545 146.764 56.8409C146.764 56.2197 146.999 55.6932 147.469 55.2614C147.938 54.822 148.499 54.6023 149.151 54.6023C149.81 54.6023 150.37 54.822 150.832 55.2614C151.302 55.6932 151.537 56.2197 151.537 56.8409C151.537 57.4545 151.302 57.9811 150.832 58.4205C150.37 58.8523 149.81 59.0682 149.151 59.0682ZM160.449 79.3523C159.343 79.3523 158.347 79.1553 157.46 78.7614C156.581 78.3598 155.884 77.7689 155.369 76.9886C154.862 76.2083 154.608 75.2462 154.608 74.1023C154.608 73.1174 154.79 72.303 155.153 71.6591C155.517 71.0152 156.013 70.5 156.642 70.1136C157.271 69.7273 157.979 69.4356 158.767 69.2386C159.563 69.0341 160.384 68.8864 161.233 68.7955C162.256 68.6894 163.085 68.5947 163.722 68.5114C164.358 68.4205 164.82 68.2841 165.108 68.1023C165.403 67.9129 165.551 67.6212 165.551 67.2273V67.1591C165.551 66.303 165.297 65.6402 164.79 65.1705C164.282 64.7008 163.551 64.4659 162.597 64.4659C161.589 64.4659 160.79 64.6856 160.199 65.125C159.616 65.5644 159.222 66.0833 159.017 66.6818L155.176 66.1364C155.479 65.0758 155.979 64.1894 156.676 63.4773C157.373 62.7576 158.225 62.2197 159.233 61.8636C160.241 61.5 161.354 61.3182 162.574 61.3182C163.415 61.3182 164.252 61.4167 165.085 61.6136C165.919 61.8106 166.68 62.1364 167.369 62.5909C168.059 63.0379 168.612 63.6477 169.028 64.4205C169.453 65.1932 169.665 66.1591 169.665 67.3182V79H165.71V76.6023H165.574C165.324 77.0871 164.972 77.5417 164.517 77.9659C164.07 78.3826 163.506 78.7197 162.824 78.9773C162.15 79.2273 161.358 79.3523 160.449 79.3523ZM161.517 76.3295C162.343 76.3295 163.059 76.1667 163.665 75.8409C164.271 75.5076 164.737 75.0682 165.062 74.5227C165.396 73.9773 165.562 73.3826 165.562 72.7386V70.6818C165.434 70.7879 165.214 70.8864 164.903 70.9773C164.6 71.0682 164.259 71.1477 163.881 71.2159C163.502 71.2841 163.127 71.3447 162.756 71.3977C162.384 71.4508 162.063 71.4962 161.79 71.5341C161.176 71.6174 160.627 71.7538 160.142 71.9432C159.657 72.1326 159.275 72.3977 158.994 72.7386C158.714 73.072 158.574 73.5038 158.574 74.0341C158.574 74.7917 158.85 75.3636 159.403 75.75C159.956 76.1364 160.661 76.3295 161.517 76.3295ZM182.517 61.5455V64.7273H172.483V61.5455H182.517ZM174.96 57.3636H179.074V73.75C179.074 74.303 179.157 74.7273 179.324 75.0227C179.498 75.3106 179.725 75.5076 180.006 75.6136C180.286 75.7197 180.597 75.7727 180.938 75.7727C181.195 75.7727 181.43 75.7538 181.642 75.7159C181.862 75.678 182.028 75.6439 182.142 75.6136L182.835 78.8295C182.616 78.9053 182.301 78.9886 181.892 79.0795C181.491 79.1705 180.998 79.2235 180.415 79.2386C179.384 79.2689 178.456 79.1136 177.631 78.7727C176.805 78.4242 176.15 77.8864 175.665 77.1591C175.188 76.4318 174.953 75.5227 174.96 74.4318V57.3636ZM185.957 79V61.5455H190.071V79H185.957ZM188.026 59.0682C187.374 59.0682 186.813 58.8523 186.344 58.4205C185.874 57.9811 185.639 57.4545 185.639 56.8409C185.639 56.2197 185.874 55.6932 186.344 55.2614C186.813 54.822 187.374 54.6023 188.026 54.6023C188.685 54.6023 189.245 54.822 189.707 55.2614C190.177 55.6932 190.412 56.2197 190.412 56.8409C190.412 57.4545 190.177 57.9811 189.707 58.4205C189.245 58.8523 188.685 59.0682 188.026 59.0682ZM201.915 79.3409C200.21 79.3409 198.733 78.9659 197.483 78.2159C196.233 77.4659 195.263 76.4167 194.574 75.0682C193.892 73.7197 193.551 72.1439 193.551 70.3409C193.551 68.5379 193.892 66.9583 194.574 65.6023C195.263 64.2462 196.233 63.1932 197.483 62.4432C198.733 61.6932 200.21 61.3182 201.915 61.3182C203.619 61.3182 205.097 61.6932 206.347 62.4432C207.597 63.1932 208.563 64.2462 209.244 65.6023C209.934 66.9583 210.278 68.5379 210.278 70.3409C210.278 72.1439 209.934 73.7197 209.244 75.0682C208.563 76.4167 207.597 77.4659 206.347 78.2159C205.097 78.9659 203.619 79.3409 201.915 79.3409ZM201.938 76.0455C202.862 76.0455 203.634 75.7917 204.256 75.2841C204.877 74.7689 205.339 74.0795 205.642 73.2159C205.953 72.3523 206.108 71.3902 206.108 70.3295C206.108 69.2614 205.953 68.2955 205.642 67.4318C205.339 66.5606 204.877 65.8674 204.256 65.3523C203.634 64.8371 202.862 64.5795 201.938 64.5795C200.991 64.5795 200.203 64.8371 199.574 65.3523C198.953 65.8674 198.487 66.5606 198.176 67.4318C197.873 68.2955 197.722 69.2614 197.722 70.3295C197.722 71.3902 197.873 72.3523 198.176 73.2159C198.487 74.0795 198.953 74.7689 199.574 75.2841C200.203 75.7917 200.991 76.0455 201.938 76.0455ZM217.884 68.7727V79H213.77V61.5455H217.702V64.5114H217.906C218.308 63.5341 218.948 62.7576 219.827 62.1818C220.713 61.6061 221.808 61.3182 223.111 61.3182C224.315 61.3182 225.365 61.5758 226.259 62.0909C227.16 62.6061 227.857 63.3523 228.349 64.3295C228.849 65.3068 229.096 66.4924 229.088 67.8864V79H224.974V68.5227C224.974 67.3561 224.671 66.4432 224.065 65.7841C223.467 65.125 222.637 64.7955 221.577 64.7955C220.857 64.7955 220.217 64.9545 219.656 65.2727C219.103 65.5833 218.668 66.0341 218.349 66.625C218.039 67.2159 217.884 67.9318 217.884 68.7727Z" fill="#343A40"/>
<path fill-rule="evenodd" clip-rule="evenodd" d="M21.8333 129.667C19.5321 129.667 17.6667 131.532 17.6667 133.833V142.167C17.6667 144.468 19.5321 146.333 21.8333 146.333H30.1667C32.4678 146.333 34.3333 144.468 34.3333 142.167V133.833C34.3333 131.532 32.4678 129.667 30.1667 129.667H21.8333ZM27.1208 134.222C26.6622 133.293 25.3374 133.293 24.8789 134.222L24.2219 135.553L22.7528 135.766C21.7275 135.915 21.3181 137.175 22.06 137.899L23.1231 138.935L22.8721 140.398C22.697 141.419 23.7688 142.198 24.6858 141.716L25.9998 141.025L27.3139 141.716C28.2309 142.198 29.3027 141.419 29.1276 140.398L28.8766 138.935L29.9397 137.899C30.6816 137.175 30.2722 135.915 29.2469 135.766L27.7778 135.553L27.1208 134.222Z" fill="#2947A3"/>
<path d="M43.3345 142.138C42.7498 142.138 42.2479 141.991 41.8288 141.695C41.4122 141.396 41.0914 140.967 40.8665 140.406C40.6439 139.842 40.5327 139.164 40.5327 138.371C40.535 137.578 40.6475 136.903 40.87 136.347C41.0949 135.788 41.4157 135.362 41.8324 135.068C42.2514 134.775 42.7521 134.628 43.3345 134.628C43.9169 134.628 44.4176 134.775 44.8366 135.068C45.2557 135.362 45.5765 135.788 45.799 136.347C46.0239 136.905 46.1364 137.58 46.1364 138.371C46.1364 139.166 46.0239 139.846 45.799 140.409C45.5765 140.97 45.2557 141.399 44.8366 141.695C44.42 141.991 43.9193 142.138 43.3345 142.138ZM43.3345 141.027C43.7891 141.027 44.1477 140.803 44.4105 140.356C44.6757 139.906 44.8082 139.244 44.8082 138.371C44.8082 137.793 44.7479 137.308 44.6271 136.915C44.5064 136.522 44.3359 136.226 44.1158 136.027C43.8956 135.826 43.6352 135.725 43.3345 135.725C42.8823 135.725 42.5249 135.95 42.2621 136.4C41.9993 136.847 41.8667 137.504 41.8643 138.371C41.862 138.951 41.92 139.438 42.0384 139.834C42.1591 140.229 42.3295 140.527 42.5497 140.729C42.7699 140.928 43.0315 141.027 43.3345 141.027ZM52.7797 134.386L50.4359 143.094H49.3102L51.6539 134.386H52.7797ZM56.0662 142V141.048L58.5911 138.573C58.8326 138.329 59.0338 138.113 59.1948 137.923C59.3558 137.734 59.4765 137.55 59.557 137.373C59.6375 137.195 59.6777 137.006 59.6777 136.805C59.6777 136.575 59.6257 136.379 59.5215 136.215C59.4173 136.049 59.2741 135.922 59.0918 135.832C58.9095 135.742 58.7024 135.697 58.4703 135.697C58.2312 135.697 58.0217 135.746 57.8418 135.846C57.6619 135.943 57.5222 136.081 57.4228 136.261C57.3257 136.441 57.2772 136.656 57.2772 136.904H56.0236C56.0236 136.442 56.129 136.041 56.3397 135.7C56.5504 135.359 56.8404 135.095 57.2097 134.908C57.5814 134.721 58.0075 134.628 58.4881 134.628C58.9758 134.628 59.4043 134.719 59.7736 134.901C60.1429 135.084 60.4294 135.333 60.633 135.651C60.839 135.968 60.9419 136.33 60.9419 136.737C60.9419 137.009 60.8899 137.277 60.7857 137.54C60.6815 137.803 60.498 138.094 60.2353 138.413C59.9748 138.733 59.6091 139.12 59.138 139.575L57.8844 140.849V140.899H61.052V142H56.0662ZM62.2772 142V141.048L64.802 138.573C65.0435 138.329 65.2447 138.113 65.4057 137.923C65.5667 137.734 65.6874 137.55 65.7679 137.373C65.8484 137.195 65.8887 137.006 65.8887 136.805C65.8887 136.575 65.8366 136.379 65.7324 136.215C65.6283 136.049 65.485 135.922 65.3027 135.832C65.1204 135.742 64.9133 135.697 64.6813 135.697C64.4422 135.697 64.2327 135.746 64.0527 135.846C63.8728 135.943 63.7331 136.081 63.6337 136.261C63.5366 136.441 63.4881 136.656 63.4881 136.904H62.2346C62.2346 136.442 62.3399 136.041 62.5506 135.7C62.7613 135.359 63.0513 135.095 63.4206 134.908C63.7923 134.721 64.2185 134.628 64.699 134.628C65.1867 134.628 65.6152 134.719 65.9846 134.901C66.3539 135.084 66.6403 135.333 66.8439 135.651C67.0499 135.968 67.1529 136.33 67.1529 136.737C67.1529 137.009 67.1008 137.277 66.9966 137.54C66.8925 137.803 66.709 138.094 66.4462 138.413C66.1858 138.733 65.82 139.12 65.3489 139.575L64.0953 140.849V140.899H67.263V142H62.2772ZM68.2005 140.651V139.603L71.2864 134.727H72.16V136.219H71.6273L69.5499 139.511V139.567H73.8574V140.651H68.2005ZM71.6699 142V140.331L71.6841 139.862V134.727H72.927V142H71.6699Z" fill="black" fill-opacity="0.45"/>
<rect x="308" y="116" width="44" height="44" rx="15" fill="#2947A3"/>
<path fill-rule="evenodd" clip-rule="evenodd" d="M331.293 130.293C331.683 129.902 332.317 129.902 332.707 130.293L339.707 137.293C340.098 137.683 340.098 138.317 339.707 138.707L332.707 145.707C332.317 146.098 331.683 146.098 331.293 145.707C330.902 145.317 330.902 144.683 331.293 144.293L336.586 139H321C320.448 139 320 138.552 320 138C320 137.448 320.448 137 321 137H336.586L331.293 131.707C330.902 131.317 330.902 130.683 331.293 130.293Z" fill="#ADBDEB"/>
</svg>
