<svg width="368" height="176" viewBox="0 0 368 176" fill="none" xmlns="http://www.w3.org/2000/svg">
<rect width="368" height="176" rx="32" fill="#8AD1BF"/>
<path d="M19.402 42L20.5952 34.7273H21.5895L20.3963 42H19.402ZM16.1243 40.125L16.2912 39.1307H21.8878L21.7209 40.125H16.1243ZM16.8452 42L18.0384 34.7273H19.0327L17.8395 42H16.8452ZM16.5469 37.5966L16.7102 36.6023H22.3068L22.1435 37.5966H16.5469ZM26.736 44.0455V41.1406H26.6827C26.6164 41.2732 26.5205 41.4141 26.3951 41.5632C26.2696 41.71 26.1039 41.8355 25.8979 41.9396C25.6919 42.0438 25.4327 42.0959 25.1202 42.0959C24.6917 42.0959 24.3082 41.9858 23.9696 41.7656C23.6311 41.5455 23.3636 41.2259 23.1671 40.8068C22.9706 40.3878 22.8723 39.8788 22.8723 39.2798C22.8723 38.6738 22.9718 38.1624 23.1706 37.7457C23.3719 37.3267 23.6429 37.0107 23.9838 36.7976C24.3248 36.5821 24.7047 36.4744 25.1238 36.4744C25.4434 36.4744 25.7061 36.5289 25.9121 36.6378C26.1181 36.7443 26.2814 36.8733 26.4022 37.0249C26.5229 37.174 26.6164 37.3149 26.6827 37.4474H26.7608V36.5455H28.025V44.0455H26.736ZM25.4789 41.0412C25.7511 41.0412 25.9831 40.9678 26.1749 40.821C26.3667 40.6719 26.5123 40.4647 26.6117 40.1996C26.7111 39.9344 26.7608 39.6255 26.7608 39.2727C26.7608 38.92 26.7111 38.6134 26.6117 38.353C26.5146 38.0926 26.3702 37.8902 26.1784 37.7457C25.9891 37.6013 25.7559 37.5291 25.4789 37.5291C25.1924 37.5291 24.9533 37.6037 24.7615 37.7528C24.5698 37.902 24.4254 38.108 24.3283 38.3707C24.2312 38.6335 24.1827 38.9342 24.1827 39.2727C24.1827 39.6136 24.2312 39.9179 24.3283 40.1854C24.4277 40.4505 24.5733 40.66 24.7651 40.8139C24.9592 40.9654 25.1971 41.0412 25.4789 41.0412ZM32.8226 39.706V36.5455H34.1081V42H32.8617V41.0305H32.8049C32.6818 41.3359 32.4793 41.5857 32.1976 41.7798C31.9183 41.974 31.5738 42.071 31.1642 42.071C30.8068 42.071 30.4907 41.9917 30.2161 41.8331C29.9438 41.6721 29.7308 41.4389 29.5769 41.1335C29.423 40.8258 29.3461 40.4541 29.3461 40.0185V36.5455H30.6316V39.8196C30.6316 40.1652 30.7263 40.4399 30.9157 40.6435C31.1051 40.8471 31.3536 40.9489 31.6614 40.9489C31.8508 40.9489 32.0343 40.9027 32.2118 40.8104C32.3894 40.718 32.535 40.5807 32.6486 40.3984C32.7646 40.2138 32.8226 39.983 32.8226 39.706ZM35.43 42V36.5455H36.7156V42H35.43ZM35.5827 35.8281L36.3782 34.2053H37.6353L36.5451 35.8281H35.5827ZM38.0375 42V36.5455H39.2662V37.4723H39.3301C39.4437 37.1598 39.6319 36.916 39.8947 36.7408C40.1575 36.5632 40.4712 36.4744 40.8358 36.4744C41.2051 36.4744 41.5164 36.5644 41.7697 36.7443C42.0254 36.9219 42.2053 37.1645 42.3095 37.4723H42.3663C42.487 37.1693 42.6906 36.9278 42.9771 36.7479C43.2659 36.5656 43.608 36.4744 44.0034 36.4744C44.5053 36.4744 44.9148 36.633 45.2321 36.9503C45.5493 37.2675 45.7079 37.7304 45.7079 38.3388V42H44.4189V38.5376C44.4189 38.1991 44.3289 37.9517 44.149 37.7955C43.969 37.6368 43.7489 37.5575 43.4885 37.5575C43.1783 37.5575 42.9357 37.6546 42.7605 37.8487C42.5877 38.0405 42.5012 38.2902 42.5012 38.598V42H41.2406V38.4844C41.2406 38.2027 41.1554 37.9777 40.9849 37.8097C40.8168 37.6416 40.5967 37.5575 40.3244 37.5575C40.1397 37.5575 39.9717 37.6049 39.8201 37.6996C39.6686 37.7919 39.5479 37.9233 39.4579 38.0938C39.368 38.2618 39.323 38.4583 39.323 38.6832V42H38.0375ZM47.0121 42V36.5455H48.2976V42H47.0121ZM47.6584 35.7713C47.4548 35.7713 47.2796 35.7038 47.1328 35.5689C46.986 35.4316 46.9126 35.267 46.9126 35.0753C46.9126 34.8812 46.986 34.7166 47.1328 34.5817C47.2796 34.4444 47.4548 34.3757 47.6584 34.3757C47.8643 34.3757 48.0395 34.4444 48.1839 34.5817C48.3307 34.7166 48.4041 34.8812 48.4041 35.0753C48.4041 35.267 48.3307 35.4316 48.1839 35.5689C48.0395 35.7038 47.8643 35.7713 47.6584 35.7713ZM51.9988 42.1065C51.4542 42.1065 50.9867 41.987 50.5961 41.7479C50.2078 41.5088 49.9083 41.1785 49.6976 40.7571C49.4893 40.3333 49.3851 39.8456 49.3851 39.294C49.3851 38.7401 49.4917 38.2512 49.7047 37.8274C49.9178 37.4013 50.2185 37.0698 50.6067 36.8331C50.9973 36.594 51.459 36.4744 51.9917 36.4744C52.4344 36.4744 52.8262 36.5561 53.1671 36.7195C53.5104 36.8804 53.7838 37.1089 53.9874 37.4048C54.191 37.6984 54.307 38.0417 54.3354 38.4347H53.1067C53.057 38.1719 52.9386 37.9529 52.7516 37.7777C52.5669 37.6001 52.3195 37.5114 52.0094 37.5114C51.7466 37.5114 51.5158 37.5824 51.3169 37.7244C51.1181 37.8641 50.963 38.0653 50.8517 38.3281C50.7428 38.5909 50.6884 38.9058 50.6884 39.2727C50.6884 39.6444 50.7428 39.964 50.8517 40.2315C50.9606 40.4967 51.1133 40.7015 51.3098 40.8459C51.5087 40.9879 51.7419 41.0589 52.0094 41.0589C52.1988 41.0589 52.3681 41.0234 52.5172 40.9524C52.6687 40.879 52.7954 40.7737 52.8972 40.6364C52.999 40.4991 53.0688 40.3321 53.1067 40.1357H54.3354C54.3046 40.5215 54.191 40.8636 53.9945 41.1619C53.798 41.4579 53.5305 41.6899 53.1919 41.858C52.8534 42.0237 52.4557 42.1065 51.9988 42.1065ZM56.9606 42.1101C56.6149 42.1101 56.3036 42.0485 56.0266 41.9254C55.752 41.8 55.5342 41.6153 55.3732 41.3714C55.2146 41.1276 55.1353 40.8269 55.1353 40.4695C55.1353 40.1617 55.1921 39.9072 55.3058 39.706C55.4194 39.5047 55.5745 39.3438 55.771 39.223C55.9674 39.1023 56.1888 39.0111 56.435 38.9496C56.6836 38.8857 56.9405 38.8395 57.2056 38.8111C57.5252 38.7779 57.7844 38.7483 57.9833 38.7223C58.1822 38.6939 58.3266 38.6513 58.4165 38.5945C58.5089 38.5353 58.555 38.4441 58.555 38.321V38.2997C58.555 38.0322 58.4757 37.825 58.3171 37.6783C58.1585 37.5315 57.93 37.4581 57.6317 37.4581C57.3169 37.4581 57.0671 37.5268 56.8825 37.6641C56.7002 37.8014 56.5771 37.9635 56.5131 38.1506L55.3129 37.9801C55.4076 37.6487 55.5638 37.3717 55.7816 37.1491C55.9994 36.9242 56.2657 36.7562 56.5806 36.6449C56.8955 36.5312 57.2435 36.4744 57.6246 36.4744C57.8874 36.4744 58.149 36.5052 58.4094 36.5668C58.6699 36.6283 58.9078 36.7301 59.1232 36.8722C59.3387 37.0118 59.5115 37.2024 59.6417 37.4439C59.7743 37.6854 59.8406 37.9872 59.8406 38.3494V42H58.6048V41.2507H58.5621C58.484 41.4022 58.3739 41.5443 58.2319 41.6768C58.0922 41.8071 57.9158 41.9124 57.7028 41.9929C57.4921 42.071 57.2447 42.1101 56.9606 42.1101ZM57.2944 41.1655C57.5524 41.1655 57.7762 41.1146 57.9656 41.0128C58.1549 40.9086 58.3005 40.7713 58.4023 40.6009C58.5065 40.4304 58.5586 40.2446 58.5586 40.0433V39.4006C58.5183 39.4337 58.4497 39.4645 58.3526 39.4929C58.2579 39.5213 58.1514 39.5462 58.033 39.5675C57.9147 39.5888 57.7975 39.6077 57.6815 39.6243C57.5655 39.6409 57.4648 39.6551 57.3796 39.6669C57.1879 39.6929 57.0162 39.7356 56.8647 39.7947C56.7132 39.8539 56.5936 39.9368 56.506 40.0433C56.4184 40.1475 56.3746 40.2824 56.3746 40.4482C56.3746 40.6849 56.4611 40.8636 56.6339 40.9844C56.8067 41.1051 57.0269 41.1655 57.2944 41.1655Z" fill="black" fill-opacity="0.45"/>
<path d="M18.2955 79V55.7273H22.5114V65.5795H33.2955V55.7273H37.5227V79H33.2955V69.1136H22.5114V79H18.2955ZM41.9261 79V61.5455H46.0398V79H41.9261ZM43.9943 59.0682C43.3428 59.0682 42.7822 58.8523 42.3125 58.4205C41.8428 57.9811 41.608 57.4545 41.608 56.8409C41.608 56.2197 41.8428 55.6932 42.3125 55.2614C42.7822 54.822 43.3428 54.6023 43.9943 54.6023C44.6534 54.6023 45.214 54.822 45.6761 55.2614C46.1458 55.6932 46.3807 56.2197 46.3807 56.8409C46.3807 57.4545 46.1458 57.9811 45.6761 58.4205C45.214 58.8523 44.6534 59.0682 43.9943 59.0682ZM56.7472 79.3068C55.3759 79.3068 54.1487 78.9545 53.0653 78.25C51.982 77.5455 51.1259 76.5227 50.4972 75.1818C49.8684 73.8409 49.554 72.2121 49.554 70.2955C49.554 68.3561 49.8722 66.7197 50.5085 65.3864C51.1525 64.0455 52.0199 63.0341 53.1108 62.3523C54.2017 61.6629 55.4176 61.3182 56.7585 61.3182C57.7813 61.3182 58.6222 61.4924 59.2812 61.8409C59.9403 62.1818 60.4631 62.5947 60.8494 63.0795C61.2358 63.5568 61.535 64.0076 61.7472 64.4318H61.9176V55.7273H66.0426V79H61.9972V76.25H61.7472C61.535 76.6742 61.2282 77.125 60.8267 77.6023C60.4252 78.072 59.8949 78.4735 59.2358 78.8068C58.5767 79.1402 57.7472 79.3068 56.7472 79.3068ZM57.8949 75.9318C58.7661 75.9318 59.5085 75.697 60.1222 75.2273C60.7358 74.75 61.2017 74.0871 61.5199 73.2386C61.8381 72.3902 61.9972 71.4015 61.9972 70.2727C61.9972 69.1439 61.8381 68.1629 61.5199 67.3295C61.2093 66.4962 60.7472 65.8485 60.1335 65.3864C59.5275 64.9242 58.7813 64.6932 57.8949 64.6932C56.9782 64.6932 56.2131 64.9318 55.5994 65.4091C54.9858 65.8864 54.5237 66.5455 54.2131 67.3864C53.9025 68.2273 53.7472 69.1894 53.7472 70.2727C53.7472 71.3636 53.9025 72.3371 54.2131 73.1932C54.5313 74.0417 54.9972 74.7121 55.6108 75.2045C56.232 75.6894 56.9934 75.9318 57.8949 75.9318ZM70.4261 79V61.5455H74.4148V64.4545H74.5966C74.9148 63.447 75.4602 62.6705 76.233 62.125C77.0133 61.572 77.9034 61.2955 78.9034 61.2955C79.1307 61.2955 79.3845 61.3068 79.6648 61.3295C79.9527 61.3447 80.1913 61.3712 80.3807 61.4091V65.1932C80.2064 65.1326 79.9299 65.0795 79.5511 65.0341C79.1799 64.9811 78.8201 64.9545 78.4716 64.9545C77.7216 64.9545 77.0473 65.1174 76.4489 65.4432C75.858 65.7614 75.392 66.2045 75.0511 66.7727C74.7102 67.3409 74.5398 67.9962 74.5398 68.7386V79H70.4261ZM90.0085 79.3409C88.304 79.3409 86.8267 78.9659 85.5767 78.2159C84.3267 77.4659 83.357 76.4167 82.6676 75.0682C81.9858 73.7197 81.6449 72.1439 81.6449 70.3409C81.6449 68.5379 81.9858 66.9583 82.6676 65.6023C83.357 64.2462 84.3267 63.1932 85.5767 62.4432C86.8267 61.6932 88.304 61.3182 90.0085 61.3182C91.7131 61.3182 93.1903 61.6932 94.4403 62.4432C95.6903 63.1932 96.6563 64.2462 97.3381 65.6023C98.0275 66.9583 98.3722 68.5379 98.3722 70.3409C98.3722 72.1439 98.0275 73.7197 97.3381 75.0682C96.6563 76.4167 95.6903 77.4659 94.4403 78.2159C93.1903 78.9659 91.7131 79.3409 90.0085 79.3409ZM90.0312 76.0455C90.9555 76.0455 91.7282 75.7917 92.3494 75.2841C92.9706 74.7689 93.4328 74.0795 93.7358 73.2159C94.0464 72.3523 94.2017 71.3902 94.2017 70.3295C94.2017 69.2614 94.0464 68.2955 93.7358 67.4318C93.4328 66.5606 92.9706 65.8674 92.3494 65.3523C91.7282 64.8371 90.9555 64.5795 90.0312 64.5795C89.0843 64.5795 88.2964 64.8371 87.6676 65.3523C87.0464 65.8674 86.5805 66.5606 86.2699 67.4318C85.9669 68.2955 85.8153 69.2614 85.8153 70.3295C85.8153 71.3902 85.9669 72.3523 86.2699 73.2159C86.5805 74.0795 87.0464 74.7689 87.6676 75.2841C88.2964 75.7917 89.0843 76.0455 90.0312 76.0455ZM109.477 79.3409C107.735 79.3409 106.239 78.9583 104.989 78.1932C103.746 77.428 102.788 76.3712 102.114 75.0227C101.447 73.6667 101.114 72.1061 101.114 70.3409C101.114 68.5682 101.455 67.0038 102.136 65.6477C102.818 64.2841 103.78 63.2235 105.023 62.4659C106.273 61.7008 107.75 61.3182 109.455 61.3182C110.871 61.3182 112.125 61.5795 113.216 62.1023C114.314 62.6174 115.189 63.3485 115.841 64.2955C116.492 65.2348 116.864 66.3333 116.955 67.5909H113.023C112.864 66.75 112.485 66.0492 111.886 65.4886C111.295 64.9205 110.504 64.6364 109.511 64.6364C108.67 64.6364 107.932 64.8636 107.295 65.3182C106.659 65.7652 106.163 66.4091 105.807 67.25C105.458 68.0909 105.284 69.0985 105.284 70.2727C105.284 71.4621 105.458 72.4848 105.807 73.3409C106.155 74.1894 106.644 74.8447 107.273 75.3068C107.909 75.7614 108.655 75.9886 109.511 75.9886C110.117 75.9886 110.659 75.875 111.136 75.6477C111.621 75.4129 112.027 75.0758 112.352 74.6364C112.678 74.197 112.902 73.6629 113.023 73.0341H116.955C116.856 74.2689 116.492 75.3636 115.864 76.3182C115.235 77.2652 114.379 78.0076 113.295 78.5455C112.212 79.0758 110.939 79.3409 109.477 79.3409ZM125.355 79.3523C124.249 79.3523 123.253 79.1553 122.366 78.7614C121.488 78.3598 120.791 77.7689 120.276 76.9886C119.768 76.2083 119.514 75.2462 119.514 74.1023C119.514 73.1174 119.696 72.303 120.06 71.6591C120.423 71.0152 120.92 70.5 121.548 70.1136C122.177 69.7273 122.885 69.4356 123.673 69.2386C124.469 69.0341 125.291 68.8864 126.139 68.7955C127.162 68.6894 127.991 68.5947 128.628 68.5114C129.264 68.4205 129.726 68.2841 130.014 68.1023C130.31 67.9129 130.457 67.6212 130.457 67.2273V67.1591C130.457 66.303 130.204 65.6402 129.696 65.1705C129.188 64.7008 128.457 64.4659 127.503 64.4659C126.495 64.4659 125.696 64.6856 125.105 65.125C124.522 65.5644 124.128 66.0833 123.923 66.6818L120.082 66.1364C120.385 65.0758 120.885 64.1894 121.582 63.4773C122.279 62.7576 123.132 62.2197 124.139 61.8636C125.147 61.5 126.26 61.3182 127.48 61.3182C128.321 61.3182 129.158 61.4167 129.991 61.6136C130.825 61.8106 131.586 62.1364 132.276 62.5909C132.965 63.0379 133.518 63.6477 133.935 64.4205C134.359 65.1932 134.571 66.1591 134.571 67.3182V79H130.616V76.6023H130.48C130.23 77.0871 129.878 77.5417 129.423 77.9659C128.976 78.3826 128.412 78.7197 127.73 78.9773C127.056 79.2273 126.264 79.3523 125.355 79.3523ZM126.423 76.3295C127.249 76.3295 127.965 76.1667 128.571 75.8409C129.177 75.5076 129.643 75.0682 129.969 74.5227C130.302 73.9773 130.469 73.3826 130.469 72.7386V70.6818C130.34 70.7879 130.12 70.8864 129.81 70.9773C129.507 71.0682 129.166 71.1477 128.787 71.2159C128.408 71.2841 128.033 71.3447 127.662 71.3977C127.291 71.4508 126.969 71.4962 126.696 71.5341C126.082 71.6174 125.533 71.7538 125.048 71.9432C124.563 72.1326 124.181 72.3977 123.901 72.7386C123.62 73.072 123.48 73.5038 123.48 74.0341C123.48 74.7917 123.757 75.3636 124.31 75.75C124.863 76.1364 125.567 76.3295 126.423 76.3295ZM138.707 79V61.5455H142.696V64.4545H142.878C143.196 63.447 143.741 62.6705 144.514 62.125C145.295 61.572 146.185 61.2955 147.185 61.2955C147.412 61.2955 147.666 61.3068 147.946 61.3295C148.234 61.3447 148.473 61.3712 148.662 61.4091V65.1932C148.488 65.1326 148.211 65.0795 147.832 65.0341C147.461 64.9811 147.101 64.9545 146.753 64.9545C146.003 64.9545 145.329 65.1174 144.73 65.4432C144.139 65.7614 143.673 66.2045 143.332 66.7727C142.991 67.3409 142.821 67.9962 142.821 68.7386V79H138.707ZM151.577 79V55.7273H155.69V64.4318H155.861C156.073 64.0076 156.372 63.5568 156.759 63.0795C157.145 62.5947 157.668 62.1818 158.327 61.8409C158.986 61.4924 159.827 61.3182 160.849 61.3182C162.198 61.3182 163.414 61.6629 164.497 62.3523C165.588 63.0341 166.452 64.0455 167.088 65.3864C167.732 66.7197 168.054 68.3561 168.054 70.2955C168.054 72.2121 167.74 73.8409 167.111 75.1818C166.482 76.5227 165.626 77.5455 164.543 78.25C163.459 78.9545 162.232 79.3068 160.861 79.3068C159.861 79.3068 159.031 79.1402 158.372 78.8068C157.713 78.4735 157.183 78.072 156.781 77.6023C156.387 77.125 156.08 76.6742 155.861 76.25H155.622V79H151.577ZM155.611 70.2727C155.611 71.4015 155.77 72.3902 156.088 73.2386C156.414 74.0871 156.88 74.75 157.486 75.2273C158.099 75.697 158.842 75.9318 159.713 75.9318C160.622 75.9318 161.384 75.6894 161.997 75.2045C162.611 74.7121 163.073 74.0417 163.384 73.1932C163.702 72.3371 163.861 71.3636 163.861 70.2727C163.861 69.1894 163.705 68.2273 163.395 67.3864C163.084 66.5455 162.622 65.8864 162.009 65.4091C161.395 64.9318 160.63 64.6932 159.713 64.6932C158.834 64.6932 158.088 64.9242 157.474 65.3864C156.861 65.8485 156.395 66.4962 156.077 67.3295C155.766 68.1629 155.611 69.1439 155.611 70.2727ZM179.165 79.3409C177.46 79.3409 175.983 78.9659 174.733 78.2159C173.483 77.4659 172.513 76.4167 171.824 75.0682C171.142 73.7197 170.801 72.1439 170.801 70.3409C170.801 68.5379 171.142 66.9583 171.824 65.6023C172.513 64.2462 173.483 63.1932 174.733 62.4432C175.983 61.6932 177.46 61.3182 179.165 61.3182C180.869 61.3182 182.347 61.6932 183.597 62.4432C184.847 63.1932 185.813 64.2462 186.494 65.6023C187.184 66.9583 187.528 68.5379 187.528 70.3409C187.528 72.1439 187.184 73.7197 186.494 75.0682C185.813 76.4167 184.847 77.4659 183.597 78.2159C182.347 78.9659 180.869 79.3409 179.165 79.3409ZM179.188 76.0455C180.112 76.0455 180.884 75.7917 181.506 75.2841C182.127 74.7689 182.589 74.0795 182.892 73.2159C183.203 72.3523 183.358 71.3902 183.358 70.3295C183.358 69.2614 183.203 68.2955 182.892 67.4318C182.589 66.5606 182.127 65.8674 181.506 65.3523C180.884 64.8371 180.112 64.5795 179.188 64.5795C178.241 64.5795 177.453 64.8371 176.824 65.3523C176.203 65.8674 175.737 66.5606 175.426 67.4318C175.123 68.2955 174.972 69.2614 174.972 70.3295C174.972 71.3902 175.123 72.3523 175.426 73.2159C175.737 74.0795 176.203 74.7689 176.824 75.2841C177.453 75.7917 178.241 76.0455 179.188 76.0455ZM195.134 68.7727V79H191.02V61.5455H194.952V64.5114H195.156C195.558 63.5341 196.198 62.7576 197.077 62.1818C197.963 61.6061 199.058 61.3182 200.361 61.3182C201.565 61.3182 202.615 61.5758 203.509 62.0909C204.41 62.6061 205.107 63.3523 205.599 64.3295C206.099 65.3068 206.346 66.4924 206.338 67.8864V79H202.224V68.5227C202.224 67.3561 201.921 66.4432 201.315 65.7841C200.717 65.125 199.887 64.7955 198.827 64.7955C198.107 64.7955 197.467 64.9545 196.906 65.2727C196.353 65.5833 195.918 66.0341 195.599 66.625C195.289 67.2159 195.134 67.9318 195.134 68.7727ZM218.247 79.3409C216.497 79.3409 214.986 78.9773 213.713 78.25C212.448 77.5152 211.474 76.4773 210.793 75.1364C210.111 73.7879 209.77 72.2008 209.77 70.375C209.77 68.5795 210.111 67.0038 210.793 65.6477C211.482 64.2841 212.444 63.2235 213.679 62.4659C214.914 61.7008 216.365 61.3182 218.031 61.3182C219.107 61.3182 220.122 61.4924 221.077 61.8409C222.039 62.1818 222.887 62.7121 223.622 63.4318C224.365 64.1515 224.948 65.0682 225.372 66.1818C225.796 67.2879 226.009 68.6061 226.009 70.1364V71.3977H211.702V68.625H222.065C222.058 67.8371 221.887 67.1364 221.554 66.5227C221.221 65.9015 220.755 65.4129 220.156 65.0568C219.565 64.7008 218.876 64.5227 218.088 64.5227C217.247 64.5227 216.509 64.7273 215.872 65.1364C215.236 65.5379 214.74 66.0682 214.384 66.7273C214.035 67.3788 213.857 68.0947 213.849 68.875V71.2955C213.849 72.3106 214.035 73.1818 214.406 73.9091C214.777 74.6288 215.296 75.1818 215.963 75.5682C216.63 75.947 217.41 76.1364 218.304 76.1364C218.902 76.1364 219.444 76.053 219.929 75.8864C220.414 75.7121 220.834 75.4583 221.19 75.125C221.546 74.7917 221.815 74.3788 221.997 73.8864L225.838 74.3182C225.596 75.3333 225.134 76.2197 224.452 76.9773C223.777 77.7273 222.914 78.3106 221.861 78.7273C220.808 79.1364 219.603 79.3409 218.247 79.3409ZM238.205 61.5455V64.7273H228.17V61.5455H238.205ZM230.648 57.3636H234.761V73.75C234.761 74.303 234.845 74.7273 235.011 75.0227C235.186 75.3106 235.413 75.5076 235.693 75.6136C235.973 75.7197 236.284 75.7727 236.625 75.7727C236.883 75.7727 237.117 75.7538 237.33 75.7159C237.549 75.678 237.716 75.6439 237.83 75.6136L238.523 78.8295C238.303 78.9053 237.989 78.9886 237.58 79.0795C237.178 79.1705 236.686 79.2235 236.102 79.2386C235.072 79.2689 234.144 79.1136 233.318 78.7727C232.492 78.4242 231.837 77.8864 231.352 77.1591C230.875 76.4318 230.64 75.5227 230.648 74.4318V57.3636ZM249.071 79.3409C247.366 79.3409 245.889 78.9659 244.639 78.2159C243.389 77.4659 242.42 76.4167 241.73 75.0682C241.048 73.7197 240.707 72.1439 240.707 70.3409C240.707 68.5379 241.048 66.9583 241.73 65.6023C242.42 64.2462 243.389 63.1932 244.639 62.4432C245.889 61.6932 247.366 61.3182 249.071 61.3182C250.776 61.3182 252.253 61.6932 253.503 62.4432C254.753 63.1932 255.719 64.2462 256.401 65.6023C257.09 66.9583 257.435 68.5379 257.435 70.3409C257.435 72.1439 257.09 73.7197 256.401 75.0682C255.719 76.4167 254.753 77.4659 253.503 78.2159C252.253 78.9659 250.776 79.3409 249.071 79.3409ZM249.094 76.0455C250.018 76.0455 250.791 75.7917 251.412 75.2841C252.033 74.7689 252.495 74.0795 252.798 73.2159C253.109 72.3523 253.264 71.3902 253.264 70.3295C253.264 69.2614 253.109 68.2955 252.798 67.4318C252.495 66.5606 252.033 65.8674 251.412 65.3523C250.791 64.8371 250.018 64.5795 249.094 64.5795C248.147 64.5795 247.359 64.8371 246.73 65.3523C246.109 65.8674 245.643 66.5606 245.332 67.4318C245.029 68.2955 244.878 69.2614 244.878 70.3295C244.878 71.3902 245.029 72.3523 245.332 73.2159C245.643 74.0795 246.109 74.7689 246.73 75.2841C247.359 75.7917 248.147 76.0455 249.094 76.0455ZM274.722 66.1591L270.972 66.5682C270.866 66.1894 270.68 65.8333 270.415 65.5C270.157 65.1667 269.809 64.8977 269.369 64.6932C268.93 64.4886 268.392 64.3864 267.756 64.3864C266.9 64.3864 266.18 64.572 265.597 64.9432C265.021 65.3144 264.737 65.7955 264.744 66.3864C264.737 66.8939 264.922 67.3068 265.301 67.625C265.688 67.9432 266.324 68.2045 267.21 68.4091L270.188 69.0455C271.839 69.4015 273.066 69.9659 273.869 70.7386C274.68 71.5114 275.089 72.5227 275.097 73.7727C275.089 74.8712 274.767 75.8409 274.131 76.6818C273.502 77.5152 272.627 78.1667 271.506 78.6364C270.384 79.1061 269.097 79.3409 267.642 79.3409C265.506 79.3409 263.786 78.8939 262.483 78C261.18 77.0985 260.403 75.8447 260.153 74.2386L264.165 73.8523C264.347 74.6402 264.733 75.2348 265.324 75.6364C265.915 76.0379 266.684 76.2386 267.631 76.2386C268.608 76.2386 269.392 76.0379 269.983 75.6364C270.581 75.2348 270.881 74.7386 270.881 74.1477C270.881 73.6477 270.688 73.2348 270.301 72.9091C269.922 72.5833 269.331 72.3333 268.528 72.1591L265.551 71.5341C263.877 71.1856 262.638 70.5985 261.835 69.7727C261.032 68.9394 260.634 67.8864 260.642 66.6136C260.634 65.5379 260.926 64.6061 261.517 63.8182C262.116 63.0227 262.945 62.4091 264.006 61.9773C265.074 61.5379 266.305 61.3182 267.699 61.3182C269.744 61.3182 271.354 61.7538 272.528 62.625C273.71 63.4962 274.441 64.6742 274.722 66.1591Z" fill="#343A40"/>
<path fill-rule="evenodd" clip-rule="evenodd" d="M21.8333 129.667C19.5321 129.667 17.6667 131.532 17.6667 133.833V142.167C17.6667 144.468 19.5321 146.333 21.8333 146.333H30.1667C32.4678 146.333 34.3333 144.468 34.3333 142.167V133.833C34.3333 131.532 32.4678 129.667 30.1667 129.667H21.8333ZM27.1208 134.222C26.6622 133.293 25.3374 133.293 24.8789 134.222L24.2219 135.553L22.7528 135.766C21.7275 135.915 21.3181 137.175 22.06 137.899L23.1231 138.935L22.8721 140.398C22.697 141.419 23.7688 142.198 24.6858 141.716L25.9998 141.025L27.3139 141.716C28.2309 142.198 29.3027 141.419 29.1276 140.398L28.8766 138.935L29.9397 137.899C30.6816 137.175 30.2722 135.915 29.2469 135.766L27.7778 135.553L27.1208 134.222Z" fill="#1A4238"/>
<path d="M43.3345 142.138C42.7498 142.138 42.2479 141.991 41.8288 141.695C41.4122 141.396 41.0914 140.967 40.8665 140.406C40.6439 139.842 40.5327 139.164 40.5327 138.371C40.535 137.578 40.6475 136.903 40.87 136.347C41.0949 135.788 41.4157 135.362 41.8324 135.068C42.2514 134.775 42.7521 134.628 43.3345 134.628C43.9169 134.628 44.4176 134.775 44.8366 135.068C45.2557 135.362 45.5765 135.788 45.799 136.347C46.0239 136.905 46.1364 137.58 46.1364 138.371C46.1364 139.166 46.0239 139.846 45.799 140.409C45.5765 140.97 45.2557 141.399 44.8366 141.695C44.42 141.991 43.9193 142.138 43.3345 142.138ZM43.3345 141.027C43.7891 141.027 44.1477 140.803 44.4105 140.356C44.6757 139.906 44.8082 139.244 44.8082 138.371C44.8082 137.793 44.7479 137.308 44.6271 136.915C44.5064 136.522 44.3359 136.226 44.1158 136.027C43.8956 135.826 43.6352 135.725 43.3345 135.725C42.8823 135.725 42.5249 135.95 42.2621 136.4C41.9993 136.847 41.8667 137.504 41.8643 138.371C41.862 138.951 41.92 139.438 42.0384 139.834C42.1591 140.229 42.3295 140.527 42.5497 140.729C42.7699 140.928 43.0315 141.027 43.3345 141.027ZM52.7797 134.386L50.4359 143.094H49.3102L51.6539 134.386H52.7797ZM58.5946 142.099C58.1212 142.099 57.6974 142.011 57.3233 141.833C56.9493 141.653 56.6522 141.407 56.432 141.094C56.2142 140.782 56.0982 140.424 56.084 140.022H57.3624C57.3861 140.32 57.5151 140.564 57.7495 140.754C57.9838 140.941 58.2656 141.034 58.5946 141.034C58.8527 141.034 59.0823 140.975 59.2836 140.857C59.4848 140.738 59.6434 140.574 59.7594 140.363C59.8754 140.152 59.9322 139.912 59.9299 139.642C59.9322 139.367 59.8742 139.124 59.7559 138.911C59.6375 138.697 59.4753 138.531 59.2694 138.41C59.0634 138.287 58.8266 138.225 58.5591 138.225C58.3413 138.223 58.1271 138.263 57.9164 138.346C57.7057 138.429 57.5388 138.538 57.4157 138.673L56.226 138.477L56.606 134.727H60.8248V135.828H57.6962L57.4867 137.756H57.5293C57.6642 137.598 57.8548 137.466 58.101 137.362C58.3472 137.256 58.6171 137.202 58.9107 137.202C59.351 137.202 59.744 137.307 60.0897 137.515C60.4353 137.721 60.7076 138.005 60.9064 138.367C61.1053 138.729 61.2047 139.144 61.2047 139.61C61.2047 140.091 61.0935 140.519 60.8709 140.896C60.6507 141.27 60.3442 141.564 59.9512 141.78C59.5605 141.993 59.1084 142.099 58.5946 142.099ZM65.3525 134.727V142H64.035V136.009H63.9924L62.2914 137.096V135.888L64.0989 134.727H65.3525Z" fill="black" fill-opacity="0.45"/>
<rect x="308" y="116" width="44" height="44" rx="15" fill="#1A4238"/>
<path fill-rule="evenodd" clip-rule="evenodd" d="M331.293 130.293C331.683 129.902 332.317 129.902 332.707 130.293L339.707 137.293C340.098 137.683 340.098 138.317 339.707 138.707L332.707 145.707C332.317 146.098 331.683 146.098 331.293 145.707C330.902 145.317 330.902 144.683 331.293 144.293L336.586 139H321C320.448 139 320 138.552 320 138C320 137.448 320.448 137 321 137H336.586L331.293 131.707C330.902 131.317 330.902 130.683 331.293 130.293Z" fill="#8AD1BF"/>
</svg>
