<svg width="368" height="176" viewBox="0 0 368 176" fill="none" xmlns="http://www.w3.org/2000/svg">
<rect width="368" height="176" rx="32" fill="#EFD0B4"/>
<path d="M19.402 42L20.5952 34.7273H21.5895L20.3963 42H19.402ZM16.1243 40.125L16.2912 39.1307H21.8878L21.7209 40.125H16.1243ZM16.8452 42L18.0384 34.7273H19.0327L17.8395 42H16.8452ZM16.5469 37.5966L16.7102 36.6023H22.3068L22.1435 37.5966H16.5469ZM23.0961 44.0455V36.5455H24.3603V37.4474H24.4348C24.5011 37.3149 24.5946 37.174 24.7154 37.0249C24.8361 36.8733 24.9995 36.7443 25.2054 36.6378C25.4114 36.5289 25.6742 36.4744 25.9938 36.4744C26.4152 36.4744 26.7952 36.5821 27.1337 36.7976C27.4746 37.0107 27.7445 37.3267 27.9434 37.7457C28.1446 38.1624 28.2452 38.6738 28.2452 39.2798C28.2452 39.8788 28.147 40.3878 27.9505 40.8068C27.754 41.2259 27.4864 41.5455 27.1479 41.7656C26.8094 41.9858 26.4258 42.0959 25.9973 42.0959C25.6848 42.0959 25.4256 42.0438 25.2196 41.9396C25.0137 41.8355 24.848 41.71 24.7225 41.5632C24.5994 41.4141 24.5035 41.2732 24.4348 41.1406H24.3816V44.0455H23.0961ZM24.3567 39.2727C24.3567 39.6255 24.4064 39.9344 24.5059 40.1996C24.6077 40.4647 24.7533 40.6719 24.9426 40.821C25.1344 40.9678 25.3664 41.0412 25.6387 41.0412C25.9228 41.0412 26.1607 40.9654 26.3525 40.8139C26.5442 40.66 26.6886 40.4505 26.7857 40.1854C26.8851 39.9179 26.9348 39.6136 26.9348 39.2727C26.9348 38.9342 26.8863 38.6335 26.7892 38.3707C26.6922 38.108 26.5478 37.902 26.356 37.7528C26.1642 37.6037 25.9251 37.5291 25.6387 37.5291C25.3641 37.5291 25.1309 37.6013 24.9391 37.7457C24.7473 37.8902 24.6017 38.0926 24.5023 38.353C24.4052 38.6134 24.3567 38.92 24.3567 39.2727ZM29.3461 42V36.5455H30.5925V37.4545H30.6493C30.7488 37.1397 30.9192 36.897 31.1607 36.7266C31.4045 36.5537 31.6827 36.4673 31.9952 36.4673C32.0662 36.4673 32.1455 36.4709 32.2331 36.478C32.3231 36.4827 32.3977 36.491 32.4569 36.5028V37.6854C32.4024 37.6664 32.316 37.6499 32.1976 37.6357C32.0816 37.6191 31.9692 37.6108 31.8603 37.6108C31.6259 37.6108 31.4152 37.6617 31.2282 37.7635C31.0435 37.8629 30.8979 38.0014 30.7914 38.179C30.6848 38.3565 30.6316 38.5613 30.6316 38.7933V42H29.3461ZM35.4656 42.1065C34.9329 42.1065 34.4712 41.9893 34.0806 41.755C33.69 41.5206 33.387 41.1927 33.1715 40.7713C32.9585 40.3499 32.8519 39.8575 32.8519 39.294C32.8519 38.7306 32.9585 38.237 33.1715 37.8132C33.387 37.3894 33.69 37.0604 34.0806 36.826C34.4712 36.5916 34.9329 36.4744 35.4656 36.4744C35.9982 36.4744 36.4599 36.5916 36.8505 36.826C37.2411 37.0604 37.543 37.3894 37.756 37.8132C37.9715 38.237 38.0792 38.7306 38.0792 39.294C38.0792 39.8575 37.9715 40.3499 37.756 40.7713C37.543 41.1927 37.2411 41.5206 36.8505 41.755C36.4599 41.9893 35.9982 42.1065 35.4656 42.1065ZM35.4727 41.0767C35.7615 41.0767 36.003 40.9974 36.1971 40.8388C36.3912 40.6778 36.5356 40.4624 36.6303 40.1925C36.7274 39.9226 36.7759 39.6219 36.7759 39.2905C36.7759 38.9567 36.7274 38.6548 36.6303 38.3849C36.5356 38.1127 36.3912 37.8961 36.1971 37.7351C36.003 37.5741 35.7615 37.4936 35.4727 37.4936C35.1767 37.4936 34.9305 37.5741 34.734 37.7351C34.5399 37.8961 34.3943 38.1127 34.2972 38.3849C34.2025 38.6548 34.1552 38.9567 34.1552 39.2905C34.1552 39.6219 34.2025 39.9226 34.2972 40.1925C34.3943 40.4624 34.5399 40.6778 34.734 40.8388C34.9305 40.9974 35.1767 41.0767 35.4727 41.0767ZM41.5424 44.1591C41.0808 44.1591 40.6842 44.0964 40.3528 43.9709C40.0214 43.8478 39.755 43.6821 39.5538 43.4737C39.3526 43.2654 39.2129 43.0346 39.1348 42.7812L40.2924 42.5007C40.3445 42.6072 40.4203 42.7126 40.5197 42.8168C40.6191 42.9233 40.7529 43.0109 40.921 43.0795C41.0914 43.1506 41.3057 43.1861 41.5637 43.1861C41.9283 43.1861 42.2302 43.0973 42.4693 42.9197C42.7084 42.7446 42.8279 42.4557 42.8279 42.0533V41.0199H42.764C42.6977 41.1525 42.6007 41.2886 42.4728 41.4283C42.3474 41.5679 42.1805 41.6851 41.9721 41.7798C41.7662 41.8745 41.5069 41.9219 41.1944 41.9219C40.7754 41.9219 40.3954 41.8236 40.0545 41.6271C39.716 41.4283 39.4461 41.1323 39.2449 40.7393C39.046 40.344 38.9466 39.8492 38.9466 39.255C38.9466 38.656 39.046 38.1506 39.2449 37.7386C39.4461 37.3243 39.7172 37.0107 40.0581 36.7976C40.399 36.5821 40.7789 36.4744 41.198 36.4744C41.5176 36.4744 41.7804 36.5289 41.9863 36.6378C42.1947 36.7443 42.3604 36.8733 42.4835 37.0249C42.6066 37.174 42.7001 37.3149 42.764 37.4474H42.835V36.5455H44.1028V42.0888C44.1028 42.5552 43.9915 42.9411 43.769 43.2464C43.5465 43.5518 43.2422 43.7803 42.8564 43.9318C42.4705 44.0833 42.0325 44.1591 41.5424 44.1591ZM41.5531 40.9134C41.8253 40.9134 42.0574 40.8471 42.2491 40.7145C42.4409 40.5819 42.5865 40.3913 42.6859 40.1428C42.7853 39.8942 42.835 39.5959 42.835 39.2479C42.835 38.9046 42.7853 38.6039 42.6859 38.3459C42.5888 38.0878 42.4444 37.8878 42.2527 37.7457C42.0633 37.6013 41.8301 37.5291 41.5531 37.5291C41.2666 37.5291 41.0275 37.6037 40.8358 37.7528C40.644 37.902 40.4996 38.1068 40.4025 38.3672C40.3055 38.6252 40.2569 38.9188 40.2569 39.2479C40.2569 39.5817 40.3055 39.8741 40.4025 40.125C40.502 40.3736 40.6475 40.5677 40.8393 40.7074C41.0334 40.8447 41.2714 40.9134 41.5531 40.9134ZM45.4203 42V36.5455H46.6667V37.4545H46.7235C46.823 37.1397 46.9934 36.897 47.2349 36.7266C47.4788 36.5537 47.7569 36.4673 48.0694 36.4673C48.1404 36.4673 48.2198 36.4709 48.3074 36.478C48.3973 36.4827 48.4719 36.491 48.5311 36.5028V37.6854C48.4766 37.6664 48.3902 37.6499 48.2718 37.6357C48.1558 37.6191 48.0434 37.6108 47.9345 37.6108C47.7001 37.6108 47.4894 37.6617 47.3024 37.7635C47.1177 37.8629 46.9721 38.0014 46.8656 38.179C46.7591 38.3565 46.7058 38.5613 46.7058 38.7933V42H45.4203ZM50.8571 42.1101C50.5114 42.1101 50.2001 42.0485 49.9231 41.9254C49.6485 41.8 49.4307 41.6153 49.2697 41.3714C49.1111 41.1276 49.0318 40.8269 49.0318 40.4695C49.0318 40.1617 49.0886 39.9072 49.2022 39.706C49.3159 39.5047 49.4709 39.3438 49.6674 39.223C49.8639 39.1023 50.0853 39.0111 50.3315 38.9496C50.5801 38.8857 50.8369 38.8395 51.1021 38.8111C51.4217 38.7779 51.6809 38.7483 51.8798 38.7223C52.0787 38.6939 52.2231 38.6513 52.313 38.5945C52.4054 38.5353 52.4515 38.4441 52.4515 38.321V38.2997C52.4515 38.0322 52.3722 37.825 52.2136 37.6783C52.055 37.5315 51.8265 37.4581 51.5282 37.4581C51.2134 37.4581 50.9636 37.5268 50.7789 37.6641C50.5967 37.8014 50.4735 37.9635 50.4096 38.1506L49.2093 37.9801C49.304 37.6487 49.4603 37.3717 49.6781 37.1491C49.8959 36.9242 50.1622 36.7562 50.4771 36.6449C50.792 36.5312 51.14 36.4744 51.5211 36.4744C51.7839 36.4744 52.0455 36.5052 52.3059 36.5668C52.5663 36.6283 52.8043 36.7301 53.0197 36.8722C53.2351 37.0118 53.408 37.2024 53.5382 37.4439C53.6708 37.6854 53.737 37.9872 53.737 38.3494V42H52.5012V41.2507H52.4586C52.3805 41.4022 52.2704 41.5443 52.1284 41.6768C51.9887 41.8071 51.8123 41.9124 51.5993 41.9929C51.3886 42.071 51.1412 42.1101 50.8571 42.1101ZM51.1909 41.1655C51.4489 41.1655 51.6726 41.1146 51.862 41.0128C52.0514 40.9086 52.197 40.7713 52.2988 40.6009C52.403 40.4304 52.4551 40.2446 52.4551 40.0433V39.4006C52.4148 39.4337 52.3462 39.4645 52.2491 39.4929C52.1544 39.5213 52.0479 39.5462 51.9295 39.5675C51.8111 39.5888 51.694 39.6077 51.5779 39.6243C51.4619 39.6409 51.3613 39.6551 51.2761 39.6669C51.0843 39.6929 50.9127 39.7356 50.7612 39.7947C50.6097 39.8539 50.4901 39.9368 50.4025 40.0433C50.3149 40.1475 50.2711 40.2824 50.2711 40.4482C50.2711 40.6849 50.3575 40.8636 50.5304 40.9844C50.7032 41.1051 50.9234 41.1655 51.1909 41.1655ZM55.0297 42V36.5455H56.2583V37.4723H56.3223C56.4359 37.1598 56.6241 36.916 56.8869 36.7408C57.1497 36.5632 57.4634 36.4744 57.8279 36.4744C58.1973 36.4744 58.5086 36.5644 58.7619 36.7443C59.0176 36.9219 59.1975 37.1645 59.3017 37.4723H59.3585C59.4792 37.1693 59.6828 36.9278 59.9693 36.7479C60.2581 36.5656 60.6002 36.4744 60.9956 36.4744C61.4975 36.4744 61.907 36.633 62.2243 36.9503C62.5415 37.2675 62.7001 37.7304 62.7001 38.3388V42H61.411V38.5376C61.411 38.1991 61.3211 37.9517 61.1412 37.7955C60.9612 37.6368 60.7411 37.5575 60.4806 37.5575C60.1705 37.5575 59.9279 37.6546 59.7527 37.8487C59.5798 38.0405 59.4934 38.2902 59.4934 38.598V42H58.2328V38.4844C58.2328 38.2027 58.1475 37.9777 57.9771 37.8097C57.809 37.6416 57.5888 37.5575 57.3166 37.5575C57.1319 37.5575 56.9638 37.6049 56.8123 37.6996C56.6608 37.7919 56.5401 37.9233 56.4501 38.0938C56.3601 38.2618 56.3152 38.4583 56.3152 38.6832V42H55.0297ZM65.5739 42.1101C65.2282 42.1101 64.9169 42.0485 64.6399 41.9254C64.3653 41.8 64.1475 41.6153 63.9865 41.3714C63.8279 41.1276 63.7486 40.8269 63.7486 40.4695C63.7486 40.1617 63.8054 39.9072 63.919 39.706C64.0327 39.5047 64.1877 39.3438 64.3842 39.223C64.5807 39.1023 64.8021 39.0111 65.0483 38.9496C65.2969 38.8857 65.5537 38.8395 65.8189 38.8111C66.1385 38.7779 66.3977 38.7483 66.5966 38.7223C66.7955 38.6939 66.9399 38.6513 67.0298 38.5945C67.1222 38.5353 67.1683 38.4441 67.1683 38.321V38.2997C67.1683 38.0322 67.089 37.825 66.9304 37.6783C66.7718 37.5315 66.5433 37.4581 66.245 37.4581C65.9302 37.4581 65.6804 37.5268 65.4957 37.6641C65.3134 37.8014 65.1903 37.9635 65.1264 38.1506L63.9261 37.9801C64.0208 37.6487 64.1771 37.3717 64.3949 37.1491C64.6127 36.9242 64.879 36.7562 65.1939 36.6449C65.5088 36.5312 65.8568 36.4744 66.2379 36.4744C66.5007 36.4744 66.7623 36.5052 67.0227 36.5668C67.2831 36.6283 67.5211 36.7301 67.7365 36.8722C67.9519 37.0118 68.1248 37.2024 68.255 37.4439C68.3875 37.6854 68.4538 37.9872 68.4538 38.3494V42H67.218V41.2507H67.1754C67.0973 41.4022 66.9872 41.5443 66.8452 41.6768C66.7055 41.8071 66.5291 41.9124 66.3161 41.9929C66.1054 42.071 65.858 42.1101 65.5739 42.1101ZM65.9077 41.1655C66.1657 41.1655 66.3894 41.1146 66.5788 41.0128C66.7682 40.9086 66.9138 40.7713 67.0156 40.6009C67.1198 40.4304 67.1719 40.2446 67.1719 40.0433V39.4006C67.1316 39.4337 67.063 39.4645 66.9659 39.4929C66.8712 39.5213 66.7647 39.5462 66.6463 39.5675C66.5279 39.5888 66.4107 39.6077 66.2947 39.6243C66.1787 39.6409 66.0781 39.6551 65.9929 39.6669C65.8011 39.6929 65.6295 39.7356 65.478 39.7947C65.3265 39.8539 65.2069 39.9368 65.1193 40.0433C65.0317 40.1475 64.9879 40.2824 64.9879 40.4482C64.9879 40.6849 65.0743 40.8636 65.2472 40.9844C65.42 41.1051 65.6402 41.1655 65.9077 41.1655ZM72.1257 42.1065C71.5812 42.1065 71.1136 41.987 70.723 41.7479C70.3348 41.5088 70.0353 41.1785 69.8246 40.7571C69.6162 40.3333 69.5121 39.8456 69.5121 39.294C69.5121 38.7401 69.6186 38.2512 69.8317 37.8274C70.0447 37.4013 70.3454 37.0698 70.7337 36.8331C71.1243 36.594 71.5859 36.4744 72.1186 36.4744C72.5613 36.4744 72.9531 36.5561 73.294 36.7195C73.6373 36.8804 73.9107 37.1089 74.1143 37.4048C74.3179 37.6984 74.4339 38.0417 74.4624 38.4347H73.2337C73.1839 38.1719 73.0656 37.9529 72.8786 37.7777C72.6939 37.6001 72.4465 37.5114 72.1364 37.5114C71.8736 37.5114 71.6428 37.5824 71.4439 37.7244C71.245 37.8641 71.09 38.0653 70.9787 38.3281C70.8698 38.5909 70.8153 38.9058 70.8153 39.2727C70.8153 39.6444 70.8698 39.964 70.9787 40.2315C71.0876 40.4967 71.2403 40.7015 71.4368 40.8459C71.6357 40.9879 71.8688 41.0589 72.1364 41.0589C72.3258 41.0589 72.495 41.0234 72.6442 40.9524C72.7957 40.879 72.9223 40.7737 73.0241 40.6364C73.1259 40.4991 73.1958 40.3321 73.2337 40.1357H74.4624C74.4316 40.5215 74.3179 40.8636 74.1214 41.1619C73.925 41.4579 73.6574 41.6899 73.3189 41.858C72.9804 42.0237 72.5826 42.1065 72.1257 42.1065ZM71.7564 41.9716H72.4524L72.3956 42.2734C72.6181 42.3066 72.8063 42.3918 72.9602 42.5291C73.1165 42.6688 73.1946 42.8688 73.1946 43.1293C73.197 43.4654 73.0466 43.7353 72.7436 43.9389C72.4406 44.1425 72.0085 44.2443 71.4474 44.2443L71.4332 43.6122C71.7055 43.6122 71.9221 43.5755 72.0831 43.5021C72.2441 43.4311 72.3258 43.3175 72.3281 43.1612C72.3329 43.0097 72.276 42.8984 72.1577 42.8274C72.0417 42.7588 71.857 42.7114 71.6037 42.6854L71.7564 41.9716ZM77.0875 42.1101C76.7419 42.1101 76.4306 42.0485 76.1536 41.9254C75.879 41.8 75.6612 41.6153 75.5002 41.3714C75.3416 41.1276 75.2623 40.8269 75.2623 40.4695C75.2623 40.1617 75.3191 39.9072 75.4327 39.706C75.5463 39.5047 75.7014 39.3438 75.8979 39.223C76.0944 39.1023 76.3158 39.0111 76.562 38.9496C76.8105 38.8857 77.0674 38.8395 77.3326 38.8111C77.6522 38.7779 77.9114 38.7483 78.1103 38.7223C78.3091 38.6939 78.4535 38.6513 78.5435 38.5945C78.6358 38.5353 78.682 38.4441 78.682 38.321V38.2997C78.682 38.0322 78.6027 37.825 78.4441 37.6783C78.2855 37.5315 78.057 37.4581 77.7587 37.4581C77.4438 37.4581 77.1941 37.5268 77.0094 37.6641C76.8271 37.8014 76.704 37.9635 76.6401 38.1506L75.4398 37.9801C75.5345 37.6487 75.6908 37.3717 75.9086 37.1491C76.1264 36.9242 76.3927 36.7562 76.7076 36.6449C77.0224 36.5312 77.3704 36.4744 77.7516 36.4744C78.0144 36.4744 78.276 36.5052 78.5364 36.5668C78.7968 36.6283 79.0347 36.7301 79.2502 36.8722C79.4656 37.0118 79.6384 37.2024 79.7686 37.4439C79.9012 37.6854 79.9675 37.9872 79.9675 38.3494V42H78.7317V41.2507H78.6891C78.611 41.4022 78.5009 41.5443 78.3588 41.6768C78.2192 41.8071 78.0428 41.9124 77.8297 41.9929C77.619 42.071 77.3716 42.1101 77.0875 42.1101ZM77.4213 41.1655C77.6794 41.1655 77.9031 41.1146 78.0925 41.0128C78.2819 40.9086 78.4275 40.7713 78.5293 40.6009C78.6335 40.4304 78.6855 40.2446 78.6855 40.0433V39.4006C78.6453 39.4337 78.5766 39.4645 78.4796 39.4929C78.3849 39.5213 78.2783 39.5462 78.16 39.5675C78.0416 39.5888 77.9244 39.6077 77.8084 39.6243C77.6924 39.6409 77.5918 39.6551 77.5066 39.6669C77.3148 39.6929 77.1432 39.7356 76.9917 39.7947C76.8401 39.8539 76.7206 39.9368 76.633 40.0433C76.5454 40.1475 76.5016 40.2824 76.5016 40.4482C76.5016 40.6849 76.588 40.8636 76.7608 40.9844C76.9337 41.1051 77.1538 41.1655 77.4213 41.1655ZM76.7644 35.8814L75.9867 35.8636C75.9867 35.4422 76.0956 35.112 76.3134 34.8729C76.5312 34.6338 76.7999 34.5142 77.1195 34.5142C77.2734 34.5142 77.4071 34.5402 77.5208 34.5923C77.6344 34.642 77.7386 34.7 77.8333 34.7663C77.9303 34.8326 78.025 34.8918 78.1174 34.9439C78.2097 34.9936 78.3115 35.0185 78.4228 35.0185C78.5577 35.0185 78.6642 34.9676 78.7424 34.8658C78.8229 34.764 78.8643 34.6338 78.8667 34.4751L79.6301 34.5071C79.6278 34.9309 79.5177 35.2599 79.2999 35.4943C79.0821 35.7263 78.8146 35.8435 78.4973 35.8459C78.3269 35.8482 78.1837 35.8234 78.0676 35.7713C77.9516 35.7192 77.8498 35.66 77.7623 35.5938C77.677 35.5275 77.5906 35.4695 77.503 35.4197C77.4154 35.3677 77.3124 35.3416 77.1941 35.3416C77.0686 35.3416 76.9656 35.3913 76.8851 35.4908C76.8046 35.5902 76.7644 35.7204 76.7644 35.8814ZM83.6394 42.1065C83.1067 42.1065 82.6451 41.9893 82.2544 41.755C81.8638 41.5206 81.5608 41.1927 81.3453 40.7713C81.1323 40.3499 81.0257 39.8575 81.0257 39.294C81.0257 38.7306 81.1323 38.237 81.3453 37.8132C81.5608 37.3894 81.8638 37.0604 82.2544 36.826C82.6451 36.5916 83.1067 36.4744 83.6394 36.4744C84.1721 36.4744 84.6337 36.5916 85.0243 36.826C85.415 37.0604 85.7168 37.3894 85.9299 37.8132C86.1453 38.237 86.253 38.7306 86.253 39.294C86.253 39.8575 86.1453 40.3499 85.9299 40.7713C85.7168 41.1927 85.415 41.5206 85.0243 41.755C84.6337 41.9893 84.1721 42.1065 83.6394 42.1065ZM83.6465 41.0767C83.9353 41.0767 84.1768 40.9974 84.3709 40.8388C84.565 40.6778 84.7095 40.4624 84.8042 40.1925C84.9012 39.9226 84.9498 39.6219 84.9498 39.2905C84.9498 38.9567 84.9012 38.6548 84.8042 38.3849C84.7095 38.1127 84.565 37.8961 84.3709 37.7351C84.1768 37.5741 83.9353 37.4936 83.6465 37.4936C83.3506 37.4936 83.1043 37.5741 82.9078 37.7351C82.7137 37.8961 82.5681 38.1127 82.4711 38.3849C82.3764 38.6548 82.329 38.9567 82.329 39.2905C82.329 39.6219 82.3764 39.9226 82.4711 40.1925C82.5681 40.4624 82.7137 40.6778 82.9078 40.8388C83.1043 40.9974 83.3506 41.0767 83.6465 41.0767Z" fill="black" fill-opacity="0.45"/>
<path d="M37.4205 55.7273V79H33.6705L22.7045 63.1477H22.5114V79H18.2955V55.7273H22.0682L33.0227 71.5909H33.2273V55.7273H37.4205ZM49.446 79.3409C47.7415 79.3409 46.2642 78.9659 45.0142 78.2159C43.7642 77.4659 42.7945 76.4167 42.1051 75.0682C41.4233 73.7197 41.0824 72.1439 41.0824 70.3409C41.0824 68.5379 41.4233 66.9583 42.1051 65.6023C42.7945 64.2462 43.7642 63.1932 45.0142 62.4432C46.2642 61.6932 47.7415 61.3182 49.446 61.3182C51.1506 61.3182 52.6278 61.6932 53.8778 62.4432C55.1278 63.1932 56.0938 64.2462 56.7756 65.6023C57.465 66.9583 57.8097 68.5379 57.8097 70.3409C57.8097 72.1439 57.465 73.7197 56.7756 75.0682C56.0938 76.4167 55.1278 77.4659 53.8778 78.2159C52.6278 78.9659 51.1506 79.3409 49.446 79.3409ZM49.4688 76.0455C50.393 76.0455 51.1657 75.7917 51.7869 75.2841C52.4081 74.7689 52.8703 74.0795 53.1733 73.2159C53.4839 72.3523 53.6392 71.3902 53.6392 70.3295C53.6392 69.2614 53.4839 68.2955 53.1733 67.4318C52.8703 66.5606 52.4081 65.8674 51.7869 65.3523C51.1657 64.8371 50.393 64.5795 49.4688 64.5795C48.5218 64.5795 47.7339 64.8371 47.1051 65.3523C46.4839 65.8674 46.018 66.5606 45.7074 67.4318C45.4044 68.2955 45.2528 69.2614 45.2528 70.3295C45.2528 71.3902 45.4044 72.3523 45.7074 73.2159C46.018 74.0795 46.4839 74.7689 47.1051 75.2841C47.7339 75.7917 48.5218 76.0455 49.4688 76.0455ZM67.7784 79.3068C66.4072 79.3068 65.1799 78.9545 64.0966 78.25C63.0133 77.5455 62.1572 76.5227 61.5284 75.1818C60.8996 73.8409 60.5852 72.2121 60.5852 70.2955C60.5852 68.3561 60.9034 66.7197 61.5398 65.3864C62.1837 64.0455 63.0511 63.0341 64.142 62.3523C65.233 61.6629 66.4489 61.3182 67.7898 61.3182C68.8125 61.3182 69.6534 61.4924 70.3125 61.8409C70.9716 62.1818 71.4943 62.5947 71.8807 63.0795C72.267 63.5568 72.5663 64.0076 72.7784 64.4318H72.9489V55.7273H77.0739V79H73.0284V76.25H72.7784C72.5663 76.6742 72.2595 77.125 71.858 77.6023C71.4564 78.072 70.9261 78.4735 70.267 78.8068C69.608 79.1402 68.7784 79.3068 67.7784 79.3068ZM68.9261 75.9318C69.7973 75.9318 70.5398 75.697 71.1534 75.2273C71.767 74.75 72.233 74.0871 72.5511 73.2386C72.8693 72.3902 73.0284 71.4015 73.0284 70.2727C73.0284 69.1439 72.8693 68.1629 72.5511 67.3295C72.2405 66.4962 71.7784 65.8485 71.1648 65.3864C70.5587 64.9242 69.8125 64.6932 68.9261 64.6932C68.0095 64.6932 67.2443 64.9318 66.6307 65.4091C66.017 65.8864 65.5549 66.5455 65.2443 67.3864C64.9337 68.2273 64.7784 69.1894 64.7784 70.2727C64.7784 71.3636 64.9337 72.3371 65.2443 73.1932C65.5625 74.0417 66.0284 74.7121 66.642 75.2045C67.2633 75.6894 68.0246 75.9318 68.9261 75.9318ZM89.1847 79.3409C87.4347 79.3409 85.9233 78.9773 84.6506 78.25C83.3854 77.5152 82.4119 76.4773 81.7301 75.1364C81.0483 73.7879 80.7074 72.2008 80.7074 70.375C80.7074 68.5795 81.0483 67.0038 81.7301 65.6477C82.4195 64.2841 83.3816 63.2235 84.6165 62.4659C85.8513 61.7008 87.3021 61.3182 88.9688 61.3182C90.0445 61.3182 91.0597 61.4924 92.0142 61.8409C92.9763 62.1818 93.8248 62.7121 94.5597 63.4318C95.3021 64.1515 95.8854 65.0682 96.3097 66.1818C96.7339 67.2879 96.946 68.6061 96.946 70.1364V71.3977H82.6392V68.625H93.0028C92.9953 67.8371 92.8248 67.1364 92.4915 66.5227C92.1581 65.9015 91.6922 65.4129 91.0938 65.0568C90.5028 64.7008 89.8134 64.5227 89.0256 64.5227C88.1847 64.5227 87.446 64.7273 86.8097 65.1364C86.1733 65.5379 85.6771 66.0682 85.321 66.7273C84.9725 67.3788 84.7945 68.0947 84.7869 68.875V71.2955C84.7869 72.3106 84.9725 73.1818 85.3438 73.9091C85.715 74.6288 86.2339 75.1818 86.9006 75.5682C87.5672 75.947 88.3475 76.1364 89.2415 76.1364C89.84 76.1364 90.3816 76.053 90.8665 75.8864C91.3513 75.7121 91.7718 75.4583 92.1278 75.125C92.4839 74.7917 92.7528 74.3788 92.9347 73.8864L96.7756 74.3182C96.5331 75.3333 96.071 76.2197 95.3892 76.9773C94.715 77.7273 93.8513 78.3106 92.7983 78.7273C91.7453 79.1364 90.5407 79.3409 89.1847 79.3409Z" fill="#343A40"/>
<path fill-rule="evenodd" clip-rule="evenodd" d="M21.8333 129.667C19.5321 129.667 17.6667 131.532 17.6667 133.833V142.167C17.6667 144.468 19.5321 146.333 21.8333 146.333H30.1667C32.4678 146.333 34.3333 144.468 34.3333 142.167V133.833C34.3333 131.532 32.4678 129.667 30.1667 129.667H21.8333ZM27.1208 134.222C26.6622 133.293 25.3374 133.293 24.8789 134.222L24.2219 135.553L22.7528 135.766C21.7275 135.915 21.3181 137.175 22.06 137.899L23.1231 138.935L22.8721 140.398C22.697 141.419 23.7688 142.198 24.6858 141.716L25.9998 141.025L27.3139 141.716C28.2309 142.198 29.3027 141.419 29.1276 140.398L28.8766 138.935L29.9397 137.899C30.6816 137.175 30.2722 135.915 29.2469 135.766L27.7778 135.553L27.1208 134.222Z" fill="#B06826"/>
<path d="M43.3345 142.138C42.7498 142.138 42.2479 141.991 41.8288 141.695C41.4122 141.396 41.0914 140.967 40.8665 140.406C40.6439 139.842 40.5327 139.164 40.5327 138.371C40.535 137.578 40.6475 136.903 40.87 136.347C41.0949 135.788 41.4157 135.362 41.8324 135.068C42.2514 134.775 42.7521 134.628 43.3345 134.628C43.9169 134.628 44.4176 134.775 44.8366 135.068C45.2557 135.362 45.5765 135.788 45.799 136.347C46.0239 136.905 46.1364 137.58 46.1364 138.371C46.1364 139.166 46.0239 139.846 45.799 140.409C45.5765 140.97 45.2557 141.399 44.8366 141.695C44.42 141.991 43.9193 142.138 43.3345 142.138ZM43.3345 141.027C43.7891 141.027 44.1477 140.803 44.4105 140.356C44.6757 139.906 44.8082 139.244 44.8082 138.371C44.8082 137.793 44.7479 137.308 44.6271 136.915C44.5064 136.522 44.3359 136.226 44.1158 136.027C43.8956 135.826 43.6352 135.725 43.3345 135.725C42.8823 135.725 42.5249 135.95 42.2621 136.4C41.9993 136.847 41.8667 137.504 41.8643 138.371C41.862 138.951 41.92 139.438 42.0384 139.834C42.1591 140.229 42.3295 140.527 42.5497 140.729C42.7699 140.928 43.0315 141.027 43.3345 141.027ZM52.7797 134.386L50.4359 143.094H49.3102L51.6539 134.386H52.7797ZM58.6515 142.099C58.1235 142.099 57.6548 142.011 57.2452 141.833C56.838 141.656 56.5184 141.413 56.2864 141.105C56.0568 140.795 55.9431 140.443 55.9455 140.05C55.9431 139.745 56.0094 139.464 56.1444 139.209C56.2793 138.953 56.4616 138.74 56.6912 138.57C56.9232 138.397 57.1813 138.287 57.4654 138.239V138.19C57.0913 138.107 56.7883 137.916 56.5563 137.618C56.3266 137.317 56.213 136.97 56.2154 136.577C56.213 136.203 56.3172 135.87 56.5279 135.576C56.7386 135.282 57.0274 135.052 57.3944 134.884C57.7613 134.713 58.1803 134.628 58.6515 134.628C59.1178 134.628 59.5333 134.713 59.8979 134.884C60.2649 135.052 60.5537 135.282 60.7644 135.576C60.9775 135.87 61.084 136.203 61.084 136.577C61.084 136.97 60.9668 137.317 60.7324 137.618C60.5004 137.916 60.2009 138.107 59.834 138.19V138.239C60.1181 138.287 60.3738 138.397 60.601 138.57C60.8307 138.74 61.013 138.953 61.1479 139.209C61.2852 139.464 61.3539 139.745 61.3539 140.05C61.3539 140.443 61.2379 140.795 61.0059 141.105C60.7739 141.413 60.4542 141.656 60.0471 141.833C59.6422 142.011 59.177 142.099 58.6515 142.099ZM58.6515 141.084C58.9237 141.084 59.1605 141.038 59.3617 140.945C59.5629 140.851 59.7192 140.718 59.8304 140.548C59.9417 140.377 59.9985 140.181 60.0009 139.958C59.9985 139.726 59.9382 139.521 59.8198 139.344C59.7038 139.164 59.544 139.023 59.3404 138.921C59.1391 138.819 58.9095 138.768 58.6515 138.768C58.391 138.768 58.159 138.819 57.9554 138.921C57.7518 139.023 57.5908 139.164 57.4725 139.344C57.3565 139.521 57.2997 139.726 57.302 139.958C57.2997 140.181 57.3541 140.377 57.4654 140.548C57.5766 140.716 57.7329 140.847 57.9341 140.942C58.1377 141.036 58.3768 141.084 58.6515 141.084ZM58.6515 137.771C58.874 137.771 59.0705 137.726 59.2409 137.636C59.4138 137.546 59.5499 137.42 59.6493 137.259C59.7488 137.098 59.7997 136.912 59.802 136.702C59.7997 136.493 59.7499 136.311 59.6529 136.155C59.5558 135.996 59.4209 135.874 59.248 135.789C59.0752 135.701 58.8764 135.658 58.6515 135.658C58.4218 135.658 58.2194 135.701 58.0442 135.789C57.8714 135.874 57.7364 135.996 57.6394 136.155C57.5447 136.311 57.4985 136.493 57.5009 136.702C57.4985 136.912 57.5459 137.098 57.6429 137.259C57.7424 137.418 57.8785 137.543 58.0513 137.636C58.2265 137.726 58.4266 137.771 58.6515 137.771ZM62.7876 142L65.8807 135.878V135.828H62.2905V134.727H67.2443V135.853L64.1548 142H62.7876Z" fill="black" fill-opacity="0.45"/>
<rect x="308" y="116" width="44" height="44" rx="15" fill="#B06826"/>
<path fill-rule="evenodd" clip-rule="evenodd" d="M331.293 130.293C331.683 129.902 332.317 129.902 332.707 130.293L339.707 137.293C340.098 137.683 340.098 138.317 339.707 138.707L332.707 145.707C332.317 146.098 331.683 146.098 331.293 145.707C330.902 145.317 330.902 144.683 331.293 144.293L336.586 139H321C320.448 139 320 138.552 320 138C320 137.448 320.448 137 321 137H336.586L331.293 131.707C330.902 131.317 330.902 130.683 331.293 130.293Z" fill="#EFD0B4"/>
</svg>
