<svg width="369" height="176" viewBox="0 0 369 176" fill="none" xmlns="http://www.w3.org/2000/svg">
<rect x="0.5" width="368" height="176" rx="32" fill="#ADBDEB"/>
<path d="M19.902 42L21.0952 34.7273H22.0895L20.8963 42H19.902ZM16.6243 40.125L16.7912 39.1307H22.3878L22.2209 40.125H16.6243ZM17.3452 42L18.5384 34.7273H19.5327L18.3395 42H17.3452ZM17.0469 37.5966L17.2102 36.6023H22.8068L22.6435 37.5966H17.0469ZM24.8816 34.7273V42H23.5961V34.7273H24.8816ZM27.7731 42.1101C27.4274 42.1101 27.1161 42.0485 26.8391 41.9254C26.5645 41.8 26.3467 41.6153 26.1857 41.3714C26.0271 41.1276 25.9478 40.8269 25.9478 40.4695C25.9478 40.1617 26.0046 39.9072 26.1183 39.706C26.2319 39.5047 26.387 39.3438 26.5835 39.223C26.7799 39.1023 27.0013 39.0111 27.2475 38.9496C27.4961 38.8857 27.753 38.8395 28.0181 38.8111C28.3377 38.7779 28.5969 38.7483 28.7958 38.7223C28.9947 38.6939 29.1391 38.6513 29.229 38.5945C29.3214 38.5353 29.3675 38.4441 29.3675 38.321V38.2997C29.3675 38.0322 29.2882 37.825 29.1296 37.6783C28.971 37.5315 28.7425 37.4581 28.4442 37.4581C28.1294 37.4581 27.8796 37.5268 27.695 37.6641C27.5127 37.8014 27.3896 37.9635 27.3256 38.1506L26.1254 37.9801C26.2201 37.6487 26.3763 37.3717 26.5941 37.1491C26.8119 36.9242 27.0782 36.7562 27.3931 36.6449C27.708 36.5312 28.056 36.4744 28.4371 36.4744C28.6999 36.4744 28.9615 36.5052 29.2219 36.5668C29.4824 36.6283 29.7203 36.7301 29.9357 36.8722C30.1512 37.0118 30.324 37.2024 30.4542 37.4439C30.5868 37.6854 30.6531 37.9872 30.6531 38.3494V42H29.4173V41.2507H29.3746C29.2965 41.4022 29.1864 41.5443 29.0444 41.6768C28.9047 41.8071 28.7283 41.9124 28.5153 41.9929C28.3046 42.071 28.0572 42.1101 27.7731 42.1101ZM28.1069 41.1655C28.3649 41.1655 28.5887 41.1146 28.7781 41.0128C28.9674 40.9086 29.113 40.7713 29.2148 40.6009C29.319 40.4304 29.3711 40.2446 29.3711 40.0433V39.4006C29.3308 39.4337 29.2622 39.4645 29.1651 39.4929C29.0704 39.5213 28.9639 39.5462 28.8455 39.5675C28.7272 39.5888 28.61 39.6077 28.494 39.6243C28.378 39.6409 28.2773 39.6551 28.1921 39.6669C28.0004 39.6929 27.8287 39.7356 27.6772 39.7947C27.5257 39.8539 27.4061 39.9368 27.3185 40.0433C27.2309 40.1475 27.1871 40.2824 27.1871 40.4482C27.1871 40.6849 27.2736 40.8636 27.4464 40.9844C27.6192 41.1051 27.8394 41.1655 28.1069 41.1655ZM33.2312 38.804V42H31.9457V36.5455H33.1744V37.4723H33.2383C33.3638 37.1669 33.5638 36.9242 33.8384 36.7443C34.1154 36.5644 34.4575 36.4744 34.8647 36.4744C35.2411 36.4744 35.569 36.5549 35.8484 36.7159C36.1301 36.8769 36.3479 37.1101 36.5018 37.4155C36.658 37.7209 36.735 38.0914 36.7326 38.527V42H35.4471V38.7259C35.4471 38.3613 35.3524 38.076 35.163 37.87C34.976 37.6641 34.7167 37.5611 34.3853 37.5611C34.1604 37.5611 33.9603 37.6108 33.7852 37.7102C33.6123 37.8073 33.4762 37.9482 33.3768 38.1328C33.2797 38.3175 33.2312 38.5412 33.2312 38.804ZM40.4116 44.1591C39.9499 44.1591 39.5534 44.0964 39.2219 43.9709C38.8905 43.8478 38.6242 43.6821 38.4229 43.4737C38.2217 43.2654 38.082 43.0346 38.0039 42.7812L39.1616 42.5007C39.2137 42.6072 39.2894 42.7126 39.3888 42.8168C39.4883 42.9233 39.622 43.0109 39.7901 43.0795C39.9606 43.1506 40.1748 43.1861 40.4329 43.1861C40.7975 43.1861 41.0993 43.0973 41.3384 42.9197C41.5775 42.7446 41.6971 42.4557 41.6971 42.0533V41.0199H41.6332C41.5669 41.1525 41.4698 41.2886 41.342 41.4283C41.2165 41.5679 41.0496 41.6851 40.8413 41.7798C40.6353 41.8745 40.3761 41.9219 40.0636 41.9219C39.6445 41.9219 39.2646 41.8236 38.9237 41.6271C38.5851 41.4283 38.3152 41.1323 38.114 40.7393C37.9151 40.344 37.8157 39.8492 37.8157 39.255C37.8157 38.656 37.9151 38.1506 38.114 37.7386C38.3152 37.3243 38.5863 37.0107 38.9272 36.7976C39.2681 36.5821 39.6481 36.4744 40.0671 36.4744C40.3867 36.4744 40.6495 36.5289 40.8555 36.6378C41.0638 36.7443 41.2295 36.8733 41.3526 37.0249C41.4757 37.174 41.5692 37.3149 41.6332 37.4474H41.7042V36.5455H42.9719V42.0888C42.9719 42.5552 42.8607 42.9411 42.6381 43.2464C42.4156 43.5518 42.1114 43.7803 41.7255 43.9318C41.3396 44.0833 40.9016 44.1591 40.4116 44.1591ZM40.4222 40.9134C40.6945 40.9134 40.9265 40.8471 41.1183 40.7145C41.31 40.5819 41.4556 40.3913 41.555 40.1428C41.6545 39.8942 41.7042 39.5959 41.7042 39.2479C41.7042 38.9046 41.6545 38.6039 41.555 38.3459C41.458 38.0878 41.3136 37.8878 41.1218 37.7457C40.9324 37.6013 40.6992 37.5291 40.4222 37.5291C40.1358 37.5291 39.8967 37.6037 39.7049 37.7528C39.5131 37.902 39.3687 38.1068 39.2717 38.3672C39.1746 38.6252 39.1261 38.9188 39.1261 39.2479C39.1261 39.5817 39.1746 39.8741 39.2717 40.125C39.3711 40.3736 39.5167 40.5677 39.7085 40.7074C39.9026 40.8447 40.1405 40.9134 40.4222 40.9134ZM47.766 39.706V36.5455H49.0515V42H47.805V41.0305H47.7482C47.6251 41.3359 47.4227 41.5857 47.141 41.7798C46.8616 41.974 46.5172 42.071 46.1076 42.071C45.7501 42.071 45.4341 41.9917 45.1594 41.8331C44.8872 41.6721 44.6741 41.4389 44.5202 41.1335C44.3664 40.8258 44.2894 40.4541 44.2894 40.0185V36.5455H45.5749V39.8196C45.5749 40.1652 45.6696 40.4399 45.859 40.6435C46.0484 40.8471 46.297 40.9489 46.6048 40.9489C46.7942 40.9489 46.9776 40.9027 47.1552 40.8104C47.3327 40.718 47.4783 40.5807 47.592 40.3984C47.708 40.2138 47.766 39.983 47.766 39.706ZM51.943 42.1101C51.5974 42.1101 51.286 42.0485 51.0091 41.9254C50.7344 41.8 50.5166 41.6153 50.3556 41.3714C50.197 41.1276 50.1177 40.8269 50.1177 40.4695C50.1177 40.1617 50.1745 39.9072 50.2882 39.706C50.4018 39.5047 50.5569 39.3438 50.7534 39.223C50.9499 39.1023 51.1712 39.0111 51.4174 38.9496C51.666 38.8857 51.9229 38.8395 52.188 38.8111C52.5076 38.7779 52.7669 38.7483 52.9657 38.7223C53.1646 38.6939 53.309 38.6513 53.399 38.5945C53.4913 38.5353 53.5375 38.4441 53.5375 38.321V38.2997C53.5375 38.0322 53.4582 37.825 53.2995 37.6783C53.1409 37.5315 52.9125 37.4581 52.6142 37.4581C52.2993 37.4581 52.0495 37.5268 51.8649 37.6641C51.6826 37.8014 51.5595 37.9635 51.4956 38.1506L50.2953 37.9801C50.39 37.6487 50.5462 37.3717 50.764 37.1491C50.9818 36.9242 51.2482 36.7562 51.563 36.6449C51.8779 36.5312 52.2259 36.4744 52.6071 36.4744C52.8699 36.4744 53.1315 36.5052 53.3919 36.5668C53.6523 36.6283 53.8902 36.7301 54.1056 36.8722C54.3211 37.0118 54.4939 37.2024 54.6241 37.4439C54.7567 37.6854 54.823 37.9872 54.823 38.3494V42H53.5872V41.2507H53.5446C53.4664 41.4022 53.3564 41.5443 53.2143 41.6768C53.0746 41.8071 52.8983 41.9124 52.6852 41.9929C52.4745 42.071 52.2271 42.1101 51.943 42.1101ZM52.2768 41.1655C52.5349 41.1655 52.7586 41.1146 52.948 41.0128C53.1374 40.9086 53.283 40.7713 53.3848 40.6009C53.4889 40.4304 53.541 40.2446 53.541 40.0433V39.4006C53.5008 39.4337 53.4321 39.4645 53.335 39.4929C53.2404 39.5213 53.1338 39.5462 53.0154 39.5675C52.8971 39.5888 52.7799 39.6077 52.6639 39.6243C52.5479 39.6409 52.4473 39.6551 52.362 39.6669C52.1703 39.6929 51.9986 39.7356 51.8471 39.7947C51.6956 39.8539 51.5761 39.9368 51.4885 40.0433C51.4009 40.1475 51.3571 40.2824 51.3571 40.4482C51.3571 40.6849 51.4435 40.8636 51.6163 40.9844C51.7891 41.1051 52.0093 41.1655 52.2768 41.1655ZM58.4877 44.1591C58.0261 44.1591 57.6296 44.0964 57.2981 43.9709C56.9667 43.8478 56.7003 43.6821 56.4991 43.4737C56.2979 43.2654 56.1582 43.0346 56.0801 42.7812L57.2377 42.5007C57.2898 42.6072 57.3656 42.7126 57.465 42.8168C57.5645 42.9233 57.6982 43.0109 57.8663 43.0795C58.0368 43.1506 58.251 43.1861 58.5091 43.1861C58.8736 43.1861 59.1755 43.0973 59.4146 42.9197C59.6537 42.7446 59.7733 42.4557 59.7733 42.0533V41.0199H59.7093C59.6431 41.1525 59.546 41.2886 59.4181 41.4283C59.2927 41.5679 59.1258 41.6851 58.9174 41.7798C58.7115 41.8745 58.4522 41.9219 58.1397 41.9219C57.7207 41.9219 57.3407 41.8236 56.9998 41.6271C56.6613 41.4283 56.3914 41.1323 56.1902 40.7393C55.9913 40.344 55.8919 39.8492 55.8919 39.255C55.8919 38.656 55.9913 38.1506 56.1902 37.7386C56.3914 37.3243 56.6625 37.0107 57.0034 36.7976C57.3443 36.5821 57.7243 36.4744 58.1433 36.4744C58.4629 36.4744 58.7257 36.5289 58.9316 36.6378C59.14 36.7443 59.3057 36.8733 59.4288 37.0249C59.5519 37.174 59.6454 37.3149 59.7093 37.4474H59.7804V36.5455H61.0481V42.0888C61.0481 42.5552 60.9368 42.9411 60.7143 43.2464C60.4918 43.5518 60.1876 43.7803 59.8017 43.9318C59.4158 44.0833 58.9778 44.1591 58.4877 44.1591ZM58.4984 40.9134C58.7707 40.9134 59.0027 40.8471 59.1944 40.7145C59.3862 40.5819 59.5318 40.3913 59.6312 40.1428C59.7306 39.8942 59.7804 39.5959 59.7804 39.2479C59.7804 38.9046 59.7306 38.6039 59.6312 38.3459C59.5342 38.0878 59.3897 37.8878 59.198 37.7457C59.0086 37.6013 58.7754 37.5291 58.4984 37.5291C58.2119 37.5291 57.9728 37.6037 57.7811 37.7528C57.5893 37.902 57.4449 38.1068 57.3478 38.3672C57.2508 38.6252 57.2022 38.9188 57.2022 39.2479C57.2022 39.5817 57.2508 39.8741 57.3478 40.125C57.4473 40.3736 57.5929 40.5677 57.7846 40.7074C57.9788 40.8447 58.2167 40.9134 58.4984 40.9134ZM64.7804 42.1065C64.2335 42.1065 63.7612 41.9929 63.3635 41.7656C62.9681 41.536 62.6639 41.2116 62.4508 40.7926C62.2377 40.3712 62.1312 39.8752 62.1312 39.3047C62.1312 38.7436 62.2377 38.2512 62.4508 37.8274C62.6663 37.4013 62.9669 37.0698 63.3528 36.8331C63.7387 36.594 64.1921 36.4744 64.7129 36.4744C65.0491 36.4744 65.3663 36.5289 65.6646 36.6378C65.9653 36.7443 66.2304 36.91 66.46 37.1349C66.6921 37.3598 66.8743 37.6463 67.0069 37.9943C67.1395 38.34 67.2058 38.7519 67.2058 39.2301V39.6243H62.7349V38.7578H65.9735C65.9712 38.5116 65.9179 38.2926 65.8137 38.1009C65.7096 37.9067 65.564 37.754 65.377 37.6428C65.1923 37.5315 64.9769 37.4759 64.7306 37.4759C64.4679 37.4759 64.237 37.5398 64.0382 37.6676C63.8393 37.7931 63.6842 37.9588 63.573 38.1648C63.4641 38.3684 63.4084 38.5921 63.4061 38.8359V39.5923C63.4061 39.9096 63.4641 40.1818 63.5801 40.4091C63.6961 40.634 63.8583 40.8068 64.0666 40.9276C64.2749 41.0459 64.5188 41.1051 64.7981 41.1051C64.9851 41.1051 65.1544 41.0791 65.3059 41.027C65.4574 40.9725 65.5888 40.8932 65.7001 40.7891C65.8114 40.6849 65.8954 40.5559 65.9522 40.402L67.1525 40.5369C67.0768 40.8542 66.9324 41.1312 66.7193 41.3679C66.5086 41.6023 66.2387 41.7846 65.9096 41.9148C65.5806 42.0426 65.2041 42.1065 64.7804 42.1065Z" fill="black" fill-opacity="0.45"/>
<path d="M18.7955 79V55.7273H27.5227C29.3106 55.7273 30.8106 56.0606 32.0227 56.7273C33.2424 57.3939 34.1629 58.3106 34.7841 59.4773C35.4129 60.6364 35.7273 61.9545 35.7273 63.4318C35.7273 64.9242 35.4129 66.25 34.7841 67.4091C34.1553 68.5682 33.2273 69.4811 32 70.1477C30.7727 70.8068 29.2614 71.1364 27.4659 71.1364H21.6818V67.6705H26.8977C27.9432 67.6705 28.7992 67.4886 29.4659 67.125C30.1326 66.7614 30.625 66.2614 30.9432 65.625C31.2689 64.9886 31.4318 64.2576 31.4318 63.4318C31.4318 62.6061 31.2689 61.8788 30.9432 61.25C30.625 60.6212 30.1288 60.1326 29.4545 59.7841C28.7879 59.428 27.928 59.25 26.875 59.25H23.0114V79H18.7955ZM39.2074 79V61.5455H43.196V64.4545H43.3778C43.696 63.447 44.2415 62.6705 45.0142 62.125C45.7945 61.572 46.6847 61.2955 47.6847 61.2955C47.9119 61.2955 48.1657 61.3068 48.446 61.3295C48.7339 61.3447 48.9725 61.3712 49.1619 61.4091V65.1932C48.9877 65.1326 48.7112 65.0795 48.3324 65.0341C47.9612 64.9811 47.6013 64.9545 47.2528 64.9545C46.5028 64.9545 45.8286 65.1174 45.2301 65.4432C44.6392 65.7614 44.1733 66.2045 43.8324 66.7727C43.4915 67.3409 43.321 67.9962 43.321 68.7386V79H39.2074ZM58.7898 79.3409C57.0852 79.3409 55.608 78.9659 54.358 78.2159C53.108 77.4659 52.1383 76.4167 51.4489 75.0682C50.767 73.7197 50.4261 72.1439 50.4261 70.3409C50.4261 68.5379 50.767 66.9583 51.4489 65.6023C52.1383 64.2462 53.108 63.1932 54.358 62.4432C55.608 61.6932 57.0852 61.3182 58.7898 61.3182C60.4943 61.3182 61.9716 61.6932 63.2216 62.4432C64.4716 63.1932 65.4375 64.2462 66.1193 65.6023C66.8087 66.9583 67.1534 68.5379 67.1534 70.3409C67.1534 72.1439 66.8087 73.7197 66.1193 75.0682C65.4375 76.4167 64.4716 77.4659 63.2216 78.2159C61.9716 78.9659 60.4943 79.3409 58.7898 79.3409ZM58.8125 76.0455C59.7367 76.0455 60.5095 75.7917 61.1307 75.2841C61.7519 74.7689 62.214 74.0795 62.517 73.2159C62.8277 72.3523 62.983 71.3902 62.983 70.3295C62.983 69.2614 62.8277 68.2955 62.517 67.4318C62.214 66.5606 61.7519 65.8674 61.1307 65.3523C60.5095 64.8371 59.7367 64.5795 58.8125 64.5795C57.8655 64.5795 57.0777 64.8371 56.4489 65.3523C55.8277 65.8674 55.3617 66.5606 55.0511 67.4318C54.7481 68.2955 54.5966 69.2614 54.5966 70.3295C54.5966 71.3902 54.7481 72.3523 55.0511 73.2159C55.3617 74.0795 55.8277 74.7689 56.4489 75.2841C57.0777 75.7917 57.8655 76.0455 58.8125 76.0455ZM74.7585 68.7727V79H70.6449V61.5455H74.5767V64.5114H74.7812C75.1828 63.5341 75.8229 62.7576 76.7017 62.1818C77.5881 61.6061 78.6828 61.3182 79.9858 61.3182C81.1903 61.3182 82.2396 61.5758 83.1335 62.0909C84.035 62.6061 84.732 63.3523 85.2244 64.3295C85.7244 65.3068 85.9706 66.4924 85.9631 67.8864V79H81.8494V68.5227C81.8494 67.3561 81.5464 66.4432 80.9403 65.7841C80.3419 65.125 79.5123 64.7955 78.4517 64.7955C77.732 64.7955 77.0919 64.9545 76.5312 65.2727C75.9782 65.5833 75.5426 66.0341 75.2244 66.625C74.9138 67.2159 74.7585 67.9318 74.7585 68.7727ZM101.27 71.6591V61.5455H105.384V79H101.395V75.8977H101.213C100.819 76.875 100.171 77.6742 99.2699 78.2955C98.3759 78.9167 97.2737 79.2273 95.9631 79.2273C94.8191 79.2273 93.8078 78.9735 92.929 78.4659C92.0578 77.9508 91.3759 77.2045 90.8835 76.2273C90.3911 75.2424 90.1449 74.053 90.1449 72.6591V61.5455H94.2585V72.0227C94.2585 73.1288 94.5616 74.0076 95.1676 74.6591C95.7737 75.3106 96.5691 75.6364 97.554 75.6364C98.16 75.6364 98.7472 75.4886 99.3153 75.1932C99.8835 74.8977 100.349 74.4583 100.713 73.875C101.084 73.2841 101.27 72.5455 101.27 71.6591ZM113.727 68.7727V79H109.614V61.5455H113.545V64.5114H113.75C114.152 63.5341 114.792 62.7576 115.67 62.1818C116.557 61.6061 117.652 61.3182 118.955 61.3182C120.159 61.3182 121.208 61.5758 122.102 62.0909C123.004 62.6061 123.701 63.3523 124.193 64.3295C124.693 65.3068 124.939 66.4924 124.932 67.8864V79H120.818V68.5227C120.818 67.3561 120.515 66.4432 119.909 65.7841C119.311 65.125 118.481 64.7955 117.42 64.7955C116.701 64.7955 116.061 64.9545 115.5 65.2727C114.947 65.5833 114.511 66.0341 114.193 66.625C113.883 67.2159 113.727 67.9318 113.727 68.7727ZM136.727 79.3409C134.985 79.3409 133.489 78.9583 132.239 78.1932C130.996 77.428 130.038 76.3712 129.364 75.0227C128.697 73.6667 128.364 72.1061 128.364 70.3409C128.364 68.5682 128.705 67.0038 129.386 65.6477C130.068 64.2841 131.03 63.2235 132.273 62.4659C133.523 61.7008 135 61.3182 136.705 61.3182C138.121 61.3182 139.375 61.5795 140.466 62.1023C141.564 62.6174 142.439 63.3485 143.091 64.2955C143.742 65.2348 144.114 66.3333 144.205 67.5909H140.273C140.114 66.75 139.735 66.0492 139.136 65.4886C138.545 64.9205 137.754 64.6364 136.761 64.6364C135.92 64.6364 135.182 64.8636 134.545 65.3182C133.909 65.7652 133.413 66.4091 133.057 67.25C132.708 68.0909 132.534 69.0985 132.534 70.2727C132.534 71.4621 132.708 72.4848 133.057 73.3409C133.405 74.1894 133.894 74.8447 134.523 75.3068C135.159 75.7614 135.905 75.9886 136.761 75.9886C137.367 75.9886 137.909 75.875 138.386 75.6477C138.871 75.4129 139.277 75.0758 139.602 74.6364C139.928 74.197 140.152 73.6629 140.273 73.0341H144.205C144.106 74.2689 143.742 75.3636 143.114 76.3182C142.485 77.2652 141.629 78.0076 140.545 78.5455C139.462 79.0758 138.189 79.3409 136.727 79.3409ZM147.582 79V61.5455H151.696V79H147.582ZM149.651 59.0682C148.999 59.0682 148.438 58.8523 147.969 58.4205C147.499 57.9811 147.264 57.4545 147.264 56.8409C147.264 56.2197 147.499 55.6932 147.969 55.2614C148.438 54.822 148.999 54.6023 149.651 54.6023C150.31 54.6023 150.87 54.822 151.332 55.2614C151.802 55.6932 152.037 56.2197 152.037 56.8409C152.037 57.4545 151.802 57.9811 151.332 58.4205C150.87 58.8523 150.31 59.0682 149.651 59.0682ZM160.949 79.3523C159.843 79.3523 158.847 79.1553 157.96 78.7614C157.081 78.3598 156.384 77.7689 155.869 76.9886C155.362 76.2083 155.108 75.2462 155.108 74.1023C155.108 73.1174 155.29 72.303 155.653 71.6591C156.017 71.0152 156.513 70.5 157.142 70.1136C157.771 69.7273 158.479 69.4356 159.267 69.2386C160.063 69.0341 160.884 68.8864 161.733 68.7955C162.756 68.6894 163.585 68.5947 164.222 68.5114C164.858 68.4205 165.32 68.2841 165.608 68.1023C165.903 67.9129 166.051 67.6212 166.051 67.2273V67.1591C166.051 66.303 165.797 65.6402 165.29 65.1705C164.782 64.7008 164.051 64.4659 163.097 64.4659C162.089 64.4659 161.29 64.6856 160.699 65.125C160.116 65.5644 159.722 66.0833 159.517 66.6818L155.676 66.1364C155.979 65.0758 156.479 64.1894 157.176 63.4773C157.873 62.7576 158.725 62.2197 159.733 61.8636C160.741 61.5 161.854 61.3182 163.074 61.3182C163.915 61.3182 164.752 61.4167 165.585 61.6136C166.419 61.8106 167.18 62.1364 167.869 62.5909C168.559 63.0379 169.112 63.6477 169.528 64.4205C169.953 65.1932 170.165 66.1591 170.165 67.3182V79H166.21V76.6023H166.074C165.824 77.0871 165.472 77.5417 165.017 77.9659C164.57 78.3826 164.006 78.7197 163.324 78.9773C162.65 79.2273 161.858 79.3523 160.949 79.3523ZM162.017 76.3295C162.843 76.3295 163.559 76.1667 164.165 75.8409C164.771 75.5076 165.237 75.0682 165.562 74.5227C165.896 73.9773 166.062 73.3826 166.062 72.7386V70.6818C165.934 70.7879 165.714 70.8864 165.403 70.9773C165.1 71.0682 164.759 71.1477 164.381 71.2159C164.002 71.2841 163.627 71.3447 163.256 71.3977C162.884 71.4508 162.563 71.4962 162.29 71.5341C161.676 71.6174 161.127 71.7538 160.642 71.9432C160.157 72.1326 159.775 72.3977 159.494 72.7386C159.214 73.072 159.074 73.5038 159.074 74.0341C159.074 74.7917 159.35 75.3636 159.903 75.75C160.456 76.1364 161.161 76.3295 162.017 76.3295ZM183.017 61.5455V64.7273H172.983V61.5455H183.017ZM175.46 57.3636H179.574V73.75C179.574 74.303 179.657 74.7273 179.824 75.0227C179.998 75.3106 180.225 75.5076 180.506 75.6136C180.786 75.7197 181.097 75.7727 181.438 75.7727C181.695 75.7727 181.93 75.7538 182.142 75.7159C182.362 75.678 182.528 75.6439 182.642 75.6136L183.335 78.8295C183.116 78.9053 182.801 78.9886 182.392 79.0795C181.991 79.1705 181.498 79.2235 180.915 79.2386C179.884 79.2689 178.956 79.1136 178.131 78.7727C177.305 78.4242 176.65 77.8864 176.165 77.1591C175.688 76.4318 175.453 75.5227 175.46 74.4318V57.3636ZM186.457 79V61.5455H190.571V79H186.457ZM188.526 59.0682C187.874 59.0682 187.313 58.8523 186.844 58.4205C186.374 57.9811 186.139 57.4545 186.139 56.8409C186.139 56.2197 186.374 55.6932 186.844 55.2614C187.313 54.822 187.874 54.6023 188.526 54.6023C189.185 54.6023 189.745 54.822 190.207 55.2614C190.677 55.6932 190.912 56.2197 190.912 56.8409C190.912 57.4545 190.677 57.9811 190.207 58.4205C189.745 58.8523 189.185 59.0682 188.526 59.0682ZM202.415 79.3409C200.71 79.3409 199.233 78.9659 197.983 78.2159C196.733 77.4659 195.763 76.4167 195.074 75.0682C194.392 73.7197 194.051 72.1439 194.051 70.3409C194.051 68.5379 194.392 66.9583 195.074 65.6023C195.763 64.2462 196.733 63.1932 197.983 62.4432C199.233 61.6932 200.71 61.3182 202.415 61.3182C204.119 61.3182 205.597 61.6932 206.847 62.4432C208.097 63.1932 209.063 64.2462 209.744 65.6023C210.434 66.9583 210.778 68.5379 210.778 70.3409C210.778 72.1439 210.434 73.7197 209.744 75.0682C209.063 76.4167 208.097 77.4659 206.847 78.2159C205.597 78.9659 204.119 79.3409 202.415 79.3409ZM202.438 76.0455C203.362 76.0455 204.134 75.7917 204.756 75.2841C205.377 74.7689 205.839 74.0795 206.142 73.2159C206.453 72.3523 206.608 71.3902 206.608 70.3295C206.608 69.2614 206.453 68.2955 206.142 67.4318C205.839 66.5606 205.377 65.8674 204.756 65.3523C204.134 64.8371 203.362 64.5795 202.438 64.5795C201.491 64.5795 200.703 64.8371 200.074 65.3523C199.453 65.8674 198.987 66.5606 198.676 67.4318C198.373 68.2955 198.222 69.2614 198.222 70.3295C198.222 71.3902 198.373 72.3523 198.676 73.2159C198.987 74.0795 199.453 74.7689 200.074 75.2841C200.703 75.7917 201.491 76.0455 202.438 76.0455ZM218.384 68.7727V79H214.27V61.5455H218.202V64.5114H218.406C218.808 63.5341 219.448 62.7576 220.327 62.1818C221.213 61.6061 222.308 61.3182 223.611 61.3182C224.815 61.3182 225.865 61.5758 226.759 62.0909C227.66 62.6061 228.357 63.3523 228.849 64.3295C229.349 65.3068 229.596 66.4924 229.588 67.8864V79H225.474V68.5227C225.474 67.3561 225.171 66.4432 224.565 65.7841C223.967 65.125 223.137 64.7955 222.077 64.7955C221.357 64.7955 220.717 64.9545 220.156 65.2727C219.603 65.5833 219.168 66.0341 218.849 66.625C218.539 67.2159 218.384 67.9318 218.384 68.7727Z" fill="#343A40"/>
<path fill-rule="evenodd" clip-rule="evenodd" d="M22.3333 129.667C20.0321 129.667 18.1667 131.532 18.1667 133.833V142.167C18.1667 144.468 20.0321 146.333 22.3333 146.333H30.6667C32.9678 146.333 34.8333 144.468 34.8333 142.167V133.833C34.8333 131.532 32.9678 129.667 30.6667 129.667H22.3333ZM27.6208 134.222C27.1622 133.293 25.8374 133.293 25.3789 134.222L24.7219 135.553L23.2528 135.766C22.2275 135.915 21.8181 137.175 22.56 137.898L23.6231 138.935L23.3721 140.398C23.197 141.419 24.2688 142.198 25.1858 141.716L26.4998 141.025L27.8139 141.716C28.7309 142.198 29.8027 141.419 29.6276 140.398L29.3766 138.935L30.4397 137.898C31.1816 137.175 30.7722 135.915 29.7469 135.766L28.2778 135.553L27.6208 134.222Z" fill="#5A3695"/>
<path d="M43.8345 142.138C43.2498 142.138 42.7479 141.991 42.3288 141.695C41.9122 141.396 41.5914 140.967 41.3665 140.406C41.1439 139.842 41.0327 139.164 41.0327 138.371C41.035 137.578 41.1475 136.903 41.37 136.347C41.5949 135.788 41.9157 135.362 42.3324 135.068C42.7514 134.775 43.2521 134.628 43.8345 134.628C44.4169 134.628 44.9176 134.775 45.3366 135.068C45.7557 135.362 46.0765 135.788 46.299 136.347C46.5239 136.905 46.6364 137.58 46.6364 138.371C46.6364 139.166 46.5239 139.846 46.299 140.409C46.0765 140.97 45.7557 141.399 45.3366 141.695C44.92 141.991 44.4193 142.138 43.8345 142.138ZM43.8345 141.027C44.2891 141.027 44.6477 140.803 44.9105 140.356C45.1757 139.906 45.3082 139.244 45.3082 138.371C45.3082 137.793 45.2479 137.308 45.1271 136.915C45.0064 136.522 44.8359 136.226 44.6158 136.027C44.3956 135.826 44.1352 135.725 43.8345 135.725C43.3823 135.725 43.0249 135.95 42.7621 136.4C42.4993 136.847 42.3667 137.504 42.3643 138.371C42.362 138.951 42.42 139.438 42.5384 139.834C42.6591 140.229 42.8295 140.527 43.0497 140.729C43.2699 140.928 43.5315 141.027 43.8345 141.027ZM53.2797 134.386L50.9359 143.094H49.8102L52.1539 134.386H53.2797ZM56.5662 142V141.048L59.0911 138.573C59.3326 138.329 59.5338 138.113 59.6948 137.923C59.8558 137.734 59.9765 137.55 60.057 137.373C60.1375 137.195 60.1777 137.006 60.1777 136.805C60.1777 136.575 60.1257 136.379 60.0215 136.215C59.9173 136.049 59.7741 135.922 59.5918 135.832C59.4095 135.742 59.2024 135.697 58.9703 135.697C58.7312 135.697 58.5217 135.746 58.3418 135.846C58.1619 135.943 58.0222 136.081 57.9228 136.261C57.8257 136.441 57.7772 136.656 57.7772 136.904H56.5236C56.5236 136.442 56.629 136.041 56.8397 135.7C57.0504 135.359 57.3404 135.095 57.7097 134.908C58.0814 134.721 58.5075 134.628 58.9881 134.628C59.4758 134.628 59.9043 134.719 60.2736 134.901C60.6429 135.084 60.9294 135.333 61.133 135.651C61.339 135.968 61.4419 136.33 61.4419 136.737C61.4419 137.009 61.3899 137.277 61.2857 137.54C61.1815 137.803 60.998 138.094 60.7353 138.413C60.4748 138.733 60.1091 139.12 59.638 139.575L58.3844 140.849V140.899H61.552V142H56.5662ZM62.7772 142V141.048L65.302 138.573C65.5435 138.329 65.7447 138.113 65.9057 137.923C66.0667 137.734 66.1874 137.55 66.2679 137.373C66.3484 137.195 66.3887 137.006 66.3887 136.805C66.3887 136.575 66.3366 136.379 66.2324 136.215C66.1283 136.049 65.985 135.922 65.8027 135.832C65.6204 135.742 65.4133 135.697 65.1813 135.697C64.9422 135.697 64.7327 135.746 64.5527 135.846C64.3728 135.943 64.2331 136.081 64.1337 136.261C64.0366 136.441 63.9881 136.656 63.9881 136.904H62.7346C62.7346 136.442 62.8399 136.041 63.0506 135.7C63.2613 135.359 63.5513 135.095 63.9206 134.908C64.2923 134.721 64.7185 134.628 65.199 134.628C65.6867 134.628 66.1152 134.719 66.4846 134.901C66.8539 135.084 67.1403 135.333 67.3439 135.651C67.5499 135.968 67.6529 136.33 67.6529 136.737C67.6529 137.009 67.6008 137.277 67.4966 137.54C67.3925 137.803 67.209 138.094 66.9462 138.413C66.6858 138.733 66.32 139.12 65.8489 139.575L64.5953 140.849V140.899H67.763V142H62.7772ZM68.7005 140.651V139.603L71.7864 134.727H72.66V136.219H72.1273L70.0499 139.511V139.567H74.3574V140.651H68.7005ZM72.1699 142V140.331L72.1841 139.862V134.727H73.427V142H72.1699Z" fill="black" fill-opacity="0.45"/>
<rect x="308.5" y="116" width="44" height="44" rx="15" fill="#5A3695"/>
<path fill-rule="evenodd" clip-rule="evenodd" d="M331.793 130.293C332.183 129.902 332.817 129.902 333.207 130.293L340.207 137.293C340.598 137.683 340.598 138.317 340.207 138.707L333.207 145.707C332.817 146.098 332.183 146.098 331.793 145.707C331.402 145.317 331.402 144.683 331.793 144.293L337.086 139H321.5C320.948 139 320.5 138.552 320.5 138C320.5 137.448 320.948 137 321.5 137H337.086L331.793 131.707C331.402 131.317 331.402 130.683 331.793 130.293Z" fill="white"/>
</svg>
