<svg width="369" height="176" viewBox="0 0 369 176" fill="none" xmlns="http://www.w3.org/2000/svg">
<rect x="0.5" width="368" height="176" rx="32" fill="#EBBCD7"/>
<path d="M19.902 42L21.0952 34.7273H22.0895L20.8963 42H19.902ZM16.6243 40.125L16.7912 39.1307H22.3878L22.2209 40.125H16.6243ZM17.3452 42L18.5384 34.7273H19.5327L18.3395 42H17.3452ZM17.0469 37.5966L17.2102 36.6023H22.8068L22.6435 37.5966H17.0469ZM23.5961 42V36.5455H24.8248V37.4723H24.8887C25.0023 37.1598 25.1905 36.916 25.4533 36.7408C25.7161 36.5632 26.0298 36.4744 26.3944 36.4744C26.7637 36.4744 27.075 36.5644 27.3283 36.7443C27.584 36.9219 27.7639 37.1645 27.8681 37.4723H27.9249C28.0456 37.1693 28.2492 36.9278 28.5357 36.7479C28.8245 36.5656 29.1666 36.4744 29.562 36.4744C30.0639 36.4744 30.4734 36.633 30.7907 36.9503C31.1079 37.2675 31.2665 37.7304 31.2665 38.3388V42H29.9775V38.5376C29.9775 38.1991 29.8875 37.9517 29.7076 37.7955C29.5276 37.6368 29.3075 37.5575 29.0471 37.5575C28.7369 37.5575 28.4943 37.6546 28.3191 37.8487C28.1462 38.0405 28.0598 38.2902 28.0598 38.598V42H26.7992V38.4844C26.7992 38.2027 26.714 37.9777 26.5435 37.8097C26.3754 37.6416 26.1552 37.5575 25.883 37.5575C25.6983 37.5575 25.5302 37.6049 25.3787 37.6996C25.2272 37.7919 25.1065 37.9233 25.0165 38.0938C24.9266 38.2618 24.8816 38.4583 24.8816 38.6832V42H23.5961ZM34.9854 42.1065C34.4386 42.1065 33.9663 41.9929 33.5685 41.7656C33.1732 41.536 32.869 41.2116 32.6559 40.7926C32.4428 40.3712 32.3363 39.8752 32.3363 39.3047C32.3363 38.7436 32.4428 38.2512 32.6559 37.8274C32.8713 37.4013 33.172 37.0698 33.5579 36.8331C33.9438 36.594 34.3971 36.4744 34.918 36.4744C35.2541 36.4744 35.5714 36.5289 35.8697 36.6378C36.1703 36.7443 36.4355 36.91 36.6651 37.1349C36.8971 37.3598 37.0794 37.6463 37.212 37.9943C37.3446 38.34 37.4109 38.7519 37.4109 39.2301V39.6243H32.94V38.7578H36.1786C36.1763 38.5116 36.123 38.2926 36.0188 38.1009C35.9147 37.9067 35.7691 37.754 35.582 37.6428C35.3974 37.5315 35.1819 37.4759 34.9357 37.4759C34.6729 37.4759 34.4421 37.5398 34.2433 37.6676C34.0444 37.7931 33.8893 37.9588 33.7781 38.1648C33.6692 38.3684 33.6135 38.5921 33.6112 38.8359V39.5923C33.6112 39.9096 33.6692 40.1818 33.7852 40.4091C33.9012 40.634 34.0633 40.8068 34.2717 40.9276C34.48 41.0459 34.7238 41.1051 35.0032 41.1051C35.1902 41.1051 35.3595 41.0791 35.511 41.027C35.6625 40.9725 35.7939 40.8932 35.9052 40.7891C36.0165 40.6849 36.1005 40.5559 36.1573 40.402L37.3576 40.5369C37.2818 40.8542 37.1374 41.1312 36.9244 41.3679C36.7137 41.6023 36.4438 41.7846 36.1147 41.9148C35.7856 42.0426 35.4092 42.1065 34.9854 42.1065ZM40.5225 42.0959C40.094 42.0959 39.7105 41.9858 39.372 41.7656C39.0334 41.5455 38.7659 41.2259 38.5694 40.8068C38.3729 40.3878 38.2747 39.8788 38.2747 39.2798C38.2747 38.6738 38.3741 38.1624 38.573 37.7457C38.7742 37.3267 39.0453 37.0107 39.3862 36.7976C39.7271 36.5821 40.1071 36.4744 40.5261 36.4744C40.8457 36.4744 41.1085 36.5289 41.3145 36.6378C41.5204 36.7443 41.6838 36.8733 41.8045 37.0249C41.9252 37.174 42.0188 37.3149 42.085 37.4474H42.1383V34.7273H43.4274V42H42.1632V41.1406H42.085C42.0188 41.2732 41.9229 41.4141 41.7974 41.5632C41.6719 41.71 41.5062 41.8355 41.3002 41.9396C41.0943 42.0438 40.835 42.0959 40.5225 42.0959ZM40.8812 41.0412C41.1535 41.0412 41.3855 40.9678 41.5772 40.821C41.769 40.6719 41.9146 40.4647 42.014 40.1996C42.1135 39.9344 42.1632 39.6255 42.1632 39.2727C42.1632 38.92 42.1135 38.6134 42.014 38.353C41.917 38.0926 41.7725 37.8902 41.5808 37.7457C41.3914 37.6013 41.1582 37.5291 40.8812 37.5291C40.5948 37.5291 40.3556 37.6037 40.1639 37.7528C39.9721 37.902 39.8277 38.108 39.7306 38.3707C39.6336 38.6335 39.585 38.9342 39.585 39.2727C39.585 39.6136 39.6336 39.9179 39.7306 40.1854C39.8301 40.4505 39.9757 40.66 40.1674 40.8139C40.3616 40.9654 40.5995 41.0412 40.8812 41.0412ZM44.7972 42V36.5455H46.0827V42H44.7972ZM45.4435 35.7713C45.2399 35.7713 45.0647 35.7038 44.918 35.5689C44.7712 35.4316 44.6978 35.267 44.6978 35.0753C44.6978 34.8812 44.7712 34.7166 44.918 34.5817C45.0647 34.4444 45.2399 34.3757 45.4435 34.3757C45.6495 34.3757 45.8247 34.4444 45.9691 34.5817C46.1159 34.7166 46.1893 34.8812 46.1893 35.0753C46.1893 35.267 46.1159 35.4316 45.9691 35.5689C45.8247 35.7038 45.6495 35.7713 45.4435 35.7713ZM49.7839 42.1065C49.2394 42.1065 48.7718 41.987 48.3812 41.7479C47.993 41.5088 47.6935 41.1785 47.4828 40.7571C47.2744 40.3333 47.1703 39.8456 47.1703 39.294C47.1703 38.7401 47.2768 38.2512 47.4899 37.8274C47.7029 37.4013 48.0036 37.0698 48.3919 36.8331C48.7825 36.594 49.2441 36.4744 49.7768 36.4744C50.2195 36.4744 50.6113 36.5561 50.9522 36.7195C51.2955 36.8804 51.569 37.1089 51.7725 37.4048C51.9761 37.6984 52.0922 38.0417 52.1206 38.4347H50.8919C50.8422 38.1719 50.7238 37.9529 50.5368 37.7777C50.3521 37.6001 50.1047 37.5114 49.7946 37.5114C49.5318 37.5114 49.301 37.5824 49.1021 37.7244C48.9032 37.8641 48.7482 38.0653 48.6369 38.3281C48.528 38.5909 48.4735 38.9058 48.4735 39.2727C48.4735 39.6444 48.528 39.964 48.6369 40.2315C48.7458 40.4967 48.8985 40.7015 49.095 40.8459C49.2939 40.9879 49.527 41.0589 49.7946 41.0589C49.984 41.0589 50.1532 41.0234 50.3024 40.9524C50.4539 40.879 50.5806 40.7737 50.6824 40.6364C50.7842 40.4991 50.854 40.3321 50.8919 40.1357H52.1206C52.0898 40.5215 51.9761 40.8636 51.7797 41.1619C51.5832 41.4579 51.3156 41.6899 50.9771 41.858C50.6386 42.0237 50.2408 42.1065 49.7839 42.1065ZM53.1761 42V36.5455H54.4616V42H53.1761ZM53.8224 35.7713C53.6188 35.7713 53.4437 35.7038 53.2969 35.5689C53.1501 35.4316 53.0767 35.267 53.0767 35.0753C53.0767 34.8812 53.1501 34.7166 53.2969 34.5817C53.4437 34.4444 53.6188 34.3757 53.8224 34.3757C54.0284 34.3757 54.2036 34.4444 54.348 34.5817C54.4948 34.7166 54.5682 34.8812 54.5682 35.0753C54.5682 35.267 54.4948 35.4316 54.348 35.5689C54.2036 35.7038 54.0284 35.7713 53.8224 35.7713ZM57.0691 38.804V42H55.7836V36.5455H57.0123V37.4723H57.0762C57.2016 37.1669 57.4017 36.9242 57.6763 36.7443C57.9533 36.5644 58.2954 36.4744 58.7026 36.4744C59.079 36.4744 59.4069 36.5549 59.6863 36.7159C59.968 36.8769 60.1858 37.1101 60.3397 37.4155C60.4959 37.7209 60.5729 38.0914 60.5705 38.527V42H59.285V38.7259C59.285 38.3613 59.1903 38.076 59.0009 37.87C58.8139 37.6641 58.5546 37.5611 58.2232 37.5611C57.9983 37.5611 57.7982 37.6108 57.623 37.7102C57.4502 37.8073 57.3141 37.9482 57.2147 38.1328C57.1176 38.3175 57.0691 38.5412 57.0691 38.804ZM63.4469 42.1101C63.1013 42.1101 62.79 42.0485 62.513 41.9254C62.2383 41.8 62.0205 41.6153 61.8596 41.3714C61.7009 41.1276 61.6216 40.8269 61.6216 40.4695C61.6216 40.1617 61.6784 39.9072 61.7921 39.706C61.9057 39.5047 62.0608 39.3438 62.2573 39.223C62.4538 39.1023 62.6751 39.0111 62.9213 38.9496C63.1699 38.8857 63.4268 38.8395 63.6919 38.8111C64.0115 38.7779 64.2708 38.7483 64.4696 38.7223C64.6685 38.6939 64.8129 38.6513 64.9029 38.5945C64.9952 38.5353 65.0414 38.4441 65.0414 38.321V38.2997C65.0414 38.0322 64.9621 37.825 64.8034 37.6783C64.6448 37.5315 64.4164 37.4581 64.1181 37.4581C63.8032 37.4581 63.5534 37.5268 63.3688 37.6641C63.1865 37.8014 63.0634 37.9635 62.9995 38.1506L61.7992 37.9801C61.8939 37.6487 62.0501 37.3717 62.2679 37.1491C62.4857 36.9242 62.7521 36.7562 63.0669 36.6449C63.3818 36.5312 63.7298 36.4744 64.111 36.4744C64.3738 36.4744 64.6354 36.5052 64.8958 36.5668C65.1562 36.6283 65.3941 36.7301 65.6096 36.8722C65.825 37.0118 65.9978 37.2024 66.128 37.4439C66.2606 37.6854 66.3269 37.9872 66.3269 38.3494V42H65.0911V41.2507H65.0485C64.9703 41.4022 64.8603 41.5443 64.7182 41.6768C64.5785 41.8071 64.4022 41.9124 64.1891 41.9929C63.9784 42.071 63.731 42.1101 63.4469 42.1101ZM63.7807 41.1655C64.0388 41.1655 64.2625 41.1146 64.4519 41.0128C64.6413 40.9086 64.7869 40.7713 64.8887 40.6009C64.9928 40.4304 65.0449 40.2446 65.0449 40.0433V39.4006C65.0047 39.4337 64.936 39.4645 64.839 39.4929C64.7443 39.5213 64.6377 39.5462 64.5194 39.5675C64.401 39.5888 64.2838 39.6077 64.1678 39.6243C64.0518 39.6409 63.9512 39.6551 63.8659 39.6669C63.6742 39.6929 63.5025 39.7356 63.351 39.7947C63.1995 39.8539 63.08 39.9368 62.9924 40.0433C62.9048 40.1475 62.861 40.2824 62.861 40.4482C62.861 40.6849 62.9474 40.8636 63.1202 40.9844C63.293 41.1051 63.5132 41.1655 63.7807 41.1655Z" fill="black" fill-opacity="0.45"/>
<path d="M18.7955 79V55.7273H27.5227C29.3106 55.7273 30.8106 56.0606 32.0227 56.7273C33.2424 57.3939 34.1629 58.3106 34.7841 59.4773C35.4129 60.6364 35.7273 61.9545 35.7273 63.4318C35.7273 64.9242 35.4129 66.25 34.7841 67.4091C34.1553 68.5682 33.2273 69.4811 32 70.1477C30.7727 70.8068 29.2614 71.1364 27.4659 71.1364H21.6818V67.6705H26.8977C27.9432 67.6705 28.7992 67.4886 29.4659 67.125C30.1326 66.7614 30.625 66.2614 30.9432 65.625C31.2689 64.9886 31.4318 64.2576 31.4318 63.4318C31.4318 62.6061 31.2689 61.8788 30.9432 61.25C30.625 60.6212 30.1288 60.1326 29.4545 59.7841C28.7879 59.428 27.928 59.25 26.875 59.25H23.0114V79H18.7955ZM43.9176 79.3523C42.8116 79.3523 41.8153 79.1553 40.929 78.7614C40.0502 78.3598 39.3532 77.7689 38.8381 76.9886C38.3305 76.2083 38.0767 75.2462 38.0767 74.1023C38.0767 73.1174 38.2585 72.303 38.6222 71.6591C38.9858 71.0152 39.482 70.5 40.1108 70.1136C40.7396 69.7273 41.4479 69.4356 42.2358 69.2386C43.0313 69.0341 43.8532 68.8864 44.7017 68.7955C45.7244 68.6894 46.554 68.5947 47.1903 68.5114C47.8267 68.4205 48.2888 68.2841 48.5767 68.1023C48.8722 67.9129 49.0199 67.6212 49.0199 67.2273V67.1591C49.0199 66.303 48.7661 65.6402 48.2585 65.1705C47.7509 64.7008 47.0199 64.4659 46.0653 64.4659C45.0578 64.4659 44.2585 64.6856 43.6676 65.125C43.0843 65.5644 42.6903 66.0833 42.4858 66.6818L38.6449 66.1364C38.9479 65.0758 39.4479 64.1894 40.1449 63.4773C40.8419 62.7576 41.6941 62.2197 42.7017 61.8636C43.7093 61.5 44.8229 61.3182 46.0426 61.3182C46.8835 61.3182 47.7206 61.4167 48.554 61.6136C49.3873 61.8106 50.1487 62.1364 50.8381 62.5909C51.5275 63.0379 52.0805 63.6477 52.4972 64.4205C52.9214 65.1932 53.1335 66.1591 53.1335 67.3182V79H49.179V76.6023H49.0426C48.7926 77.0871 48.4403 77.5417 47.9858 77.9659C47.5388 78.3826 46.9744 78.7197 46.2926 78.9773C45.6184 79.2273 44.8267 79.3523 43.9176 79.3523ZM44.9858 76.3295C45.8116 76.3295 46.5275 76.1667 47.1335 75.8409C47.7396 75.5076 48.2055 75.0682 48.5312 74.5227C48.8646 73.9773 49.0312 73.3826 49.0312 72.7386V70.6818C48.9025 70.7879 48.6828 70.8864 48.3722 70.9773C48.0691 71.0682 47.7282 71.1477 47.3494 71.2159C46.9706 71.2841 46.5956 71.3447 46.2244 71.3977C45.8532 71.4508 45.5313 71.4962 45.2585 71.5341C44.6449 71.6174 44.0956 71.7538 43.6108 71.9432C43.1259 72.1326 42.7434 72.3977 42.4631 72.7386C42.1828 73.072 42.0426 73.5038 42.0426 74.0341C42.0426 74.7917 42.3191 75.3636 42.8722 75.75C43.4252 76.1364 44.1297 76.3295 44.9858 76.3295ZM65.9858 61.5455V64.7273H55.9517V61.5455H65.9858ZM58.429 57.3636H62.5426V73.75C62.5426 74.303 62.6259 74.7273 62.7926 75.0227C62.9669 75.3106 63.1941 75.5076 63.4744 75.6136C63.7547 75.7197 64.0653 75.7727 64.4062 75.7727C64.6638 75.7727 64.8987 75.7538 65.1108 75.7159C65.3305 75.678 65.4972 75.6439 65.6108 75.6136L66.304 78.8295C66.0843 78.9053 65.7699 78.9886 65.3608 79.0795C64.9593 79.1705 64.4669 79.2235 63.8835 79.2386C62.8532 79.2689 61.9252 79.1136 61.0994 78.7727C60.2737 78.4242 59.6184 77.8864 59.1335 77.1591C58.6563 76.4318 58.4214 75.5227 58.429 74.4318V57.3636ZM76.8523 79.3409C75.1477 79.3409 73.6705 78.9659 72.4205 78.2159C71.1705 77.4659 70.2008 76.4167 69.5114 75.0682C68.8295 73.7197 68.4886 72.1439 68.4886 70.3409C68.4886 68.5379 68.8295 66.9583 69.5114 65.6023C70.2008 64.2462 71.1705 63.1932 72.4205 62.4432C73.6705 61.6932 75.1477 61.3182 76.8523 61.3182C78.5568 61.3182 80.0341 61.6932 81.2841 62.4432C82.5341 63.1932 83.5 64.2462 84.1818 65.6023C84.8712 66.9583 85.2159 68.5379 85.2159 70.3409C85.2159 72.1439 84.8712 73.7197 84.1818 75.0682C83.5 76.4167 82.5341 77.4659 81.2841 78.2159C80.0341 78.9659 78.5568 79.3409 76.8523 79.3409ZM76.875 76.0455C77.7992 76.0455 78.572 75.7917 79.1932 75.2841C79.8144 74.7689 80.2765 74.0795 80.5795 73.2159C80.8902 72.3523 81.0455 71.3902 81.0455 70.3295C81.0455 69.2614 80.8902 68.2955 80.5795 67.4318C80.2765 66.5606 79.8144 65.8674 79.1932 65.3523C78.572 64.8371 77.7992 64.5795 76.875 64.5795C75.928 64.5795 75.1402 64.8371 74.5114 65.3523C73.8902 65.8674 73.4242 66.5606 73.1136 67.4318C72.8106 68.2955 72.6591 69.2614 72.6591 70.3295C72.6591 71.3902 72.8106 72.3523 73.1136 73.2159C73.4242 74.0795 73.8902 74.7689 74.5114 75.2841C75.1402 75.7917 75.928 76.0455 76.875 76.0455ZM92.821 55.7273V79H88.7074V55.7273H92.821ZM104.665 79.3409C102.96 79.3409 101.483 78.9659 100.233 78.2159C98.983 77.4659 98.0133 76.4167 97.3239 75.0682C96.642 73.7197 96.3011 72.1439 96.3011 70.3409C96.3011 68.5379 96.642 66.9583 97.3239 65.6023C98.0133 64.2462 98.983 63.1932 100.233 62.4432C101.483 61.6932 102.96 61.3182 104.665 61.3182C106.369 61.3182 107.847 61.6932 109.097 62.4432C110.347 63.1932 111.313 64.2462 111.994 65.6023C112.684 66.9583 113.028 68.5379 113.028 70.3409C113.028 72.1439 112.684 73.7197 111.994 75.0682C111.313 76.4167 110.347 77.4659 109.097 78.2159C107.847 78.9659 106.369 79.3409 104.665 79.3409ZM104.688 76.0455C105.612 76.0455 106.384 75.7917 107.006 75.2841C107.627 74.7689 108.089 74.0795 108.392 73.2159C108.703 72.3523 108.858 71.3902 108.858 70.3295C108.858 69.2614 108.703 68.2955 108.392 67.4318C108.089 66.5606 107.627 65.8674 107.006 65.3523C106.384 64.8371 105.612 64.5795 104.688 64.5795C103.741 64.5795 102.953 64.8371 102.324 65.3523C101.703 65.8674 101.237 66.5606 100.926 67.4318C100.623 68.2955 100.472 69.2614 100.472 70.3295C100.472 71.3902 100.623 72.3523 100.926 73.2159C101.237 74.0795 101.703 74.7689 102.324 75.2841C102.953 75.7917 103.741 76.0455 104.688 76.0455ZM124.111 85.9091C122.634 85.9091 121.365 85.7083 120.304 85.3068C119.243 84.9129 118.391 84.3826 117.747 83.7159C117.103 83.0492 116.656 82.3106 116.406 81.5L120.111 80.6023C120.277 80.9432 120.52 81.2803 120.838 81.6136C121.156 81.9545 121.584 82.2348 122.122 82.4545C122.668 82.6818 123.353 82.7955 124.179 82.7955C125.346 82.7955 126.312 82.5114 127.077 81.9432C127.842 81.3826 128.224 80.4583 128.224 79.1705V75.8636H128.02C127.808 76.2879 127.497 76.7235 127.088 77.1705C126.687 77.6174 126.152 77.9924 125.486 78.2955C124.827 78.5985 123.997 78.75 122.997 78.75C121.656 78.75 120.44 78.4356 119.349 77.8068C118.266 77.1705 117.402 76.2235 116.759 74.9659C116.122 73.7008 115.804 72.1174 115.804 70.2159C115.804 68.2992 116.122 66.6818 116.759 65.3636C117.402 64.0379 118.27 63.0341 119.361 62.3523C120.452 61.6629 121.668 61.3182 123.009 61.3182C124.031 61.3182 124.872 61.4924 125.531 61.8409C126.198 62.1818 126.728 62.5947 127.122 63.0795C127.516 63.5568 127.815 64.0076 128.02 64.4318H128.247V61.5455H132.304V79.2841C132.304 80.7765 131.948 82.0114 131.236 82.9886C130.524 83.9659 129.55 84.697 128.315 85.1818C127.08 85.6667 125.679 85.9091 124.111 85.9091ZM124.145 75.5227C125.016 75.5227 125.759 75.3106 126.372 74.8864C126.986 74.4621 127.452 73.8523 127.77 73.0568C128.088 72.2614 128.247 71.3068 128.247 70.1932C128.247 69.0947 128.088 68.1326 127.77 67.3068C127.459 66.4811 126.997 65.8409 126.384 65.3864C125.777 64.9242 125.031 64.6932 124.145 64.6932C123.228 64.6932 122.463 64.9318 121.849 65.4091C121.236 65.8864 120.774 66.5417 120.463 67.375C120.152 68.2008 119.997 69.1402 119.997 70.1932C119.997 71.2614 120.152 72.197 120.463 73C120.781 73.7955 121.247 74.4167 121.861 74.8636C122.482 75.303 123.243 75.5227 124.145 75.5227ZM136.52 79V61.5455H140.634V79H136.52ZM138.588 59.0682C137.937 59.0682 137.376 58.8523 136.906 58.4205C136.437 57.9811 136.202 57.4545 136.202 56.8409C136.202 56.2197 136.437 55.6932 136.906 55.2614C137.376 54.822 137.937 54.6023 138.588 54.6023C139.247 54.6023 139.808 54.822 140.27 55.2614C140.74 55.6932 140.974 56.2197 140.974 56.8409C140.974 57.4545 140.74 57.9811 140.27 58.4205C139.808 58.8523 139.247 59.0682 138.588 59.0682ZM149.886 79.3523C148.78 79.3523 147.784 79.1553 146.898 78.7614C146.019 78.3598 145.322 77.7689 144.807 76.9886C144.299 76.2083 144.045 75.2462 144.045 74.1023C144.045 73.1174 144.227 72.303 144.591 71.6591C144.955 71.0152 145.451 70.5 146.08 70.1136C146.708 69.7273 147.417 69.4356 148.205 69.2386C149 69.0341 149.822 68.8864 150.67 68.7955C151.693 68.6894 152.523 68.5947 153.159 68.5114C153.795 68.4205 154.258 68.2841 154.545 68.1023C154.841 67.9129 154.989 67.6212 154.989 67.2273V67.1591C154.989 66.303 154.735 65.6402 154.227 65.1705C153.72 64.7008 152.989 64.4659 152.034 64.4659C151.027 64.4659 150.227 64.6856 149.636 65.125C149.053 65.5644 148.659 66.0833 148.455 66.6818L144.614 66.1364C144.917 65.0758 145.417 64.1894 146.114 63.4773C146.811 62.7576 147.663 62.2197 148.67 61.8636C149.678 61.5 150.792 61.3182 152.011 61.3182C152.852 61.3182 153.689 61.4167 154.523 61.6136C155.356 61.8106 156.117 62.1364 156.807 62.5909C157.496 63.0379 158.049 63.6477 158.466 64.4205C158.89 65.1932 159.102 66.1591 159.102 67.3182V79H155.148V76.6023H155.011C154.761 77.0871 154.409 77.5417 153.955 77.9659C153.508 78.3826 152.943 78.7197 152.261 78.9773C151.587 79.2273 150.795 79.3523 149.886 79.3523ZM150.955 76.3295C151.78 76.3295 152.496 76.1667 153.102 75.8409C153.708 75.5076 154.174 75.0682 154.5 74.5227C154.833 73.9773 155 73.3826 155 72.7386V70.6818C154.871 70.7879 154.652 70.8864 154.341 70.9773C154.038 71.0682 153.697 71.1477 153.318 71.2159C152.939 71.2841 152.564 71.3447 152.193 71.3977C151.822 71.4508 151.5 71.4962 151.227 71.5341C150.614 71.6174 150.064 71.7538 149.58 71.9432C149.095 72.1326 148.712 72.3977 148.432 72.7386C148.152 73.072 148.011 73.5038 148.011 74.0341C148.011 74.7917 148.288 75.3636 148.841 75.75C149.394 76.1364 150.098 76.3295 150.955 76.3295Z" fill="#343A40"/>
<path fill-rule="evenodd" clip-rule="evenodd" d="M22.3333 129.667C20.0321 129.667 18.1667 131.532 18.1667 133.833V142.167C18.1667 144.468 20.0321 146.333 22.3333 146.333H30.6667C32.9678 146.333 34.8333 144.468 34.8333 142.167V133.833C34.8333 131.532 32.9678 129.667 30.6667 129.667H22.3333ZM27.6208 134.222C27.1622 133.293 25.8374 133.293 25.3789 134.222L24.7219 135.553L23.2528 135.766C22.2275 135.915 21.8181 137.175 22.56 137.898L23.6231 138.935L23.3721 140.398C23.197 141.419 24.2688 142.198 25.1858 141.716L26.4998 141.025L27.8139 141.716C28.7309 142.198 29.8027 141.419 29.6276 140.398L29.3766 138.935L30.4397 137.898C31.1816 137.175 30.7722 135.915 29.7469 135.766L28.2778 135.553L27.6208 134.222Z" fill="#A93276"/>
<path d="M43.8345 142.138C43.2498 142.138 42.7479 141.991 42.3288 141.695C41.9122 141.396 41.5914 140.967 41.3665 140.406C41.1439 139.842 41.0327 139.164 41.0327 138.371C41.035 137.578 41.1475 136.903 41.37 136.347C41.5949 135.788 41.9157 135.362 42.3324 135.068C42.7514 134.775 43.2521 134.628 43.8345 134.628C44.4169 134.628 44.9176 134.775 45.3366 135.068C45.7557 135.362 46.0765 135.788 46.299 136.347C46.5239 136.905 46.6364 137.58 46.6364 138.371C46.6364 139.166 46.5239 139.846 46.299 140.409C46.0765 140.97 45.7557 141.399 45.3366 141.695C44.92 141.991 44.4193 142.138 43.8345 142.138ZM43.8345 141.027C44.2891 141.027 44.6477 140.803 44.9105 140.356C45.1757 139.906 45.3082 139.244 45.3082 138.371C45.3082 137.793 45.2479 137.308 45.1271 136.915C45.0064 136.522 44.8359 136.226 44.6158 136.027C44.3956 135.826 44.1352 135.725 43.8345 135.725C43.3823 135.725 43.0249 135.95 42.7621 136.4C42.4993 136.847 42.3667 137.504 42.3643 138.371C42.362 138.951 42.42 139.438 42.5384 139.834C42.6591 140.229 42.8295 140.527 43.0497 140.729C43.2699 140.928 43.5315 141.027 43.8345 141.027ZM53.2797 134.386L50.9359 143.094H49.8102L52.1539 134.386H53.2797ZM59.5243 134.727V142H58.2069V136.009H58.1642L56.4632 137.096V135.888L58.2708 134.727H59.5243ZM61.2395 140.651V139.603L64.3255 134.727H65.199V136.219H64.6664L62.589 139.511V139.567H66.8965V140.651H61.2395ZM64.709 142V140.331L64.7232 139.862V134.727H65.9661V142H64.709Z" fill="black" fill-opacity="0.45"/>
<rect x="308.5" y="116" width="44" height="44" rx="15" fill="#A93276"/>
<path fill-rule="evenodd" clip-rule="evenodd" d="M331.793 130.293C332.183 129.902 332.817 129.902 333.207 130.293L340.207 137.293C340.598 137.683 340.598 138.317 340.207 138.707L333.207 145.707C332.817 146.098 332.183 146.098 331.793 145.707C331.402 145.317 331.402 144.683 331.793 144.293L337.086 139H321.5C320.948 139 320.5 138.552 320.5 138C320.5 137.448 320.948 137 321.5 137H337.086L331.793 131.707C331.402 131.317 331.402 130.683 331.793 130.293Z" fill="white"/>
</svg>
