<svg width="369" height="176" viewBox="0 0 369 176" fill="none" xmlns="http://www.w3.org/2000/svg">
<rect x="0.5" width="368" height="176" rx="32" fill="#8AD1BF"/>
<path d="M19.902 42L21.0952 34.7273H22.0895L20.8963 42H19.902ZM16.6243 40.125L16.7912 39.1307H22.3878L22.2209 40.125H16.6243ZM17.3452 42L18.5384 34.7273H19.5327L18.3395 42H17.3452ZM17.0469 37.5966L17.2102 36.6023H22.8068L22.6435 37.5966H17.0469ZM27.236 44.0455V41.1406H27.1827C27.1164 41.2732 27.0205 41.4141 26.8951 41.5632C26.7696 41.71 26.6039 41.8355 26.3979 41.9396C26.1919 42.0438 25.9327 42.0959 25.6202 42.0959C25.1917 42.0959 24.8082 41.9858 24.4696 41.7656C24.1311 41.5455 23.8636 41.2259 23.6671 40.8068C23.4706 40.3878 23.3723 39.8788 23.3723 39.2798C23.3723 38.6738 23.4718 38.1624 23.6706 37.7457C23.8719 37.3267 24.1429 37.0107 24.4838 36.7976C24.8248 36.5821 25.2047 36.4744 25.6238 36.4744C25.9434 36.4744 26.2061 36.5289 26.4121 36.6378C26.6181 36.7443 26.7814 36.8733 26.9022 37.0249C27.0229 37.174 27.1164 37.3149 27.1827 37.4474H27.2608V36.5455H28.525V44.0455H27.236ZM25.9789 41.0412C26.2511 41.0412 26.4831 40.9678 26.6749 40.821C26.8667 40.6719 27.0123 40.4647 27.1117 40.1996C27.2111 39.9344 27.2608 39.6255 27.2608 39.2727C27.2608 38.92 27.2111 38.6134 27.1117 38.353C27.0146 38.0926 26.8702 37.8902 26.6784 37.7457C26.4891 37.6013 26.2559 37.5291 25.9789 37.5291C25.6924 37.5291 25.4533 37.6037 25.2615 37.7528C25.0698 37.902 24.9254 38.108 24.8283 38.3707C24.7312 38.6335 24.6827 38.9342 24.6827 39.2727C24.6827 39.6136 24.7312 39.9179 24.8283 40.1854C24.9277 40.4505 25.0733 40.66 25.2651 40.8139C25.4592 40.9654 25.6971 41.0412 25.9789 41.0412ZM33.3226 39.706V36.5455H34.6081V42H33.3617V41.0305H33.3049C33.1818 41.3359 32.9793 41.5857 32.6976 41.7798C32.4183 41.974 32.0738 42.071 31.6642 42.071C31.3068 42.071 30.9907 41.9917 30.7161 41.8331C30.4438 41.6721 30.2308 41.4389 30.0769 41.1335C29.923 40.8258 29.8461 40.4541 29.8461 40.0185V36.5455H31.1316V39.8196C31.1316 40.1652 31.2263 40.4399 31.4157 40.6435C31.6051 40.8471 31.8536 40.9489 32.1614 40.9489C32.3508 40.9489 32.5343 40.9027 32.7118 40.8104C32.8894 40.718 33.035 40.5807 33.1486 40.3984C33.2646 40.2138 33.3226 39.983 33.3226 39.706ZM35.93 42V36.5455H37.2156V42H35.93ZM36.0827 35.8281L36.8782 34.2053H38.1353L37.0451 35.8281H36.0827ZM38.5375 42V36.5455H39.7662V37.4723H39.8301C39.9437 37.1598 40.1319 36.916 40.3947 36.7408C40.6575 36.5632 40.9712 36.4744 41.3358 36.4744C41.7051 36.4744 42.0164 36.5644 42.2697 36.7443C42.5254 36.9219 42.7053 37.1645 42.8095 37.4723H42.8663C42.987 37.1693 43.1906 36.9278 43.4771 36.7479C43.7659 36.5656 44.108 36.4744 44.5034 36.4744C45.0053 36.4744 45.4148 36.633 45.7321 36.9503C46.0493 37.2675 46.2079 37.7304 46.2079 38.3388V42H44.9189V38.5376C44.9189 38.1991 44.8289 37.9517 44.649 37.7955C44.469 37.6368 44.2489 37.5575 43.9885 37.5575C43.6783 37.5575 43.4357 37.6546 43.2605 37.8487C43.0877 38.0405 43.0012 38.2902 43.0012 38.598V42H41.7406V38.4844C41.7406 38.2027 41.6554 37.9777 41.4849 37.8097C41.3168 37.6416 41.0967 37.5575 40.8244 37.5575C40.6397 37.5575 40.4717 37.6049 40.3201 37.6996C40.1686 37.7919 40.0479 37.9233 39.9579 38.0938C39.868 38.2618 39.823 38.4583 39.823 38.6832V42H38.5375ZM47.5121 42V36.5455H48.7976V42H47.5121ZM48.1584 35.7713C47.9548 35.7713 47.7796 35.7038 47.6328 35.5689C47.486 35.4316 47.4126 35.267 47.4126 35.0753C47.4126 34.8812 47.486 34.7166 47.6328 34.5817C47.7796 34.4444 47.9548 34.3757 48.1584 34.3757C48.3643 34.3757 48.5395 34.4444 48.6839 34.5817C48.8307 34.7166 48.9041 34.8812 48.9041 35.0753C48.9041 35.267 48.8307 35.4316 48.6839 35.5689C48.5395 35.7038 48.3643 35.7713 48.1584 35.7713ZM52.4988 42.1065C51.9542 42.1065 51.4867 41.987 51.0961 41.7479C50.7078 41.5088 50.4083 41.1785 50.1976 40.7571C49.9893 40.3333 49.8851 39.8456 49.8851 39.294C49.8851 38.7401 49.9917 38.2512 50.2047 37.8274C50.4178 37.4013 50.7185 37.0698 51.1067 36.8331C51.4973 36.594 51.959 36.4744 52.4917 36.4744C52.9344 36.4744 53.3262 36.5561 53.6671 36.7195C54.0104 36.8804 54.2838 37.1089 54.4874 37.4048C54.691 37.6984 54.807 38.0417 54.8354 38.4347H53.6067C53.557 38.1719 53.4386 37.9529 53.2516 37.7777C53.0669 37.6001 52.8195 37.5114 52.5094 37.5114C52.2466 37.5114 52.0158 37.5824 51.8169 37.7244C51.6181 37.8641 51.463 38.0653 51.3517 38.3281C51.2428 38.5909 51.1884 38.9058 51.1884 39.2727C51.1884 39.6444 51.2428 39.964 51.3517 40.2315C51.4606 40.4967 51.6133 40.7015 51.8098 40.8459C52.0087 40.9879 52.2419 41.0589 52.5094 41.0589C52.6988 41.0589 52.8681 41.0234 53.0172 40.9524C53.1687 40.879 53.2954 40.7737 53.3972 40.6364C53.499 40.4991 53.5688 40.3321 53.6067 40.1357H54.8354C54.8046 40.5215 54.691 40.8636 54.4945 41.1619C54.298 41.4579 54.0305 41.6899 53.6919 41.858C53.3534 42.0237 52.9557 42.1065 52.4988 42.1065ZM57.4606 42.1101C57.1149 42.1101 56.8036 42.0485 56.5266 41.9254C56.252 41.8 56.0342 41.6153 55.8732 41.3714C55.7146 41.1276 55.6353 40.8269 55.6353 40.4695C55.6353 40.1617 55.6921 39.9072 55.8058 39.706C55.9194 39.5047 56.0745 39.3438 56.271 39.223C56.4674 39.1023 56.6888 39.0111 56.935 38.9496C57.1836 38.8857 57.4405 38.8395 57.7056 38.8111C58.0252 38.7779 58.2844 38.7483 58.4833 38.7223C58.6822 38.6939 58.8266 38.6513 58.9165 38.5945C59.0089 38.5353 59.055 38.4441 59.055 38.321V38.2997C59.055 38.0322 58.9757 37.825 58.8171 37.6783C58.6585 37.5315 58.43 37.4581 58.1317 37.4581C57.8169 37.4581 57.5671 37.5268 57.3825 37.6641C57.2002 37.8014 57.0771 37.9635 57.0131 38.1506L55.8129 37.9801C55.9076 37.6487 56.0638 37.3717 56.2816 37.1491C56.4994 36.9242 56.7657 36.7562 57.0806 36.6449C57.3955 36.5312 57.7435 36.4744 58.1246 36.4744C58.3874 36.4744 58.649 36.5052 58.9094 36.5668C59.1699 36.6283 59.4078 36.7301 59.6232 36.8722C59.8387 37.0118 60.0115 37.2024 60.1417 37.4439C60.2743 37.6854 60.3406 37.9872 60.3406 38.3494V42H59.1048V41.2507H59.0621C58.984 41.4022 58.8739 41.5443 58.7319 41.6768C58.5922 41.8071 58.4158 41.9124 58.2028 41.9929C57.9921 42.071 57.7447 42.1101 57.4606 42.1101ZM57.7944 41.1655C58.0524 41.1655 58.2762 41.1146 58.4656 41.0128C58.6549 40.9086 58.8005 40.7713 58.9023 40.6009C59.0065 40.4304 59.0586 40.2446 59.0586 40.0433V39.4006C59.0183 39.4337 58.9497 39.4645 58.8526 39.4929C58.7579 39.5213 58.6514 39.5462 58.533 39.5675C58.4147 39.5888 58.2975 39.6077 58.1815 39.6243C58.0655 39.6409 57.9648 39.6551 57.8796 39.6669C57.6879 39.6929 57.5162 39.7356 57.3647 39.7947C57.2132 39.8539 57.0936 39.9368 57.006 40.0433C56.9184 40.1475 56.8746 40.2824 56.8746 40.4482C56.8746 40.6849 56.9611 40.8636 57.1339 40.9844C57.3067 41.1051 57.5269 41.1655 57.7944 41.1655Z" fill="black" fill-opacity="0.45"/>
<path d="M18.7955 79V55.7273H23.0114V65.5795H33.7955V55.7273H38.0227V79H33.7955V69.1136H23.0114V79H18.7955ZM42.4261 79V61.5455H46.5398V79H42.4261ZM44.4943 59.0682C43.8428 59.0682 43.2822 58.8523 42.8125 58.4205C42.3428 57.9811 42.108 57.4545 42.108 56.8409C42.108 56.2197 42.3428 55.6932 42.8125 55.2614C43.2822 54.822 43.8428 54.6023 44.4943 54.6023C45.1534 54.6023 45.714 54.822 46.1761 55.2614C46.6458 55.6932 46.8807 56.2197 46.8807 56.8409C46.8807 57.4545 46.6458 57.9811 46.1761 58.4205C45.714 58.8523 45.1534 59.0682 44.4943 59.0682ZM57.2472 79.3068C55.8759 79.3068 54.6487 78.9545 53.5653 78.25C52.482 77.5455 51.6259 76.5227 50.9972 75.1818C50.3684 73.8409 50.054 72.2121 50.054 70.2955C50.054 68.3561 50.3722 66.7197 51.0085 65.3864C51.6525 64.0455 52.5199 63.0341 53.6108 62.3523C54.7017 61.6629 55.9176 61.3182 57.2585 61.3182C58.2813 61.3182 59.1222 61.4924 59.7812 61.8409C60.4403 62.1818 60.9631 62.5947 61.3494 63.0795C61.7358 63.5568 62.035 64.0076 62.2472 64.4318H62.4176V55.7273H66.5426V79H62.4972V76.25H62.2472C62.035 76.6742 61.7282 77.125 61.3267 77.6023C60.9252 78.072 60.3949 78.4735 59.7358 78.8068C59.0767 79.1402 58.2472 79.3068 57.2472 79.3068ZM58.3949 75.9318C59.2661 75.9318 60.0085 75.697 60.6222 75.2273C61.2358 74.75 61.7017 74.0871 62.0199 73.2386C62.3381 72.3902 62.4972 71.4015 62.4972 70.2727C62.4972 69.1439 62.3381 68.1629 62.0199 67.3295C61.7093 66.4962 61.2472 65.8485 60.6335 65.3864C60.0275 64.9242 59.2813 64.6932 58.3949 64.6932C57.4782 64.6932 56.7131 64.9318 56.0994 65.4091C55.4858 65.8864 55.0237 66.5455 54.7131 67.3864C54.4025 68.2273 54.2472 69.1894 54.2472 70.2727C54.2472 71.3636 54.4025 72.3371 54.7131 73.1932C55.0313 74.0417 55.4972 74.7121 56.1108 75.2045C56.732 75.6894 57.4934 75.9318 58.3949 75.9318ZM70.9261 79V61.5455H74.9148V64.4545H75.0966C75.4148 63.447 75.9602 62.6705 76.733 62.125C77.5133 61.572 78.4034 61.2955 79.4034 61.2955C79.6307 61.2955 79.8845 61.3068 80.1648 61.3295C80.4527 61.3447 80.6913 61.3712 80.8807 61.4091V65.1932C80.7064 65.1326 80.4299 65.0795 80.0511 65.0341C79.6799 64.9811 79.3201 64.9545 78.9716 64.9545C78.2216 64.9545 77.5473 65.1174 76.9489 65.4432C76.358 65.7614 75.892 66.2045 75.5511 66.7727C75.2102 67.3409 75.0398 67.9962 75.0398 68.7386V79H70.9261ZM90.5085 79.3409C88.804 79.3409 87.3267 78.9659 86.0767 78.2159C84.8267 77.4659 83.857 76.4167 83.1676 75.0682C82.4858 73.7197 82.1449 72.1439 82.1449 70.3409C82.1449 68.5379 82.4858 66.9583 83.1676 65.6023C83.857 64.2462 84.8267 63.1932 86.0767 62.4432C87.3267 61.6932 88.804 61.3182 90.5085 61.3182C92.2131 61.3182 93.6903 61.6932 94.9403 62.4432C96.1903 63.1932 97.1563 64.2462 97.8381 65.6023C98.5275 66.9583 98.8722 68.5379 98.8722 70.3409C98.8722 72.1439 98.5275 73.7197 97.8381 75.0682C97.1563 76.4167 96.1903 77.4659 94.9403 78.2159C93.6903 78.9659 92.2131 79.3409 90.5085 79.3409ZM90.5312 76.0455C91.4555 76.0455 92.2282 75.7917 92.8494 75.2841C93.4706 74.7689 93.9328 74.0795 94.2358 73.2159C94.5464 72.3523 94.7017 71.3902 94.7017 70.3295C94.7017 69.2614 94.5464 68.2955 94.2358 67.4318C93.9328 66.5606 93.4706 65.8674 92.8494 65.3523C92.2282 64.8371 91.4555 64.5795 90.5312 64.5795C89.5843 64.5795 88.7964 64.8371 88.1676 65.3523C87.5464 65.8674 87.0805 66.5606 86.7699 67.4318C86.4669 68.2955 86.3153 69.2614 86.3153 70.3295C86.3153 71.3902 86.4669 72.3523 86.7699 73.2159C87.0805 74.0795 87.5464 74.7689 88.1676 75.2841C88.7964 75.7917 89.5843 76.0455 90.5312 76.0455ZM109.977 79.3409C108.235 79.3409 106.739 78.9583 105.489 78.1932C104.246 77.428 103.288 76.3712 102.614 75.0227C101.947 73.6667 101.614 72.1061 101.614 70.3409C101.614 68.5682 101.955 67.0038 102.636 65.6477C103.318 64.2841 104.28 63.2235 105.523 62.4659C106.773 61.7008 108.25 61.3182 109.955 61.3182C111.371 61.3182 112.625 61.5795 113.716 62.1023C114.814 62.6174 115.689 63.3485 116.341 64.2955C116.992 65.2348 117.364 66.3333 117.455 67.5909H113.523C113.364 66.75 112.985 66.0492 112.386 65.4886C111.795 64.9205 111.004 64.6364 110.011 64.6364C109.17 64.6364 108.432 64.8636 107.795 65.3182C107.159 65.7652 106.663 66.4091 106.307 67.25C105.958 68.0909 105.784 69.0985 105.784 70.2727C105.784 71.4621 105.958 72.4848 106.307 73.3409C106.655 74.1894 107.144 74.8447 107.773 75.3068C108.409 75.7614 109.155 75.9886 110.011 75.9886C110.617 75.9886 111.159 75.875 111.636 75.6477C112.121 75.4129 112.527 75.0758 112.852 74.6364C113.178 74.197 113.402 73.6629 113.523 73.0341H117.455C117.356 74.2689 116.992 75.3636 116.364 76.3182C115.735 77.2652 114.879 78.0076 113.795 78.5455C112.712 79.0758 111.439 79.3409 109.977 79.3409ZM125.855 79.3523C124.749 79.3523 123.753 79.1553 122.866 78.7614C121.988 78.3598 121.291 77.7689 120.776 76.9886C120.268 76.2083 120.014 75.2462 120.014 74.1023C120.014 73.1174 120.196 72.303 120.56 71.6591C120.923 71.0152 121.42 70.5 122.048 70.1136C122.677 69.7273 123.385 69.4356 124.173 69.2386C124.969 69.0341 125.791 68.8864 126.639 68.7955C127.662 68.6894 128.491 68.5947 129.128 68.5114C129.764 68.4205 130.226 68.2841 130.514 68.1023C130.81 67.9129 130.957 67.6212 130.957 67.2273V67.1591C130.957 66.303 130.704 65.6402 130.196 65.1705C129.688 64.7008 128.957 64.4659 128.003 64.4659C126.995 64.4659 126.196 64.6856 125.605 65.125C125.022 65.5644 124.628 66.0833 124.423 66.6818L120.582 66.1364C120.885 65.0758 121.385 64.1894 122.082 63.4773C122.779 62.7576 123.632 62.2197 124.639 61.8636C125.647 61.5 126.76 61.3182 127.98 61.3182C128.821 61.3182 129.658 61.4167 130.491 61.6136C131.325 61.8106 132.086 62.1364 132.776 62.5909C133.465 63.0379 134.018 63.6477 134.435 64.4205C134.859 65.1932 135.071 66.1591 135.071 67.3182V79H131.116V76.6023H130.98C130.73 77.0871 130.378 77.5417 129.923 77.9659C129.476 78.3826 128.912 78.7197 128.23 78.9773C127.556 79.2273 126.764 79.3523 125.855 79.3523ZM126.923 76.3295C127.749 76.3295 128.465 76.1667 129.071 75.8409C129.677 75.5076 130.143 75.0682 130.469 74.5227C130.802 73.9773 130.969 73.3826 130.969 72.7386V70.6818C130.84 70.7879 130.62 70.8864 130.31 70.9773C130.007 71.0682 129.666 71.1477 129.287 71.2159C128.908 71.2841 128.533 71.3447 128.162 71.3977C127.791 71.4508 127.469 71.4962 127.196 71.5341C126.582 71.6174 126.033 71.7538 125.548 71.9432C125.063 72.1326 124.681 72.3977 124.401 72.7386C124.12 73.072 123.98 73.5038 123.98 74.0341C123.98 74.7917 124.257 75.3636 124.81 75.75C125.363 76.1364 126.067 76.3295 126.923 76.3295ZM139.207 79V61.5455H143.196V64.4545H143.378C143.696 63.447 144.241 62.6705 145.014 62.125C145.795 61.572 146.685 61.2955 147.685 61.2955C147.912 61.2955 148.166 61.3068 148.446 61.3295C148.734 61.3447 148.973 61.3712 149.162 61.4091V65.1932C148.988 65.1326 148.711 65.0795 148.332 65.0341C147.961 64.9811 147.601 64.9545 147.253 64.9545C146.503 64.9545 145.829 65.1174 145.23 65.4432C144.639 65.7614 144.173 66.2045 143.832 66.7727C143.491 67.3409 143.321 67.9962 143.321 68.7386V79H139.207ZM152.077 79V55.7273H156.19V64.4318H156.361C156.573 64.0076 156.872 63.5568 157.259 63.0795C157.645 62.5947 158.168 62.1818 158.827 61.8409C159.486 61.4924 160.327 61.3182 161.349 61.3182C162.698 61.3182 163.914 61.6629 164.997 62.3523C166.088 63.0341 166.952 64.0455 167.588 65.3864C168.232 66.7197 168.554 68.3561 168.554 70.2955C168.554 72.2121 168.24 73.8409 167.611 75.1818C166.982 76.5227 166.126 77.5455 165.043 78.25C163.959 78.9545 162.732 79.3068 161.361 79.3068C160.361 79.3068 159.531 79.1402 158.872 78.8068C158.213 78.4735 157.683 78.072 157.281 77.6023C156.887 77.125 156.58 76.6742 156.361 76.25H156.122V79H152.077ZM156.111 70.2727C156.111 71.4015 156.27 72.3902 156.588 73.2386C156.914 74.0871 157.38 74.75 157.986 75.2273C158.599 75.697 159.342 75.9318 160.213 75.9318C161.122 75.9318 161.884 75.6894 162.497 75.2045C163.111 74.7121 163.573 74.0417 163.884 73.1932C164.202 72.3371 164.361 71.3636 164.361 70.2727C164.361 69.1894 164.205 68.2273 163.895 67.3864C163.584 66.5455 163.122 65.8864 162.509 65.4091C161.895 64.9318 161.13 64.6932 160.213 64.6932C159.334 64.6932 158.588 64.9242 157.974 65.3864C157.361 65.8485 156.895 66.4962 156.577 67.3295C156.266 68.1629 156.111 69.1439 156.111 70.2727ZM179.665 79.3409C177.96 79.3409 176.483 78.9659 175.233 78.2159C173.983 77.4659 173.013 76.4167 172.324 75.0682C171.642 73.7197 171.301 72.1439 171.301 70.3409C171.301 68.5379 171.642 66.9583 172.324 65.6023C173.013 64.2462 173.983 63.1932 175.233 62.4432C176.483 61.6932 177.96 61.3182 179.665 61.3182C181.369 61.3182 182.847 61.6932 184.097 62.4432C185.347 63.1932 186.313 64.2462 186.994 65.6023C187.684 66.9583 188.028 68.5379 188.028 70.3409C188.028 72.1439 187.684 73.7197 186.994 75.0682C186.313 76.4167 185.347 77.4659 184.097 78.2159C182.847 78.9659 181.369 79.3409 179.665 79.3409ZM179.688 76.0455C180.612 76.0455 181.384 75.7917 182.006 75.2841C182.627 74.7689 183.089 74.0795 183.392 73.2159C183.703 72.3523 183.858 71.3902 183.858 70.3295C183.858 69.2614 183.703 68.2955 183.392 67.4318C183.089 66.5606 182.627 65.8674 182.006 65.3523C181.384 64.8371 180.612 64.5795 179.688 64.5795C178.741 64.5795 177.953 64.8371 177.324 65.3523C176.703 65.8674 176.237 66.5606 175.926 67.4318C175.623 68.2955 175.472 69.2614 175.472 70.3295C175.472 71.3902 175.623 72.3523 175.926 73.2159C176.237 74.0795 176.703 74.7689 177.324 75.2841C177.953 75.7917 178.741 76.0455 179.688 76.0455ZM195.634 68.7727V79H191.52V61.5455H195.452V64.5114H195.656C196.058 63.5341 196.698 62.7576 197.577 62.1818C198.463 61.6061 199.558 61.3182 200.861 61.3182C202.065 61.3182 203.115 61.5758 204.009 62.0909C204.91 62.6061 205.607 63.3523 206.099 64.3295C206.599 65.3068 206.846 66.4924 206.838 67.8864V79H202.724V68.5227C202.724 67.3561 202.421 66.4432 201.815 65.7841C201.217 65.125 200.387 64.7955 199.327 64.7955C198.607 64.7955 197.967 64.9545 197.406 65.2727C196.853 65.5833 196.418 66.0341 196.099 66.625C195.789 67.2159 195.634 67.9318 195.634 68.7727ZM218.747 79.3409C216.997 79.3409 215.486 78.9773 214.213 78.25C212.948 77.5152 211.974 76.4773 211.293 75.1364C210.611 73.7879 210.27 72.2008 210.27 70.375C210.27 68.5795 210.611 67.0038 211.293 65.6477C211.982 64.2841 212.944 63.2235 214.179 62.4659C215.414 61.7008 216.865 61.3182 218.531 61.3182C219.607 61.3182 220.622 61.4924 221.577 61.8409C222.539 62.1818 223.387 62.7121 224.122 63.4318C224.865 64.1515 225.448 65.0682 225.872 66.1818C226.296 67.2879 226.509 68.6061 226.509 70.1364V71.3977H212.202V68.625H222.565C222.558 67.8371 222.387 67.1364 222.054 66.5227C221.721 65.9015 221.255 65.4129 220.656 65.0568C220.065 64.7008 219.376 64.5227 218.588 64.5227C217.747 64.5227 217.009 64.7273 216.372 65.1364C215.736 65.5379 215.24 66.0682 214.884 66.7273C214.535 67.3788 214.357 68.0947 214.349 68.875V71.2955C214.349 72.3106 214.535 73.1818 214.906 73.9091C215.277 74.6288 215.796 75.1818 216.463 75.5682C217.13 75.947 217.91 76.1364 218.804 76.1364C219.402 76.1364 219.944 76.053 220.429 75.8864C220.914 75.7121 221.334 75.4583 221.69 75.125C222.046 74.7917 222.315 74.3788 222.497 73.8864L226.338 74.3182C226.096 75.3333 225.634 76.2197 224.952 76.9773C224.277 77.7273 223.414 78.3106 222.361 78.7273C221.308 79.1364 220.103 79.3409 218.747 79.3409ZM238.705 61.5455V64.7273H228.67V61.5455H238.705ZM231.148 57.3636H235.261V73.75C235.261 74.303 235.345 74.7273 235.511 75.0227C235.686 75.3106 235.913 75.5076 236.193 75.6136C236.473 75.7197 236.784 75.7727 237.125 75.7727C237.383 75.7727 237.617 75.7538 237.83 75.7159C238.049 75.678 238.216 75.6439 238.33 75.6136L239.023 78.8295C238.803 78.9053 238.489 78.9886 238.08 79.0795C237.678 79.1705 237.186 79.2235 236.602 79.2386C235.572 79.2689 234.644 79.1136 233.818 78.7727C232.992 78.4242 232.337 77.8864 231.852 77.1591C231.375 76.4318 231.14 75.5227 231.148 74.4318V57.3636ZM249.571 79.3409C247.866 79.3409 246.389 78.9659 245.139 78.2159C243.889 77.4659 242.92 76.4167 242.23 75.0682C241.548 73.7197 241.207 72.1439 241.207 70.3409C241.207 68.5379 241.548 66.9583 242.23 65.6023C242.92 64.2462 243.889 63.1932 245.139 62.4432C246.389 61.6932 247.866 61.3182 249.571 61.3182C251.276 61.3182 252.753 61.6932 254.003 62.4432C255.253 63.1932 256.219 64.2462 256.901 65.6023C257.59 66.9583 257.935 68.5379 257.935 70.3409C257.935 72.1439 257.59 73.7197 256.901 75.0682C256.219 76.4167 255.253 77.4659 254.003 78.2159C252.753 78.9659 251.276 79.3409 249.571 79.3409ZM249.594 76.0455C250.518 76.0455 251.291 75.7917 251.912 75.2841C252.533 74.7689 252.995 74.0795 253.298 73.2159C253.609 72.3523 253.764 71.3902 253.764 70.3295C253.764 69.2614 253.609 68.2955 253.298 67.4318C252.995 66.5606 252.533 65.8674 251.912 65.3523C251.291 64.8371 250.518 64.5795 249.594 64.5795C248.647 64.5795 247.859 64.8371 247.23 65.3523C246.609 65.8674 246.143 66.5606 245.832 67.4318C245.529 68.2955 245.378 69.2614 245.378 70.3295C245.378 71.3902 245.529 72.3523 245.832 73.2159C246.143 74.0795 246.609 74.7689 247.23 75.2841C247.859 75.7917 248.647 76.0455 249.594 76.0455ZM275.222 66.1591L271.472 66.5682C271.366 66.1894 271.18 65.8333 270.915 65.5C270.657 65.1667 270.309 64.8977 269.869 64.6932C269.43 64.4886 268.892 64.3864 268.256 64.3864C267.4 64.3864 266.68 64.572 266.097 64.9432C265.521 65.3144 265.237 65.7955 265.244 66.3864C265.237 66.8939 265.422 67.3068 265.801 67.625C266.188 67.9432 266.824 68.2045 267.71 68.4091L270.688 69.0455C272.339 69.4015 273.566 69.9659 274.369 70.7386C275.18 71.5114 275.589 72.5227 275.597 73.7727C275.589 74.8712 275.267 75.8409 274.631 76.6818C274.002 77.5152 273.127 78.1667 272.006 78.6364C270.884 79.1061 269.597 79.3409 268.142 79.3409C266.006 79.3409 264.286 78.8939 262.983 78C261.68 77.0985 260.903 75.8447 260.653 74.2386L264.665 73.8523C264.847 74.6402 265.233 75.2348 265.824 75.6364C266.415 76.0379 267.184 76.2386 268.131 76.2386C269.108 76.2386 269.892 76.0379 270.483 75.6364C271.081 75.2348 271.381 74.7386 271.381 74.1477C271.381 73.6477 271.188 73.2348 270.801 72.9091C270.422 72.5833 269.831 72.3333 269.028 72.1591L266.051 71.5341C264.377 71.1856 263.138 70.5985 262.335 69.7727C261.532 68.9394 261.134 67.8864 261.142 66.6136C261.134 65.5379 261.426 64.6061 262.017 63.8182C262.616 63.0227 263.445 62.4091 264.506 61.9773C265.574 61.5379 266.805 61.3182 268.199 61.3182C270.244 61.3182 271.854 61.7538 273.028 62.625C274.21 63.4962 274.941 64.6742 275.222 66.1591Z" fill="#343A40"/>
<path fill-rule="evenodd" clip-rule="evenodd" d="M22.3333 129.667C20.0321 129.667 18.1667 131.532 18.1667 133.833V142.167C18.1667 144.468 20.0321 146.333 22.3333 146.333H30.6667C32.9678 146.333 34.8333 144.468 34.8333 142.167V133.833C34.8333 131.532 32.9678 129.667 30.6667 129.667H22.3333ZM27.6208 134.222C27.1622 133.293 25.8374 133.293 25.3789 134.222L24.7219 135.553L23.2528 135.766C22.2275 135.915 21.8181 137.175 22.56 137.898L23.6231 138.935L23.3721 140.398C23.197 141.419 24.2688 142.198 25.1858 141.716L26.4998 141.025L27.8139 141.716C28.7309 142.198 29.8027 141.419 29.6276 140.398L29.3766 138.935L30.4397 137.898C31.1816 137.175 30.7722 135.915 29.7469 135.766L28.2778 135.553L27.6208 134.222Z" fill="#1A4238"/>
<path d="M43.8345 142.138C43.2498 142.138 42.7479 141.991 42.3288 141.695C41.9122 141.396 41.5914 140.967 41.3665 140.406C41.1439 139.842 41.0327 139.164 41.0327 138.371C41.035 137.578 41.1475 136.903 41.37 136.347C41.5949 135.788 41.9157 135.362 42.3324 135.068C42.7514 134.775 43.2521 134.628 43.8345 134.628C44.4169 134.628 44.9176 134.775 45.3366 135.068C45.7557 135.362 46.0765 135.788 46.299 136.347C46.5239 136.905 46.6364 137.58 46.6364 138.371C46.6364 139.166 46.5239 139.846 46.299 140.409C46.0765 140.97 45.7557 141.399 45.3366 141.695C44.92 141.991 44.4193 142.138 43.8345 142.138ZM43.8345 141.027C44.2891 141.027 44.6477 140.803 44.9105 140.356C45.1757 139.906 45.3082 139.244 45.3082 138.371C45.3082 137.793 45.2479 137.308 45.1271 136.915C45.0064 136.522 44.8359 136.226 44.6158 136.027C44.3956 135.826 44.1352 135.725 43.8345 135.725C43.3823 135.725 43.0249 135.95 42.7621 136.4C42.4993 136.847 42.3667 137.504 42.3643 138.371C42.362 138.951 42.42 139.438 42.5384 139.834C42.6591 140.229 42.8295 140.527 43.0497 140.729C43.2699 140.928 43.5315 141.027 43.8345 141.027ZM53.2797 134.386L50.9359 143.094H49.8102L52.1539 134.386H53.2797ZM59.0946 142.099C58.6212 142.099 58.1974 142.011 57.8233 141.833C57.4493 141.653 57.1522 141.407 56.932 141.094C56.7142 140.782 56.5982 140.424 56.584 140.022H57.8624C57.8861 140.32 58.0151 140.564 58.2495 140.754C58.4838 140.941 58.7656 141.034 59.0946 141.034C59.3527 141.034 59.5823 140.975 59.7836 140.857C59.9848 140.738 60.1434 140.574 60.2594 140.363C60.3754 140.152 60.4322 139.912 60.4299 139.642C60.4322 139.367 60.3742 139.124 60.2559 138.911C60.1375 138.697 59.9753 138.531 59.7694 138.41C59.5634 138.287 59.3266 138.225 59.0591 138.225C58.8413 138.223 58.6271 138.263 58.4164 138.346C58.2057 138.429 58.0388 138.538 57.9157 138.673L56.726 138.477L57.106 134.727H61.3248V135.828H58.1962L57.9867 137.756H58.0293C58.1642 137.598 58.3548 137.466 58.601 137.362C58.8472 137.256 59.1171 137.202 59.4107 137.202C59.851 137.202 60.244 137.307 60.5897 137.515C60.9353 137.721 61.2076 138.005 61.4064 138.367C61.6053 138.729 61.7047 139.144 61.7047 139.61C61.7047 140.091 61.5935 140.519 61.3709 140.896C61.1507 141.27 60.8442 141.564 60.4512 141.78C60.0605 141.993 59.6084 142.099 59.0946 142.099ZM65.8525 134.727V142H64.535V136.009H64.4924L62.7914 137.096V135.888L64.5989 134.727H65.8525Z" fill="black" fill-opacity="0.45"/>
<rect x="308.5" y="116" width="44" height="44" rx="15" fill="#1A4238"/>
<path fill-rule="evenodd" clip-rule="evenodd" d="M331.793 130.293C332.183 129.902 332.817 129.902 333.207 130.293L340.207 137.293C340.598 137.683 340.598 138.317 340.207 138.707L333.207 145.707C332.817 146.098 332.183 146.098 331.793 145.707C331.402 145.317 331.402 144.683 331.793 144.293L337.086 139H321.5C320.948 139 320.5 138.552 320.5 138C320.5 137.448 320.948 137 321.5 137H337.086L331.793 131.707C331.402 131.317 331.402 130.683 331.793 130.293Z" fill="white"/>
</svg>
