<svg width="306" height="306" viewBox="0 0 306 306" fill="none" xmlns="http://www.w3.org/2000/svg">
<path d="M293.136 123.416C288.852 107.036 273.409 94.2266 256.52 93.0418C250.176 92.5968 243.831 93.6372 237.477 93.9126C231.122 94.188 224.455 93.6072 219.039 90.2725C213.624 86.9371 209.889 80.2228 211.677 74.1199C214.248 65.3506 226.008 62.167 229.274 53.632C232.149 46.1154 226.815 37.4679 219.635 33.8344C212.454 30.2004 204.034 30.2873 195.988 30.4537C179.102 30.8044 120.745 30.3815 108.011 30.7328C103.047 30.8699 97.7781 31.193 93.7175 34.0517C89.6569 36.9103 87.6556 43.2439 90.9678 46.9447C95.6814 52.211 106.393 48.2764 110.137 54.2709C112.688 58.3536 109.313 63.9852 104.838 65.7576C100.362 67.5293 95.3485 66.7258 90.5473 66.3769C68.9217 64.8084 46.774 73.7191 32.261 89.8281C17.7481 105.937 11.188 128.89 14.9965 150.236C18.805 171.581 32.8987 190.85 52.0874 200.945C61.6419 205.972 72.1965 208.768 82.7345 211.114C103.896 215.824 125.426 218.884 147.062 220.255L149.455 191.219C180.309 186.793 211.164 182.367 242.019 177.942C253.844 176.246 266.101 174.392 276.082 167.828C290.228 158.526 297.42 139.795 293.136 123.416Z" fill="#5A3CFF"/>
<path d="M279.652 187.963L279.427 189.375C279.182 190.917 278.82 192.42 278.356 193.864C278.169 194.445 277.969 195.019 277.743 195.58C276.982 197.541 276.028 199.385 274.899 201.107C273.332 203.507 271.429 205.661 269.269 207.505C263.987 212.014 257.15 214.697 249.765 214.697C239.361 214.697 230.041 209.363 224.637 201.107C223.508 199.385 222.547 197.541 221.786 195.58C221.567 195.019 221.367 194.445 221.18 193.864C220.715 192.42 220.354 190.917 220.109 189.375L219.883 187.963C219.599 186.17 219.458 184.371 219.458 182.577C219.458 180.855 219.587 179.14 219.845 177.45C219.89 177.16 219.935 176.863 219.993 176.573C220.374 174.399 220.967 172.265 221.76 170.207C222.94 167.137 224.572 164.222 226.623 161.564C229.493 157.849 233.04 155.043 236.929 153.154L235.549 144.473L234.93 140.564L233.962 134.456H265.572L264.605 140.564L263.985 144.473L262.605 153.154C266.494 155.044 270.042 157.849 272.912 161.564C274.963 164.222 276.595 167.137 277.775 170.207C278.568 172.265 279.162 174.399 279.542 176.573C279.6 176.863 279.645 177.16 279.69 177.45C280.214 180.9 280.214 184.448 279.652 187.963Z" fill="#FFACE0"/>
<path d="M264.605 140.564L263.986 144.473H235.549L234.93 140.564H264.605Z" fill="#FF787F"/>
<path d="M235.549 144.473L238.654 140.586L241.664 144.473L245.136 140.564L248.095 144.473L251.367 140.586L254.534 144.473L257.969 140.564L261.412 144.473L264.605 140.564H234.93L235.549 144.473Z" fill="#EFE000"/>
<path d="M279.652 187.963L279.427 189.375C279.182 190.917 278.82 192.42 278.356 193.864C278.169 194.445 277.969 195.019 277.743 195.58H221.785C221.566 195.019 221.366 194.445 221.179 193.864C220.714 192.42 220.353 190.917 220.108 189.375L219.883 187.963C219.599 186.17 219.457 184.371 219.457 182.577C219.457 180.855 219.586 179.14 219.844 177.45C219.889 177.16 219.934 176.863 219.992 176.573H279.542C279.6 176.863 279.645 177.16 279.69 177.45C280.214 180.9 280.214 184.448 279.652 187.963Z" fill="#FF787F"/>
<path d="M279.691 177.45H219.844C220.218 174.973 220.856 172.542 221.76 170.207H277.775C278.679 172.542 279.317 174.973 279.691 177.45Z" fill="#EFE000"/>
<path d="M221.76 170.207L227.059 177.4L232.75 170.214L238.586 177.4L244.373 170.207L249.956 177.45L255.573 170.214L261.263 177.45L266.962 170.391L272.27 177.45L277.775 170.214" fill="#FF787F"/>
<path d="M278.356 193.865C277.789 195.645 277.053 197.341 276.183 198.947C275.79 199.689 275.357 200.411 274.9 201.108H224.637C224.637 201.108 224.637 201.101 224.631 201.101C224.186 200.418 223.76 199.709 223.373 198.986C222.489 197.367 221.754 195.658 221.18 193.865H278.356Z" fill="#EFE000"/>
<path d="M238.271 193.864L243.96 201.101H224.63C224.185 200.417 223.759 199.708 223.372 198.985L227.268 193.864L232.569 200.926L238.271 193.864Z" fill="#FF787F"/>
<path d="M249.578 193.864L255.163 201.107L243.96 201.101L249.578 193.864Z" fill="#FF787F"/>
<path d="M276.182 198.947C275.789 199.689 275.357 200.411 274.899 201.107H255.163L260.948 193.916L266.784 201.101L272.473 193.916L276.182 198.947Z" fill="#FF787F"/>
<path d="M236.929 153.154H262.606" stroke="white" stroke-miterlimit="10" stroke-linecap="round" stroke-linejoin="round"/>
<path d="M235.853 136.206H254.107" stroke="white" stroke-miterlimit="10" stroke-linecap="round" stroke-linejoin="round"/>
<path d="M265.094 207.567C271.844 203.337 276.565 196.01 277.626 188.115" stroke="white" stroke-miterlimit="10" stroke-linecap="round" stroke-linejoin="round"/>
<path d="M226.439 166.011C228.597 161.922 232.068 158.538 236.21 156.484" stroke="white" stroke-miterlimit="10" stroke-linecap="round" stroke-linejoin="round"/>
<path d="M20.6337 87.6592L35.4778 126.225C35.8762 127.26 37.0708 127.737 38.0727 127.261L63.057 115.378C63.057 115.378 65.6451 117.41 67.7694 114.185L89.4911 111.938L76.9261 71.5942L52.4853 75.1028L21.6699 85.4554C20.7604 85.7608 20.2886 86.7632 20.6337 87.6592Z" fill="#010100"/>
<path d="M52.172 73.8684C52.172 73.8684 55.9156 64.7453 63.0565 56.5231L65.3331 67.2735C65.3331 67.2735 72.4568 65.2153 79.067 64.2698L91.747 103.776V109.088L64.439 112.386L37.2851 123.335L20.7979 82.1708L25.6694 80.1279L23.9386 74.0434C23.9386 74.0434 35.3604 67.719 52.172 73.8684Z" fill="#FFACE0"/>
<path d="M52.1721 73.8684L64.4384 112.386L72.4544 97.3466L65.3326 67.2735" stroke="#010100" stroke-miterlimit="10" stroke-linecap="round" stroke-linejoin="round"/>
<path d="M25.6687 80.1279L36.1192 116.871C36.1192 116.871 47.6016 109.926 64.4389 112.386C64.4389 112.386 50.5453 112.798 37.6455 119.247" stroke="#010100" stroke-miterlimit="10" stroke-linecap="round" stroke-linejoin="round"/>
<path d="M38.5789 120.951C42.1731 119.339 45.7674 117.726 49.3617 116.114" stroke="#010100" stroke-miterlimit="10" stroke-linecap="round" stroke-linejoin="round"/>
<path d="M64.2461 112.331C72.0136 107.184 81.4433 104.591 90.75 105.042" stroke="#010100" stroke-miterlimit="10" stroke-linecap="round" stroke-linejoin="round"/>
<path d="M68.9893 111.447C74.5168 109.282 80.3113 107.798 86.1993 107.039" stroke="#010100" stroke-miterlimit="10" stroke-linecap="round" stroke-linejoin="round"/>
<path d="M78.0071 107.311C78.9936 107.083 79.9802 106.856 80.9661 106.628" stroke="#010100" stroke-miterlimit="10" stroke-linecap="round" stroke-linejoin="round"/>
<path d="M60.3582 65.3022C60.9132 64.5556 61.4916 63.8255 62.0913 63.1143" stroke="#010100" stroke-miterlimit="10" stroke-linecap="round" stroke-linejoin="round"/>
<path d="M54.6885 75.3482C55.6438 73.0098 56.7931 70.7509 58.1194 68.6015" stroke="#010100" stroke-miterlimit="10" stroke-linecap="round" stroke-linejoin="round"/>
<path d="M56.2766 80.5735C58.0863 76.2546 60.4774 72.1738 63.3495 68.4975" stroke="#010100" stroke-miterlimit="10" stroke-linecap="round" stroke-linejoin="round"/>
<path d="M61.1182 79.2956C62.1886 77.4327 63.3532 75.6236 64.609 73.8806" stroke="#010100" stroke-miterlimit="10" stroke-linecap="round" stroke-linejoin="round"/>
<path d="M57.8647 85.7981C58.2907 84.8079 58.7417 83.8287 59.2179 82.8611" stroke="#010100" stroke-miterlimit="10" stroke-linecap="round" stroke-linejoin="round"/>
<path d="M59.4529 91.0228C60.9205 87.6972 62.6169 84.4713 64.5215 81.3752" stroke="#010100" stroke-miterlimit="10" stroke-linecap="round" stroke-linejoin="round"/>
<path d="M61.041 96.248C62.8501 92.2633 64.8917 88.3734 67.1261 84.6463" stroke="#010100" stroke-miterlimit="10" stroke-linecap="round" stroke-linejoin="round"/>
<path d="M62.6287 101.473C64.0155 98.5045 65.4683 95.5669 66.9855 92.6629" stroke="#010100" stroke-miterlimit="10" stroke-linecap="round" stroke-linejoin="round"/>
<path d="M67.7051 99.4427C68.3514 98.0993 68.997 96.7554 69.6433 95.412" stroke="#010100" stroke-miterlimit="10" stroke-linecap="round" stroke-linejoin="round"/>
<path d="M64.2168 106.698C64.7982 105.489 65.3796 104.279 65.961 103.071" stroke="#010100" stroke-miterlimit="10" stroke-linecap="round" stroke-linejoin="round"/>
<path d="M27.9619 76.3115C33.9534 74.3329 40.5018 74.0857 46.6322 75.5722" stroke="#010100" stroke-miterlimit="10" stroke-linecap="round" stroke-linejoin="round"/>
<path d="M43.3716 78.4896C46.1837 78.7461 48.9677 79.3409 51.633 80.2754" stroke="#010100" stroke-miterlimit="10" stroke-linecap="round" stroke-linejoin="round"/>
<path d="M29.0354 80.1659C32.3494 79.0392 35.8402 78.437 39.3384 78.3538" stroke="#010100" stroke-miterlimit="10" stroke-linecap="round" stroke-linejoin="round"/>
<path d="M30.1089 84.0209C36.3574 81.8507 43.2179 81.478 49.6684 82.9395" stroke="#010100" stroke-miterlimit="10" stroke-linecap="round" stroke-linejoin="round"/>
<path d="M38.2778 86.1366C43.5037 85.4052 48.8862 85.7902 53.9395 87.3202" stroke="#010100" stroke-miterlimit="10" stroke-linecap="round" stroke-linejoin="round"/>
<path d="M31.1829 87.8753C32.2043 87.5111 33.2422 87.1941 34.293 86.9248" stroke="#010100" stroke-miterlimit="10" stroke-linecap="round" stroke-linejoin="round"/>
<path d="M47.0784 89.5338C49.7871 89.6788 52.4805 90.1115 55.0931 90.8428" stroke="#010100" stroke-miterlimit="10" stroke-linecap="round" stroke-linejoin="round"/>
<path d="M32.2563 91.7302C35.8323 90.4255 39.6107 89.6855 43.4131 89.5179" stroke="#010100" stroke-miterlimit="10" stroke-linecap="round" stroke-linejoin="round"/>
<path d="M54.2578 93.9114C54.9249 94.0442 55.5877 94.196 56.2468 94.3649" stroke="#010100" stroke-miterlimit="10" stroke-linecap="round" stroke-linejoin="round"/>
<path d="M41.0361 93.6017C43.803 93.1905 46.6133 93.0748 49.4046 93.2664" stroke="#010100" stroke-miterlimit="10" stroke-linecap="round" stroke-linejoin="round"/>
<path d="M33.3303 95.5846C34.5103 95.1458 35.7116 94.7651 36.9289 94.4451" stroke="#010100" stroke-miterlimit="10" stroke-linecap="round" stroke-linejoin="round"/>
<path d="M49.8262 96.8851C52.3752 96.972 54.9168 97.3049 57.3997 97.887" stroke="#010100" stroke-miterlimit="10" stroke-linecap="round" stroke-linejoin="round"/>
<path d="M34.4038 99.439C38.0489 98.0473 41.9045 97.2138 45.7962 96.9518" stroke="#010100" stroke-miterlimit="10" stroke-linecap="round" stroke-linejoin="round"/>
<path d="M35.4778 103.294C41.2661 101.037 47.5709 100.153 53.7582 100.694" stroke="#010100" stroke-miterlimit="10" stroke-linecap="round" stroke-linejoin="round"/>
<path d="M49.5974 104.272C52.9769 104.082 56.382 104.295 59.707 104.932" stroke="#010100" stroke-miterlimit="10" stroke-linecap="round" stroke-linejoin="round"/>
<path d="M36.5513 107.148C39.3212 106.044 42.2123 105.247 45.1548 104.762" stroke="#010100" stroke-miterlimit="10" stroke-linecap="round" stroke-linejoin="round"/>
<path d="M37.6248 111.003C43.0452 108.796 48.9217 107.736 54.7712 107.871" stroke="#010100" stroke-miterlimit="10" stroke-linecap="round" stroke-linejoin="round"/>
<path d="M233.81 262.671L229.03 261.369C229.03 261.369 226.071 270.39 217.08 272.983L221.605 274.457C222.414 274.076 223.823 273.31 225.103 272.105C225.103 272.105 224.572 273.684 223.436 275.054L229.701 277.094C229.701 277.094 234.493 272.927 233.81 262.671Z" fill="#EFE000"/>
<path d="M233.463 262.968C234.645 267.856 233.896 273.185 231.41 277.557" stroke="#EFE000" stroke-miterlimit="10" stroke-linecap="round" stroke-linejoin="round"/>
<path d="M227.976 262.592L233.97 230.546C234.381 228.349 236.52 226.92 238.707 227.382C240.893 227.843 242.272 230.015 241.76 232.19L234.287 263.924L227.976 262.592Z" fill="#35BEAC"/>
<path d="M235.545 230.262C236.018 229.192 237.176 228.465 238.344 228.504" stroke="white" stroke-miterlimit="10" stroke-linecap="round" stroke-linejoin="round"/>
<path d="M214.696 238.959L199.95 243.88C199.166 244.141 198.768 245.012 199.084 245.776L202.261 253.449C203.556 256.58 206.269 258.904 209.562 259.703L212.308 260.369C213.198 260.585 214.135 260.273 214.717 259.566L216.512 257.383C218.665 254.767 219.439 251.28 218.595 247.998L216.526 239.955C216.321 239.156 215.48 238.698 214.696 238.959Z" fill="#010100"/>
<path d="M217.424 249.382C217.569 252.049 216.625 254.759 214.856 256.761" stroke="white" stroke-miterlimit="10" stroke-linecap="round" stroke-linejoin="round"/>
<path d="M200.055 245.064C201.392 244.599 202.729 244.134 204.067 243.67" stroke="white" stroke-miterlimit="10" stroke-linecap="round" stroke-linejoin="round"/>
<path d="M198.043 213.608C196.576 214.097 195.806 215.703 196.343 217.153L201.587 231.324L205.847 229.902L201.531 215.422C201.09 213.94 199.509 213.118 198.043 213.608Z" fill="#EFE000"/>
<path d="M198.356 214.626C197.576 214.876 197.103 215.826 197.374 216.598" stroke="white" stroke-miterlimit="10" stroke-linecap="round" stroke-linejoin="round"/>
<path d="M201.221 231.446L205.387 242.702L209.507 250.208C209.894 250.912 210.968 250.553 210.854 249.759L209.641 241.282L206.214 229.78L201.221 231.446Z" fill="#35BEAC"/>
<path d="M202.307 233.006C203.644 232.563 204.98 232.121 206.316 231.678" stroke="#010100" stroke-miterlimit="10" stroke-linecap="round" stroke-linejoin="round"/>
<path d="M203.971 234.583C205.355 238.354 206.739 242.126 208.123 245.897" stroke="white" stroke-miterlimit="10" stroke-linecap="round" stroke-linejoin="round"/>
<path d="M77.7847 170.214H216.165L213.93 148.52L182.598 131.879L172.709 109.566L105.123 114.185L77.7847 170.214Z" fill="#EFE000"/>
<path d="M182.992 289.856L175.984 280.175C171.238 273.618 168.112 266.031 166.862 258.033L166.677 256.845L141.106 259.011C141.106 259.357 143.528 277.475 143.528 277.475L151.061 280.459L151.63 278.238L154.986 282.013L181.061 292.341C182.585 292.945 183.954 291.185 182.992 289.856Z" fill="#FFACE0"/>
<path d="M143.19 273.929C156.089 279.641 168.988 285.354 181.887 291.065" stroke="#010100" stroke-miterlimit="10" stroke-linecap="round" stroke-linejoin="round"/>
<path d="M168.538 266.08C166.074 266.775 163.611 267.47 161.147 268.165C164.067 268.606 166.988 269.047 169.907 269.489C167.489 270.324 165.07 271.159 162.651 271.995C165.754 272.51 168.856 273.025 171.958 273.541" stroke="#010100" stroke-miterlimit="10" stroke-linecap="round" stroke-linejoin="round"/>
<path d="M189.8 156.826C180.562 143.413 166.462 125.511 166.462 125.511L113.514 126.259C113.125 152.165 115.768 172.587 129.982 202.625C133.54 227.272 139.049 261.369 139.049 261.369L170.042 259.539C170.042 259.539 166.877 240.239 163.922 222.798C169.718 215.766 181.015 202.073 188.477 193.099C198.885 180.585 199.039 170.238 189.8 156.826ZM156.366 183.609C154.059 173.834 151.614 164.198 151.614 164.198L164.705 174.192C162.005 176.679 159.128 180.036 156.366 183.609Z" fill="#010100"/>
<path d="M164.639 174.237C165.933 173.874 167.228 173.512 168.522 173.149" stroke="white" stroke-miterlimit="10" stroke-linecap="round" stroke-linejoin="round"/>
<path d="M148.535 150.995C149.636 155.557 150.736 160.119 151.836 164.681" stroke="white" stroke-miterlimit="10" stroke-linecap="round" stroke-linejoin="round"/>
<path d="M156.49 183.302C159.034 196.732 161.578 210.162 164.122 223.592" stroke="white" stroke-miterlimit="10" stroke-linecap="round" stroke-linejoin="round"/>
<path d="M138.703 254.508C148.494 253.848 158.283 253.187 168.073 252.527" stroke="white" stroke-miterlimit="10" stroke-linecap="round" stroke-linejoin="round"/>
<path d="M117.073 129.015C114.977 152.988 120.41 177.566 132.416 198.423C133.332 198.076 134.186 198.171 134.578 199.069C134.97 199.967 134.545 201.136 133.668 201.572C136.452 218.94 138.646 236.416 141.431 253.784" stroke="white" stroke-miterlimit="10" stroke-linecap="round" stroke-linejoin="round"/>
<path d="M150.12 157.539C156.77 162.481 163.421 167.424 170.071 172.366C170.721 171.532 171.922 170.59 172.817 171.154C173.712 171.717 174.071 172.994 173.599 173.941C173.129 174.889 171.894 175.374 170.905 175.001C166.634 179.837 161.943 184.579 157.672 189.415" stroke="white" stroke-miterlimit="10" stroke-linecap="round" stroke-linejoin="round"/>
<path d="M129.383 126.532C129.383 128.429 129.383 130.325 129.383 132.223" stroke="white" stroke-miterlimit="10" stroke-linecap="round" stroke-linejoin="round"/>
<path d="M131.848 126.989C131.918 128.355 131.988 129.721 132.057 131.087" stroke="white" stroke-miterlimit="10" stroke-linecap="round" stroke-linejoin="round"/>
<path d="M159.358 126.918C160.107 128.325 160.855 129.732 161.604 131.139" stroke="white" stroke-miterlimit="10" stroke-linecap="round" stroke-linejoin="round"/>
<path d="M133.017 70.4039L152.449 73.5612L170.205 116.315L170.39 127.074L110.085 127.324L133.017 70.4039Z" fill="#D23205"/>
<path d="M135.681 71.3421C136.597 74.0685 139.101 76.1946 141.939 76.6573C144.778 77.12 147.828 75.8984 149.561 73.604" fill="#D23205"/>
<path d="M135.681 71.3421C136.597 74.0685 139.101 76.1946 141.939 76.6573C144.778 77.12 147.828 75.8984 149.561 73.604" stroke="#010100" stroke-miterlimit="10" stroke-linecap="round" stroke-linejoin="round"/>
<path d="M135.356 76.7044C135.566 77.5123 135.775 78.3195 135.984 79.1273Z" fill="#D23205"/>
<path d="M135.356 76.7044C135.566 77.5123 135.775 78.3195 135.984 79.1273" stroke="#FFACE0" stroke-miterlimit="10" stroke-linecap="round" stroke-linejoin="round"/>
<path d="M140.923 79.7595C141.58 79.6543 142.237 79.5496 142.894 79.4443Z" fill="#D23205"/>
<path d="M140.923 79.7595C141.58 79.6543 142.237 79.5496 142.894 79.4443" stroke="#FFACE0" stroke-miterlimit="10" stroke-linecap="round" stroke-linejoin="round"/>
<path d="M148.446 81.4187C148.787 81.9829 149.128 82.5478 149.469 83.1121Z" fill="#D23205"/>
<path d="M148.446 81.4187C148.787 81.9829 149.128 82.5478 149.469 83.1121" stroke="#FFACE0" stroke-miterlimit="10" stroke-linecap="round" stroke-linejoin="round"/>
<path d="M142.889 84.7228C142.282 85.229 141.675 85.7345 141.068 86.2406Z" fill="#D23205"/>
<path d="M142.889 84.7228C142.282 85.229 141.675 85.7345 141.068 86.2406" stroke="#FFACE0" stroke-miterlimit="10" stroke-linecap="round" stroke-linejoin="round"/>
<path d="M149.87 77.7418C150.528 77.691 151.185 77.6408 151.843 77.59Z" fill="#D23205"/>
<path d="M149.87 77.7418C150.528 77.691 151.185 77.6408 151.843 77.59" stroke="#FFACE0" stroke-miterlimit="10" stroke-linecap="round" stroke-linejoin="round"/>
<path d="M134.087 83.8122C134.036 84.5711 133.986 85.3299 133.935 86.0888Z" fill="#D23205"/>
<path d="M134.087 83.8122C134.036 84.5711 133.986 85.3299 133.935 86.0888" stroke="#FFACE0" stroke-miterlimit="10" stroke-linecap="round" stroke-linejoin="round"/>
<path d="M143.496 92.1586C143.951 92.513 144.407 92.8667 144.862 93.2211Z" fill="#D23205"/>
<path d="M143.496 92.1586C143.951 92.513 144.407 92.8667 144.862 93.2211" stroke="#FFACE0" stroke-miterlimit="10" stroke-linecap="round" stroke-linejoin="round"/>
<path d="M150.629 88.972C151.489 88.7192 152.349 88.4658 153.208 88.2131Z" fill="#D23205"/>
<path d="M150.629 88.972C151.489 88.7192 152.349 88.4658 153.208 88.2131" stroke="#FFACE0" stroke-miterlimit="10" stroke-linecap="round" stroke-linejoin="round"/>
<path d="M153.512 95.1935C153.512 95.7499 153.512 96.3068 153.512 96.8631Z" fill="#D23205"/>
<path d="M153.512 95.1935C153.512 95.7499 153.512 96.3068 153.512 96.8631" stroke="#FFACE0" stroke-miterlimit="10" stroke-linecap="round" stroke-linejoin="round"/>
<path d="M134.391 92.9175C134.694 93.2211 134.998 93.5246 135.301 93.8282Z" fill="#D23205"/>
<path d="M134.391 92.9175C134.694 93.2211 134.998 93.5246 135.301 93.8282" stroke="#FFACE0" stroke-miterlimit="10" stroke-linecap="round" stroke-linejoin="round"/>
<path d="M137.122 99.7462C136.717 100.05 136.312 100.353 135.908 100.657Z" fill="#D23205"/>
<path d="M137.122 99.7462C136.717 100.05 136.312 100.353 135.908 100.657" stroke="#FFACE0" stroke-miterlimit="10" stroke-linecap="round" stroke-linejoin="round"/>
<path d="M129.685 99.0033C130.291 99.0571 130.898 99.1116 131.505 99.1654Z" fill="#D23205"/>
<path d="M129.685 99.0033C130.291 99.0571 130.898 99.1116 131.505 99.1654" stroke="#FFACE0" stroke-miterlimit="10" stroke-linecap="round" stroke-linejoin="round"/>
<path d="M144.558 103.237C144.811 103.996 145.064 104.755 145.317 105.514Z" fill="#D23205"/>
<path d="M144.558 103.237C144.811 103.996 145.064 104.755 145.317 105.514" stroke="#FFACE0" stroke-miterlimit="10" stroke-linecap="round" stroke-linejoin="round"/>
<path d="M152.606 102.755C153.467 102.9 154.328 103.044 155.189 103.189Z" fill="#D23205"/>
<path d="M152.606 102.755C153.467 102.9 154.328 103.044 155.189 103.189" stroke="#FFACE0" stroke-miterlimit="10" stroke-linecap="round" stroke-linejoin="round"/>
<path d="M160.493 104.754C160.948 104.299 161.404 103.844 161.859 103.388Z" fill="#D23205"/>
<path d="M160.493 104.754C160.948 104.299 161.404 103.844 161.859 103.388" stroke="#FFACE0" stroke-miterlimit="10" stroke-linecap="round" stroke-linejoin="round"/>
<path d="M153.967 109.307C153.866 110.016 153.765 110.724 153.664 111.432Z" fill="#D23205"/>
<path d="M153.967 109.307C153.866 110.016 153.765 110.724 153.664 111.432" stroke="#FFACE0" stroke-miterlimit="10" stroke-linecap="round" stroke-linejoin="round"/>
<path d="M162.014 114.497C162.924 114.393 163.835 114.289 164.745 114.185Z" fill="#D23205"/>
<path d="M162.014 114.497C162.924 114.393 163.835 114.289 164.745 114.185" stroke="#FFACE0" stroke-miterlimit="10" stroke-linecap="round" stroke-linejoin="round"/>
<path d="M158.186 117.042C158.079 117.699 157.973 118.355 157.866 119.012Z" fill="#D23205"/>
<path d="M158.186 117.042C158.079 117.699 157.973 118.355 157.866 119.012" stroke="#FFACE0" stroke-miterlimit="10" stroke-linecap="round" stroke-linejoin="round"/>
<path d="M165.04 121.634C165.646 121.74 166.252 121.846 166.858 121.952Z" fill="#D23205"/>
<path d="M165.04 121.634C165.646 121.74 166.252 121.846 166.858 121.952" stroke="#FFACE0" stroke-miterlimit="10" stroke-linecap="round" stroke-linejoin="round"/>
<path d="M144.862 118.716C144.558 119.374 144.255 120.032 143.951 120.689Z" fill="#D23205"/>
<path d="M144.862 118.716C144.558 119.374 144.255 120.032 143.951 120.689" stroke="#FFACE0" stroke-miterlimit="10" stroke-linecap="round" stroke-linejoin="round"/>
<path d="M137.274 111.735C138.134 111.735 138.993 111.735 139.853 111.735Z" fill="#D23205"/>
<path d="M137.274 111.735C138.134 111.735 138.993 111.735 139.853 111.735" stroke="#FFACE0" stroke-miterlimit="10" stroke-linecap="round" stroke-linejoin="round"/>
<path d="M131.507 107.486C131.102 108.296 130.698 109.105 130.293 109.914Z" fill="#D23205"/>
<path d="M131.507 107.486C131.102 108.296 130.698 109.105 130.293 109.914" stroke="#FFACE0" stroke-miterlimit="10" stroke-linecap="round" stroke-linejoin="round"/>
<path d="M130.173 118.092C130.731 119.103 131.289 120.113 131.847 121.123Z" fill="#D23205"/>
<path d="M130.173 118.092C130.731 119.103 131.289 120.113 131.847 121.123" stroke="#FFACE0" stroke-miterlimit="10" stroke-linecap="round" stroke-linejoin="round"/>
<path d="M128.017 123.573C127.561 124.028 127.106 124.483 126.651 124.939Z" fill="#D23205"/>
<path d="M128.017 123.573C127.561 124.028 127.106 124.483 126.651 124.939" stroke="#FFACE0" stroke-miterlimit="10" stroke-linecap="round" stroke-linejoin="round"/>
<path d="M138.792 122.51C138.994 123.066 139.196 123.623 139.399 124.18Z" fill="#D23205"/>
<path d="M138.792 122.51C138.994 123.066 139.196 123.623 139.399 124.18" stroke="#FFACE0" stroke-miterlimit="10" stroke-linecap="round" stroke-linejoin="round"/>
<path d="M151.844 124.189C152.602 124.09 153.362 123.992 154.121 123.893Z" fill="#D23205"/>
<path d="M151.844 124.189C152.602 124.09 153.362 123.992 154.121 123.893" stroke="#FFACE0" stroke-miterlimit="10" stroke-linecap="round" stroke-linejoin="round"/>
<path d="M147.411 72.757C147.597 70.9547 147.807 69.0917 147.992 67.2888C144.695 66.842 141.556 66.4265 138.26 65.9797C138.034 67.7655 137.809 69.5514 137.583 71.3372C138.365 73.1273 140.085 74.5459 142.011 74.8715C143.937 75.1977 146.084 74.1903 147.411 72.757Z" fill="#FF787F"/>
<path d="M154.15 63.7429C153.868 62.7441 153.391 61.8138 152.916 60.8909C152.514 60.1088 151.349 60.0647 150.476 60.1749L150.104 56.6265C150.839 56.5378 151.517 56.0647 151.854 55.4044C152.191 54.7446 152.176 53.9172 151.816 53.2697C151.456 52.6222 150.754 52.2214 150.016 52.1589C150.306 51.1546 149.575 50.072 148.62 49.6479C147.665 49.2238 146.563 49.3131 145.536 49.5102C143.937 49.8168 142.566 50.4918 141.037 51.0537C139.136 51.7532 137.525 53.2091 136.637 55.0304C135.749 56.8517 135.595 59.0182 136.216 60.9466C136.727 62.5348 137.402 64.1033 137.969 65.6725C138.584 67.3757 139.979 68.7001 141.609 69.4883C143.239 70.2766 145.102 70.5159 146.905 70.358C148.71 70.2001 150.462 69.6585 152.129 68.9516C153.085 68.5465 153.844 67.7925 154.175 66.809C154.507 65.8255 154.432 64.7417 154.15 63.7429Z" fill="white"/>
<path d="M137.395 52.0524C137.681 52.2783 137.966 52.5041 138.252 52.7299" stroke="white" stroke-miterlimit="10" stroke-linecap="round" stroke-linejoin="round"/>
<path d="M152.75 61.323C151.98 59.3952 150.996 57.5678 150.226 55.64C149.214 55.2098 148.242 54.8138 147.23 54.3836C146.616 55.2079 145.181 55.3683 144.417 54.6798C143.963 55.6932 142.753 56.1718 141.664 55.9588C140.851 57.3126 140.037 58.6657 139.225 60.0188C139.949 61.2526 140.569 62.4717 141.294 63.7055C144.615 61.8634 148.952 61.3279 152.75 61.323Z" fill="#FF787F"/>
<path d="M150.353 59.9026C150.691 59.9026 150.965 59.6286 150.965 59.2906C150.965 58.9526 150.691 58.6786 150.353 58.6786C150.015 58.6786 149.741 58.9526 149.741 59.2906C149.741 59.6286 150.015 59.9026 150.353 59.9026Z" fill="#010100"/>
<path d="M143.94 61.1896C144.278 61.1896 144.552 60.9156 144.552 60.5776C144.552 60.2396 144.278 59.9656 143.94 59.9656C143.602 59.9656 143.328 60.2396 143.328 60.5776C143.328 60.9156 143.602 61.1896 143.94 61.1896Z" fill="#010100"/>
<path d="M146.095 62.7924C146.077 63.1076 146.288 63.4222 146.586 63.525C146.885 63.6278 147.245 63.5097 147.424 63.2502" stroke="#010100" stroke-miterlimit="10" stroke-linecap="round" stroke-linejoin="round"/>
<path d="M147.209 59.2845C147.545 60.0372 147.882 60.79 148.218 61.5421C147.952 61.5758 147.627 61.5886 147.361 61.6223" stroke="#010100" stroke-miterlimit="10" stroke-linecap="round" stroke-linejoin="round"/>
<path d="M141.946 58.6467C142.066 57.9705 142.62 57.3921 143.29 57.244C143.96 57.0953 144.707 57.386 145.101 57.9478" stroke="#010100" stroke-miterlimit="10" stroke-linecap="round" stroke-linejoin="round"/>
<path d="M148.958 57.0947C149.413 57.0188 149.868 56.9429 150.324 56.8677" stroke="#010100" stroke-miterlimit="10" stroke-linecap="round" stroke-linejoin="round"/>
<path d="M147.162 54.2006C147.162 55.0335 146.487 55.8144 145.662 55.9344" stroke="white" stroke-miterlimit="10" stroke-linecap="round" stroke-linejoin="round"/>
<path d="M138.107 60.0678C136.745 59.7863 135.239 60.4925 134.585 61.7196C133.931 62.9467 134.184 64.5911 135.177 65.5648C136.17 66.5385 137.819 66.7588 139.033 66.0807L138.107 60.0678Z" fill="#FF787F"/>
<path d="M135.864 62.1976C136.376 62.3114 136.888 62.4259 137.4 62.5397" stroke="#010100" stroke-miterlimit="10" stroke-linecap="round" stroke-linejoin="round"/>
<path d="M246.647 82.0484C246.102 81.366 245.113 81.2663 244.296 81.5759C240.268 83.1047 232.34 86.1653 232.34 86.1653C232.34 86.1653 225.014 85.5221 221.431 85.0552C222.937 82.6286 224.266 80.0918 225.404 77.4725C225.668 76.8641 225.927 76.2301 225.923 75.5667C225.919 74.9033 225.559 74.1414 224.944 73.8923C221.198 76.9737 217.341 79.8721 213.813 83.2002C211.712 85.1824 210.1 87.68 209.16 90.4108C207.58 91.3636 205.991 92.2131 204.412 93.166L211.526 111.401C213.818 110.49 215.886 109.11 217.936 107.741C223.178 104.237 233.685 97.3172 233.685 97.3172C233.685 97.3172 236.905 92.6605 238.985 90.6776C241.373 88.3997 243.77 85.8997 246.159 83.6218C245.988 83.5649 245.76 83.4505 245.589 83.3936C245.912 82.9958 246.325 82.4468 246.647 82.0484Z" fill="#FF787F"/>
<path d="M221.138 85.3569C222.159 87.5301 222.216 90.1348 221.292 92.3502" stroke="#010100" stroke-miterlimit="10" stroke-linecap="round" stroke-linejoin="round"/>
<path d="M232.48 92.5118C234.747 90.7039 237.014 88.8967 239.281 87.0888C239.783 86.6886 240.274 86.7755 240.876 86.9976C239.577 89.2963 238.04 91.6293 236.41 93.7064" stroke="#010100" stroke-miterlimit="10" stroke-linecap="round" stroke-linejoin="round"/>
<path d="M232.805 89.7302C235.947 88.3012 239.089 86.8716 242.231 85.4425C242.831 85.1696 243.576 84.9272 244.202 85.1292" stroke="#010100" stroke-miterlimit="10" stroke-linecap="round" stroke-linejoin="round"/>
<path d="M232.5 87.7528C236.81 86.221 241.122 84.6898 245.433 83.158" stroke="#010100" stroke-miterlimit="10" stroke-linecap="round" stroke-linejoin="round"/>
<path d="M233.933 171.86C226.697 172.431 219.433 173.237 212.196 173.808C212.717 167.353 211.022 160.624 206.96 155.579C203.703 151.533 199.15 148.756 194.554 146.337C189.958 143.918 185.181 141.748 181.066 138.579C176.951 135.411 174.044 130.978 172.038 126.186C164.518 108.221 156.998 90.2565 149.477 72.2913C154.032 72.8819 158.228 73.2485 162.783 73.8384C166.227 74.2846 169.521 75.4982 172.191 77.7185C174.86 79.9388 176.982 82.7326 179.08 85.5001C181.849 89.1537 184.618 92.8074 187.387 96.461C193.721 94.0595 199.985 91.513 206.318 89.1115C209.393 96.6324 212.175 104.467 215.251 111.988C209.57 114.841 203.78 117.931 198.099 120.784C194.468 122.607 190.346 124.515 186.296 124.852C193.566 134.44 235.059 131.879 233.933 171.86Z" fill="#D23205"/>
<path d="M154.932 74.1622C157.003 82.3954 159.075 90.6292 161.146 98.8625Z" fill="#D23205"/>
<path d="M154.932 74.1622C157.003 82.3954 159.075 90.6292 161.146 98.8625" stroke="#010100" stroke-miterlimit="10" stroke-linecap="round" stroke-linejoin="round"/>
<path d="M187.038 96.5534C186.684 97.2615 186.33 97.9702 185.976 98.6783Z" fill="#D23205"/>
<path d="M187.038 96.5534C186.684 97.2615 186.33 97.9702 185.976 98.6783" stroke="#010100" stroke-miterlimit="10" stroke-linecap="round" stroke-linejoin="round"/>
<path d="M186.682 125.317C179.449 118.826 174.052 110.499 169.907 101.708C165.763 92.9181 162.808 83.6237 159.865 74.3617" fill="#D23205"/>
<path d="M186.682 125.317C179.449 118.826 174.052 110.499 169.907 101.708C165.763 92.9181 162.808 83.6237 159.865 74.3617" stroke="#010100" stroke-miterlimit="10" stroke-linecap="round" stroke-linejoin="round"/>
<path d="M201.092 91.9212C203.377 99.6936 205.664 107.466 207.95 115.238Z" fill="#D23205"/>
<path d="M201.092 91.9212C203.377 99.6936 205.664 107.466 207.95 115.238" stroke="#010100" stroke-miterlimit="10" stroke-linecap="round" stroke-linejoin="round"/>
<path d="M212.999 167.997C216.389 167.824 219.78 167.652 223.171 167.479Z" fill="#D23205"/>
<path d="M212.999 167.997C216.389 167.824 219.78 167.652 223.171 167.479" stroke="#010100" stroke-miterlimit="10" stroke-linecap="round" stroke-linejoin="round"/>
<path d="M124.374 69.1609C116.873 68.8665 108.639 72.4602 103.782 78.1836C87.7885 97.0265 74.8184 118.355 60.7063 138.645C62.4688 139.755 64.4132 140.78 66.1757 141.89C55.0575 150.982 45.2527 162.676 37.2844 174.626L80.3925 174.557C81.9255 170.822 85.305 168.137 88.8981 166.296C92.4911 164.454 96.3944 163.294 100.048 161.577C114.367 154.845 121.09 138.641 124.139 123.115C127.638 105.3 131.136 87.4854 134.635 69.6701C131.22 69.5367 127.79 69.2949 124.374 69.1609Z" fill="#D23205"/>
<path d="M128.443 69.7044C127.834 82.0472 127.226 94.39 126.617 106.733Z" fill="#D23205"/>
<path d="M128.443 69.7044C127.834 82.0472 127.226 94.39 126.617 106.733" stroke="#010100" stroke-miterlimit="10" stroke-linecap="round" stroke-linejoin="round"/>
<path d="M81.8 151.553C94.7365 137.809 105.838 122.34 114.718 105.685C119.18 97.3178 122.447 88.2988 124.164 78.9731C124.475 77.2834 124.706 75.4584 124.244 73.8035C123.782 72.1487 122.703 70.6732 121.266 69.7307" fill="#D23205"/>
<path d="M81.8 151.553C94.7365 137.809 105.838 122.34 114.718 105.685C119.18 97.3178 122.447 88.2988 124.164 78.9731C124.475 77.2834 124.706 75.4584 124.244 73.8035C123.782 72.1487 122.703 70.6732 121.266 69.7307" stroke="#010100" stroke-miterlimit="10" stroke-linecap="round" stroke-linejoin="round"/>
<path d="M65.1575 133.335C72.0559 137.757 78.9544 142.179 85.8523 146.602Z" fill="#D23205"/>
<path d="M65.1575 133.335C72.0559 137.757 78.9544 142.179 85.8523 146.602" stroke="#010100" stroke-miterlimit="10" stroke-linecap="round" stroke-linejoin="round"/>
<path d="M119.444 124.256C119.444 123.331 118.694 122.581 117.769 122.581C116.844 122.581 116.095 123.331 116.095 124.256C116.095 125.18 116.844 125.93 117.769 125.93C118.694 125.929 119.444 125.18 119.444 124.256Z" fill="#D23205" stroke="#010100" stroke-miterlimit="10" stroke-linecap="round" stroke-linejoin="round"/>
<path d="M113.903 138.48C114.828 138.48 115.578 137.731 115.578 136.806C115.578 135.881 114.828 135.131 113.903 135.131C112.978 135.131 112.229 135.881 112.229 136.806C112.229 137.731 112.978 138.48 113.903 138.48Z" fill="#D23205" stroke="#010100" stroke-miterlimit="10" stroke-linecap="round" stroke-linejoin="round"/>
<path d="M42.1191 169.389C54.9693 169.28 67.8195 169.17 80.669 169.06Z" fill="#D23205"/>
<path d="M42.1191 169.389C54.9693 169.28 67.8195 169.17 80.669 169.06" stroke="#010100" stroke-miterlimit="10" stroke-linecap="round" stroke-linejoin="round"/>
<path d="M63.4022 140.158C57.7993 144.654 51.8433 148.619 47.227 154.079C46.0924 154.796 44.9486 155.493 43.7662 156.145C43.055 156.537 42.5238 157.433 42.6474 158.236C42.7148 158.673 42.7821 159.11 42.8494 159.547C41.4259 161.336 40.0024 163.126 38.5789 164.914C38.5874 165.171 38.7747 165.466 39.0183 165.545C39.2625 165.624 39.5275 165.596 39.7802 165.553C40.667 165.403 41.5244 165.077 42.2876 164.602C41.8341 166.015 41.5103 167.352 41.0568 168.766C41.5728 168.882 42.2998 168.389 42.7331 168.086C43.1658 167.783 43.5055 167.367 43.839 166.957C43.9467 166.824 44.055 166.691 44.1627 166.558C44.1756 166.55 44.1933 166.544 44.205 166.535C48.2264 163.438 52.2473 160.34 56.2687 157.244C57.5894 156.825 58.9272 156.463 60.2253 156.111C61.7767 155.69 63.4505 156.027 65.0295 156.329C64.3184 158.915 63.6427 161.604 62.9322 164.19C62.6409 165.25 62.7223 166.372 63.3581 167.27C66.931 164.099 70.5595 160.938 74.1324 157.767C76.0877 156.032 77.2456 153.29 77.6661 150.71C77.9421 150.434 78.2285 150.11 78.5045 149.834L63.4022 140.158Z" fill="#FF787F"/>
<path d="M42.8494 159.548L47.227 154.079" stroke="#010100" stroke-miterlimit="10" stroke-linecap="round" stroke-linejoin="round"/>
<path d="M42.2881 164.603L44.5531 159.665L50.391 153.153" stroke="#010100" stroke-miterlimit="10" stroke-linecap="round" stroke-linejoin="round"/>
<path d="M44.1628 166.559C44.1628 166.559 43.8201 166.901 42.8127 166.559L47.3036 158.878L52.9738 153.153" stroke="#010100" stroke-miterlimit="10" stroke-linecap="round" stroke-linejoin="round"/>
<path d="M200.227 108.314C198.277 108.442 196.279 108.58 194.496 109.38C192.713 110.18 191.161 111.792 191.005 113.74C190.83 115.927 192.467 117.936 194.444 118.891C196.42 119.846 198.68 119.972 200.873 120.082C208.849 120.48 216.825 120.879 224.802 121.278C227.346 121.405 229.944 121.526 232.394 120.827C234.844 120.128 237.161 118.447 237.936 116.021C239.892 109.89 234.625 106.554 226.842 107.041C216.891 107.664 204.057 108.064 200.227 108.314Z" fill="#6860E9"/>
<path d="M85.9843 193.895C103.092 193.227 120.199 192.56 137.307 191.892C139.028 191.825 140.798 191.747 142.372 191.046C143.945 190.345 145.297 188.865 145.317 187.143C145.343 184.891 143.095 183.167 140.864 182.863C138.632 182.56 136.408 183.273 134.216 183.792C132.025 184.311 129.609 184.614 127.611 183.574C125.614 182.535 124.476 179.658 125.929 177.937C127.022 176.643 129.01 176.554 130.646 176.995C132.282 177.437 133.802 178.295 135.476 178.553C138.386 179.003 141.497 177.372 142.783 174.723C144.069 172.074 143.425 168.621 141.272 166.613C138.706 164.219 134.824 164.107 131.314 164.134C123.529 164.192 95.1569 162.621 89.3803 163.14C83.6036 163.66 77.7327 166.039 74.2841 170.703C71.0662 175.055 70.3985 181.216 72.7963 186.069C75.1947 190.921 80.5754 194.106 85.9843 193.895Z" fill="#6860E9"/>
<path d="M262.163 42.9563L257.58 42.8841C257.109 43.2543 256.636 43.6264 256.173 43.9906C254.812 44.146 253.687 44.0873 252.327 44.2427C251.721 43.7525 251.116 43.2623 250.51 42.7727L213.931 42.1962L209.543 57.2685C209.83 57.8615 210.117 58.4546 210.405 59.047C209.918 59.1412 209.43 59.2361 208.943 59.3303L205.281 71.9125L207.861 74.492L256.335 75.6799L263.958 44.7501L262.163 42.9563Z" fill="white"/>
<path d="M229.229 48.2666C229.136 49.8578 229.042 51.449 228.948 53.0396C230.524 51.9007 232.1 50.7617 233.677 49.6222" stroke="#010100" stroke-miterlimit="10" stroke-linecap="round" stroke-linejoin="round"/>
<path d="M232.467 52.4374C233.662 51.4074 234.856 50.378 236.052 49.348" stroke="#010100" stroke-miterlimit="10" stroke-linecap="round" stroke-linejoin="round"/>
<path d="M246.288 50.8621C246.642 50.2776 246.998 49.6932 247.353 49.1081C245.491 49.2348 243.63 49.3609 241.769 49.4876C241.447 50.5518 241.379 51.4772 241.059 52.5414C242.216 52.0849 243.374 51.6283 244.533 51.1712C244.307 51.8799 244.081 52.5886 243.855 53.2966" stroke="#010100" stroke-miterlimit="10" stroke-linecap="round" stroke-linejoin="round"/>
<path d="M255.476 48.8554C254.48 49.0298 253.485 49.2042 252.489 49.378C252.409 50.4019 252.328 51.4264 252.248 52.4502C253.269 51.9735 254.289 51.4967 255.31 51.02" stroke="#010100" stroke-miterlimit="10" stroke-linecap="round" stroke-linejoin="round"/>
<path d="M217.82 48.0634C217.444 49.5634 217.069 51.0635 216.694 52.5641C218.848 51.7379 221.001 50.9123 223.154 50.0861C222.957 49.7293 222.642 49.3633 222.444 49.0065" stroke="#010100" stroke-miterlimit="10" stroke-linecap="round" stroke-linejoin="round"/>
<path d="M221.104 52.3285C221.231 52.6822 221.358 53.0359 221.486 53.3897" stroke="#010100" stroke-miterlimit="10" stroke-linecap="round" stroke-linejoin="round"/>
<path d="M216.651 59.6841C216.347 60.9485 216.044 62.2135 215.74 63.4779" stroke="#010100" stroke-miterlimit="10" stroke-linecap="round" stroke-linejoin="round"/>
<path d="M217.553 61.5568C218.506 61.5697 219.459 61.5825 220.412 61.5954C220.23 62.5385 220.047 63.4822 219.864 64.4259C219.07 64.4834 218.276 64.5415 217.482 64.5991C217.668 63.924 217.855 63.2496 218.041 62.5746" stroke="#010100" stroke-miterlimit="10" stroke-linecap="round" stroke-linejoin="round"/>
<path d="M228.67 59.1492C228.076 60.8298 227.48 62.5109 226.885 64.1915C228.918 63.3084 230.95 62.4246 232.983 61.5415C231.827 61.4338 230.671 61.3261 229.515 61.2184C229.842 60.8218 230.169 60.4252 230.495 60.0286" stroke="#010100" stroke-miterlimit="10" stroke-linecap="round" stroke-linejoin="round"/>
<path d="M234.865 62.6584C234.132 63.3163 233.398 63.9736 232.664 64.6315" stroke="#010100" stroke-miterlimit="10" stroke-linecap="round" stroke-linejoin="round"/>
<path d="M241.388 59.3126C241.259 60.7955 241.13 62.279 241.001 63.7618C242.41 62.5721 243.819 61.3818 245.227 60.192C245.511 61.3065 245.794 62.4216 246.078 63.536" stroke="#010100" stroke-miterlimit="10" stroke-linecap="round" stroke-linejoin="round"/>
<path d="M244.142 62.9552C244.226 63.7361 244.31 64.5164 244.393 65.2973C245.96 65.1792 247.526 65.0617 249.093 64.9436" stroke="#010100" stroke-miterlimit="10" stroke-linecap="round" stroke-linejoin="round"/>
<path d="M250.16 61.8903C250.565 61.5617 250.969 61.2324 251.374 60.9038" stroke="#010100" stroke-miterlimit="10" stroke-linecap="round" stroke-linejoin="round"/>
<path d="M205.28 71.9131L253.557 72.3164L262.163 42.9563" stroke="#010100" stroke-miterlimit="10" stroke-linecap="round" stroke-linejoin="round"/>
<path d="M190.347 19.3306L187.804 18.0405L182.769 19.0577C182.485 19.5332 182.201 20.0081 181.916 20.4836C181.694 20.1103 181.473 19.7376 181.251 19.3643L166.866 22.2707L170.481 60.7073L172.368 61.6645L194.605 56.8101L190.347 19.3306Z" fill="#EFE000"/>
<path d="M170.481 60.7073L192.763 55.0672L187.804 18.0405" stroke="#010100" stroke-miterlimit="10" stroke-linecap="round" stroke-linejoin="round"/>
<path d="M174.926 26.346C173.563 26.7866 172.201 27.2267 170.838 27.6673C170.862 28.5657 170.623 29.5351 170.647 30.4342C171.428 30.01 172.209 29.5859 172.989 29.1618C172.819 29.9262 172.648 30.6906 172.477 31.455" stroke="#010100" stroke-miterlimit="10" stroke-linecap="round" stroke-linejoin="round"/>
<path d="M174.741 28.7964C174.593 29.5058 174.446 30.2145 174.298 30.9238" stroke="#010100" stroke-miterlimit="10" stroke-linecap="round" stroke-linejoin="round"/>
<path d="M184.244 24.5596C182.905 24.7964 181.567 25.0339 180.228 25.2707C180.23 25.8362 180.302 26.2885 180.304 26.854C181.715 26.5798 183.127 26.3062 184.538 26.032C184.624 26.5975 184.512 27.2836 184.598 27.8497C183.212 27.9929 181.827 28.1367 180.441 28.2799C180.517 28.8405 180.608 29.4654 180.683 30.0253C182.019 29.7359 183.356 29.4458 184.692 29.1563" stroke="#010100" stroke-miterlimit="10" stroke-linecap="round" stroke-linejoin="round"/>
<path d="M175.815 36.5168C174.751 36.7316 173.686 36.9458 172.621 37.1606C172.778 38.2476 172.978 39.4024 173.135 40.4893C173.838 40.37 174.722 40.0976 175.425 39.9783C175.478 40.6784 175.532 41.3785 175.585 42.0793" stroke="#010100" stroke-miterlimit="10" stroke-linecap="round" stroke-linejoin="round"/>
<path d="M173.401 44.0181C174.691 43.739 175.981 43.4593 177.27 43.1803" stroke="#010100" stroke-miterlimit="10" stroke-linecap="round" stroke-linejoin="round"/>
<path d="M174.231 38.6325C174.584 38.5988 174.938 38.5652 175.291 38.5315" stroke="#010100" stroke-miterlimit="10" stroke-linecap="round" stroke-linejoin="round"/>
<path d="M183.824 35.0572C182.993 35.9012 182.161 36.7457 181.33 37.5897C182.353 37.8424 183.376 38.0952 184.398 38.3479C184.735 37.5083 185.094 36.6613 185.431 35.8216C185.767 37.7555 186.103 39.69 186.439 41.6246" stroke="#010100" stroke-miterlimit="10" stroke-linecap="round" stroke-linejoin="round"/>
<path d="M182.88 40.4985C183.436 40.3724 183.993 40.2464 184.549 40.1197" stroke="#010100" stroke-miterlimit="10" stroke-linecap="round" stroke-linejoin="round"/>
<path d="M187.728 49.8003C186.389 49.8841 185.05 49.968 183.71 50.0518C184.652 48.9949 185.595 47.9386 186.537 46.8817C186.847 47.799 187.417 48.8835 187.728 49.8003Z" stroke="#010100" stroke-miterlimit="10" stroke-linecap="round" stroke-linejoin="round"/>
<path d="M184.395 51.64C185.406 51.5598 186.417 51.4796 187.429 51.3994" stroke="#010100" stroke-miterlimit="10" stroke-linecap="round" stroke-linejoin="round"/>
<path d="M183.788 46.4796C184.066 46.6564 184.344 46.8339 184.622 47.0108" stroke="#010100" stroke-miterlimit="10" stroke-linecap="round" stroke-linejoin="round"/>
<path d="M178.395 52.9484C177.29 52.6498 176.185 52.3505 175.081 52.0518C175.927 51.6675 176.773 51.2838 177.619 50.8994C176.514 50.206 175.408 49.512 174.303 48.8186C175.473 48.438 176.717 48.2862 177.944 48.3743C177.945 48.0457 177.982 47.4912 177.984 47.1626" stroke="#010100" stroke-miterlimit="10" stroke-linecap="round" stroke-linejoin="round"/>
<path d="M179.462 49.3633C179.462 49.7935 179.462 50.2232 179.462 50.6534" stroke="#010100" stroke-miterlimit="10" stroke-linecap="round" stroke-linejoin="round"/>
<path d="M50.317 230.614L42.2992 243.877C41.6719 244.914 42.4008 246.242 43.6125 246.271L80.63 247.14C80.63 247.14 81.731 250.733 85.5247 249.449L109.172 281.961C110.007 283.109 111.759 282.975 112.41 281.714L133.548 240.757C134.072 239.741 134.037 238.527 133.455 237.543L120.6 215.816L50.317 230.614Z" fill="#EFE000"/>
<path d="M140.014 224.342C140.014 224.342 122.129 205.921 104.965 208.073C104.965 208.073 110.266 194.917 104.345 179.2L98.7758 190.46C95.4269 185.725 90.2775 181.328 82.3344 179.2L73.8325 195.262C70.8477 195.128 68.912 195.189 68.912 195.189L45.7539 234.696L46.1664 238.326L83.6104 246.206L113.513 270.2L117.51 265.15L119.018 261.512C119.346 261.812 119.668 262.1 120 262.411L140.014 224.342Z" fill="white"/>
<path d="M104.965 208.073L85.8521 243.669C85.8521 243.669 90.1104 230.445 83.1128 220.715L98.7757 190.46" stroke="#010100" stroke-miterlimit="10" stroke-linecap="round" stroke-linejoin="round"/>
<path d="M73.8325 195.262L59.303 223.312C59.303 223.312 81.9311 221.949 85.8528 243.67C85.8528 243.67 95.9079 241.815 119.019 261.513" stroke="#010100" stroke-miterlimit="10" stroke-linecap="round" stroke-linejoin="round"/>
<path d="M117.51 265.151C117.51 265.151 102.939 250.688 85.8521 243.67C85.8521 243.67 69.7975 236.213 45.7539 234.696" stroke="#010100" stroke-miterlimit="10" stroke-linecap="round" stroke-linejoin="round"/>
<path d="M82.2854 245.71C82.3527 244.826 83.0375 244.023 83.9011 243.818C84.764 243.612 85.7377 244.02 86.1961 244.78C86.6545 245.539 86.5621 246.591 85.9788 247.258" stroke="#010100" stroke-miterlimit="10" stroke-linecap="round" stroke-linejoin="round"/>
<path d="M47.5464 237.179C59.5746 237.833 71.5154 240.074 82.9628 243.823" stroke="#010100" stroke-miterlimit="10" stroke-linecap="round" stroke-linejoin="round"/>
<path d="M69.6238 241.973C73.8839 242.582 78.0853 243.597 82.1533 245.001" stroke="#010100" stroke-miterlimit="10" stroke-linecap="round" stroke-linejoin="round"/>
<path d="M86.6887 246.932C91.1337 250.339 95.5786 253.746 100.024 257.152" stroke="#010100" stroke-miterlimit="10" stroke-linecap="round" stroke-linejoin="round"/>
<path d="M86.8325 245.323C97.0003 251.094 106.517 258.243 115.098 266.553" stroke="#010100" stroke-miterlimit="10" stroke-linecap="round" stroke-linejoin="round"/>
<path d="M101.42 258.17C104.402 260.391 107.384 262.612 110.366 264.833" stroke="#010100" stroke-miterlimit="10" stroke-linecap="round" stroke-linejoin="round"/>
<path d="M86.5896 219.52C88.9207 224.16 89.8032 229.515 89.0841 234.659" stroke="#010100" stroke-miterlimit="10" stroke-linecap="round" stroke-linejoin="round"/>
<path d="M91.7556 224.119C91.8639 226.105 91.7629 228.102 91.449 230.066" stroke="#010100" stroke-miterlimit="10" stroke-linecap="round" stroke-linejoin="round"/>
<path d="M89.3508 214.135C90.2156 216.067 90.8557 218.1 91.2633 220.177" stroke="#010100" stroke-miterlimit="10" stroke-linecap="round" stroke-linejoin="round"/>
<path d="M92.1128 208.75C93.8649 213.143 94.5694 217.943 94.1807 222.656" stroke="#010100" stroke-miterlimit="10" stroke-linecap="round" stroke-linejoin="round"/>
<path d="M96.7903 214.297C96.8056 216.505 96.6025 218.714 96.179 220.881" stroke="#010100" stroke-miterlimit="10" stroke-linecap="round" stroke-linejoin="round"/>
<path d="M94.8748 203.364C95.7052 205.698 96.2671 208.125 96.5596 210.585" stroke="#010100" stroke-miterlimit="10" stroke-linecap="round" stroke-linejoin="round"/>
<path d="M99.2599 206.861C99.4337 210.018 99.1968 213.195 98.5444 216.289" stroke="#010100" stroke-miterlimit="10" stroke-linecap="round" stroke-linejoin="round"/>
<path d="M97.6362 197.978C98.1748 199.677 98.5873 201.417 98.8657 203.177" stroke="#010100" stroke-miterlimit="10" stroke-linecap="round" stroke-linejoin="round"/>
<path d="M100.398 192.593C101.957 198.115 102.272 203.98 101.316 209.636" stroke="#010100" stroke-miterlimit="10" stroke-linecap="round" stroke-linejoin="round"/>
<path d="M104.402 196.312C104.469 198.924 104.292 201.539 103.874 204.119" stroke="#010100" stroke-miterlimit="10" stroke-linecap="round" stroke-linejoin="round"/>
<path d="M103.16 187.208C103.602 188.967 103.93 190.754 104.138 192.556" stroke="#010100" stroke-miterlimit="10" stroke-linecap="round" stroke-linejoin="round"/>
<path d="M126.469 218.359C128.728 219.8 130.866 221.428 132.849 223.229" stroke="#010100" stroke-miterlimit="10" stroke-linecap="round" stroke-linejoin="round"/>
<path d="M106.405 211.204C112.317 211.88 118.082 213.714 123.327 216.521" stroke="#010100" stroke-miterlimit="10" stroke-linecap="round" stroke-linejoin="round"/>
<path d="M104.246 215.387C115.128 216.754 125.497 221.96 133.094 229.871" stroke="#010100" stroke-miterlimit="10" stroke-linecap="round" stroke-linejoin="round"/>
<path d="M113.184 222.455C117.826 224.256 122.202 226.742 126.117 229.82" stroke="#010100" stroke-miterlimit="10" stroke-linecap="round" stroke-linejoin="round"/>
<path d="M102.087 219.572C104.617 219.922 107.119 220.47 109.564 221.209" stroke="#010100" stroke-miterlimit="10" stroke-linecap="round" stroke-linejoin="round"/>
<path d="M120.733 231.805C123.495 233.641 126.079 235.745 128.429 238.086" stroke="#010100" stroke-miterlimit="10" stroke-linecap="round" stroke-linejoin="round"/>
<path d="M99.9287 223.756C106.005 224.665 111.907 226.701 117.272 229.694" stroke="#010100" stroke-miterlimit="10" stroke-linecap="round" stroke-linejoin="round"/>
<path d="M105.654 229.859C111.291 231.706 116.612 234.499 121.334 238.089" stroke="#010100" stroke-miterlimit="10" stroke-linecap="round" stroke-linejoin="round"/>
<path d="M97.7695 227.939C99.2971 228.187 100.813 228.503 102.312 228.886" stroke="#010100" stroke-miterlimit="10" stroke-linecap="round" stroke-linejoin="round"/>
<path d="M112.05 237.828C116.306 240.12 120.263 242.968 123.764 246.302" stroke="#010100" stroke-miterlimit="10" stroke-linecap="round" stroke-linejoin="round"/>
<path d="M95.6111 232.124C99.6405 232.825 103.587 233.993 107.355 235.581" stroke="#010100" stroke-miterlimit="10" stroke-linecap="round" stroke-linejoin="round"/>
<path d="M93.4519 236.308C101.655 237.839 109.494 241.238 116.244 246.141" stroke="#010100" stroke-miterlimit="10" stroke-linecap="round" stroke-linejoin="round"/>
<path d="M108.135 246.676C110.916 248.216 113.574 249.979 116.068 251.95" stroke="#010100" stroke-miterlimit="10" stroke-linecap="round" stroke-linejoin="round"/>
<path d="M91.2927 240.492C95.4641 241.324 99.5406 242.622 103.431 244.341" stroke="#010100" stroke-miterlimit="10" stroke-linecap="round" stroke-linejoin="round"/>
<path d="M84.324 230.894C85.5082 232.703 86.4605 234.66 87.141 236.712" stroke="#010100" stroke-miterlimit="10" stroke-linecap="round" stroke-linejoin="round"/>
<path d="M72.1335 221.198C75.8496 222.581 79.2278 224.831 81.8998 227.764" stroke="#010100" stroke-miterlimit="10" stroke-linecap="round" stroke-linejoin="round"/>
<path d="M64.3911 219.662C65.8336 219.712 67.2706 219.891 68.6818 220.193" stroke="#010100" stroke-miterlimit="10" stroke-linecap="round" stroke-linejoin="round"/>
<path d="M66.7136 215.154C74.423 215.583 81.6072 219.777 85.8062 226.245" stroke="#010100" stroke-miterlimit="10" stroke-linecap="round" stroke-linejoin="round"/>
<path d="M80.6096 214.735C81.9199 215.625 83.1421 216.644 84.2498 217.777" stroke="#010100" stroke-miterlimit="10" stroke-linecap="round" stroke-linejoin="round"/>
<path d="M69.0356 210.645C71.3435 210.832 73.6177 211.36 75.7762 212.197" stroke="#010100" stroke-miterlimit="10" stroke-linecap="round" stroke-linejoin="round"/>
<path d="M71.3574 206.137C77.0386 206.742 82.404 209.462 86.2645 213.67" stroke="#010100" stroke-miterlimit="10" stroke-linecap="round" stroke-linejoin="round"/>
<path d="M84.1655 205.832C85.7121 206.942 87.1252 208.239 88.359 209.688" stroke="#010100" stroke-miterlimit="10" stroke-linecap="round" stroke-linejoin="round"/>
<path d="M73.6799 201.628C76.2736 201.986 78.7975 202.789 81.1286 203.98" stroke="#010100" stroke-miterlimit="10" stroke-linecap="round" stroke-linejoin="round"/>
<path d="M76.002 197.12C81.6268 198.089 86.7823 201.163 90.3454 205.616" stroke="#010100" stroke-miterlimit="10" stroke-linecap="round" stroke-linejoin="round"/>
<path d="M84.6042 194.934C87.7126 196.616 90.4452 198.985 92.5364 201.836" stroke="#010100" stroke-miterlimit="10" stroke-linecap="round" stroke-linejoin="round"/>
<path d="M78.324 192.611C79.2481 192.809 80.1594 193.063 81.0529 193.371" stroke="#010100" stroke-miterlimit="10" stroke-linecap="round" stroke-linejoin="round"/>
<path d="M80.6465 188.102C86.3179 189.591 91.3614 193.165 94.6705 198.002" stroke="#010100" stroke-miterlimit="10" stroke-linecap="round" stroke-linejoin="round"/>
<path d="M94.5432 191.169C95.3162 192.043 96.031 192.967 96.6797 193.937" stroke="#010100" stroke-miterlimit="10" stroke-linecap="round" stroke-linejoin="round"/>
<path d="M82.9683 183.594C86.1904 184.627 89.1984 186.309 91.7872 188.486" stroke="#010100" stroke-miterlimit="10" stroke-linecap="round" stroke-linejoin="round"/>
</svg>
