<svg width="42" height="42" viewBox="0 0 193 210" fill="none" xmlns="http://www.w3.org/2000/svg">
<g clip-path="url(#clip0_78_204)">
<path d="M24.27 46.14C16.73 44.66 9.13004 41.5201 4.30004 35.4501C3.45004 34.3801 2.67004 32.92 3.30004 31.71C3.83004 30.69 7.15004 32.4301 8.27004 32.2201C15.67 30.8701 18.97 27.47 26.43 26.55" fill="#FAEA00"/>
<path d="M23.6801 49.15C13.9401 47.24 6.61005 43.27 1.90005 37.37C-0.739945 34.06 -0.0599453 31.52 0.580055 30.29C2.06005 27.46 5.42006 28.42 7.03006 28.88C7.38006 28.98 7.72005 29.09 8.00005 29.14C11.0101 28.56 13.2701 27.6 15.6701 26.58C18.6301 25.33 21.6901 24.03 26.0601 23.49L26.8101 29.59C23.2901 30.02 20.8701 31.05 18.0701 32.24C15.4001 33.37 12.6501 34.54 8.83005 35.24C8.65005 35.27 8.48005 35.29 8.30005 35.3C12.1101 39.08 17.6701 41.7 24.8701 43.12L23.6901 49.15H23.6801Z" fill="#FAEA00"/>
<path d="M100.4 209.21L99.58 201.17C99.41 199.52 97.99 197.85 95.95 196.9C93.73 195.86 91.04 195.62 88.25 195.45L83.97 195.18L85.6 191.21C86.07 190.08 85.83 188.51 84.98 187.11C84.09 185.65 82.8 184.77 81 183.54L72.8 177.93L98.93 177.88V168.97C98.93 167.84 98.86 166.78 98.79 165.68C98.74 164.9 98.69 164.09 98.66 163.24L104.8 163.01C104.83 163.81 104.88 164.56 104.92 165.29C105 166.52 105.07 167.7 105.07 168.96V184.04H102C101.58 184.04 101.08 184.04 100.59 184.03H90.28C91.33 185.78 91.9 187.71 91.96 189.59C94.18 189.86 96.42 190.33 98.53 191.32C100.38 192.18 101.96 193.4 103.16 194.83L110.36 184.82L115.35 188.41L100.39 209.21H100.4Z" fill="#F6E400"/>
<path d="M84.4501 114.07C90.0401 117.26 95.2901 121.19 101.26 123.12C107.15 125.1 113.34 126.6 119.62 126.54C141.12 126.31 167.26 118.16 174.44 95.7801C174.75 95.0101 174.96 94.3201 175.14 93.7901C175.14 93.7201 175.12 93.8901 175.14 94.0101C175.14 94.1101 175.16 94.0301 174.9 93.7301C171.5 90.6501 164.15 85.4501 160.29 82.5201C155.11 78.7401 149.81 74.8801 144.78 70.7101L151.08 68.6201C149.99 72.8401 148.57 77.4401 145.63 81.5201C142.72 85.6101 138.78 88.5001 134.92 90.7701C118.44 100.7 96.8201 95.3901 86.2701 79.4701C78.2801 68.1801 82.1801 53.35 85.1101 41.09C87.2901 33.73 85.1801 25.98 81.5001 19.47C77.9601 13.74 70.5201 9.27005 63.7501 8.61005C59.9901 8.35005 56.0001 8.41005 52.3301 9.05005C37.3901 11.88 27.2401 27.1301 27.6301 41.9901C27.8701 49.2601 28.9501 56.61 36.0101 60.5201C39.6601 62.88 44.0801 65.7101 46.1601 69.9801C50.0701 78.7601 48.2801 87.8701 45.5001 96.4401C39.5501 111.39 40.8301 129.04 50.5701 141.92C61.0301 155.82 88.0501 162.63 104.87 162.95L105.11 169.09C87.3201 169.54 70.0801 164.93 54.9901 155.44C39.4201 145.56 33.8101 124.67 37.7101 107.43C39.8501 96.1801 49.0401 83.4001 42.1301 72.4001C38.7401 67.9201 30.8201 67.18 26.4901 62.39C16.0801 50.35 18.1601 28.05 27.6001 15.88C36.6001 3.40005 49.5901 -1.34995 64.6401 0.32005C82.0601 2.45005 94.9101 18.54 92.4001 36.1C90.0201 46.35 84.2401 55.7401 85.4301 66.4401C86.5301 78.3701 98.0601 86.9501 109.25 88.8501C120.16 90.4701 132.68 85.6901 139.31 77.0601C141.32 74.2501 142.49 70.6401 143.45 66.7301L144.93 60.73C153.82 68.2 163.42 75.0201 172.69 82.1101C173.65 82.9201 177.41 85.8701 178.39 86.7401C180.8 88.4801 183.38 92.0601 182.39 95.4801C182.15 96.5901 181.79 97.1401 181.47 98.0401C181 99.2501 180.6 100.61 180.04 101.77C169.55 124.29 142.47 132.21 119.44 130.54C112.83 130.03 106.47 127.94 100.39 125.28C94.4101 122.49 89.5501 118.13 84.4501 114.09V114.07Z" fill="white"/>
<path d="M86.35 75.0501C94.17 75.7601 102.06 75.5101 109.05 71.7201C114.84 69.2001 119.26 65.3701 123.57 60.8401C126.61 68.4701 129.42 76.9301 134.66 83.2001L130.01 87.2101C125.05 81.3001 122.29 74.3401 119.54 67.4101L124.48 68.5501C116.63 75.0701 106.18 79.3001 95.92 79.0601C92.52 78.9701 89.24 78.5001 86.01 78.0101L86.34 75.0401L86.35 75.0501Z" fill="white"/>
<path d="M167.37 116.04L167.84 154.35L167.87 156.46C153.32 161.92 135.83 166.53 121.03 159.08C107.15 153 96.08 142.35 86.51 130.92C91.71 136.21 97.09 141.37 103 145.76C125.06 161.44 139.24 162.4 163.7 151.45L161.7 154.31L161.23 116.19L167.37 116.03V116.04Z" fill="white"/>
<path d="M37.5201 27.2601C34.7401 27.2601 32.5701 24.7501 32.5701 21.5401C32.5701 18.3301 34.7501 15.8201 37.5201 15.8201C40.2901 15.8201 42.4701 18.3301 42.4701 21.5401C42.4701 24.7501 40.2901 27.2601 37.5201 27.2601ZM36.4201 21.5401C36.6001 21.7301 36.9901 21.9601 37.5201 21.9601C38.0501 21.9601 38.4301 21.7201 38.6201 21.5401C38.4401 21.3501 38.0501 21.1201 37.5201 21.1201C36.9901 21.1201 36.6101 21.3601 36.4201 21.5401Z" fill="white"/>
<path d="M166.6 80.3901C170.38 78.7801 173.73 76.6701 176.54 74.0801C178.72 71.8701 181.66 67.9801 185.7 69.8101C188.05 70.8501 189.31 73.2801 190.01 75.2901C191.25 79.5501 192.31 83.8201 192.62 88.2301C194.14 103.58 189.49 119.27 180.61 131.81C176.65 137.11 171.94 141.83 166.49 145.6L162.88 140.63C175.29 130.85 183.47 116.13 185.58 100.51C186.66 92.2001 186.43 83.1101 183.42 75.3001C183.13 74.9401 183.38 75.1801 183.52 75.0501C183.61 74.9101 182.95 75.2001 182.22 75.8601C178.02 79.5001 172.43 81.9001 166.97 82.0601L166.61 80.3901H166.6Z" fill="white"/>
<path d="M34.5701 21.1201L35.7401 23.5001L38.6201 23.2001L39.3301 21.3901L37.5201 20.0901L34.5701 21.1201Z" fill="white"/>
</g>
<defs>
<clipPath id="clip0_78_204">
<rect width="192.9" height="209.21" fill="white"/>
</clipPath>
</defs>
</svg>
