<svg xmlns="http://www.w3.org/2000/svg" width="16" height="16" viewBox="0 0 16 16" fill="none">
  <path fill-rule="evenodd" clip-rule="evenodd" d="M4.66665 1.33333C2.8257 1.33333 1.33331 2.82571 1.33331 4.66666L1.33331 11.3333C1.33331 13.1743 2.8257 14.6667 4.66665 14.6667H11.3333C13.1743 14.6667 14.6666 13.1743 14.6666 11.3333V4.66666C14.6666 2.82571 13.1743 1.33333 11.3333 1.33333L4.66665 1.33333ZM8.8966 4.97727C8.52978 4.23402 7.46994 4.23402 7.10313 4.97727L6.57751 6.04228L5.4022 6.21307C4.58198 6.33225 4.25447 7.34022 4.84798 7.91876L5.69845 8.74776L5.49768 9.91832C5.35757 10.7352 6.215 11.3582 6.94863 10.9725L7.99986 10.4198L9.05109 10.9725C9.78472 11.3582 10.6422 10.7352 10.502 9.91832L10.3013 8.74776L11.1517 7.91876C11.7453 7.34022 11.4177 6.33225 10.5975 6.21307L9.42221 6.04228L8.8966 4.97727Z" fill="white"/>
</svg>